<?xml version="1.0" encoding="utf-8"?>
<svg xmlns="http://www.w3.org/2000/svg" xmlns:xlink="http://www.w3.org/1999/xlink" width="600" height="400" viewBox="0 0 2400 1600">
<defs>
  <clipPath id="clip790">
    <rect x="0" y="0" width="2400" height="1600"/>
  </clipPath>
</defs>
<path clip-path="url(#clip790)" d="M0 1600 L2400 1600 L2400 0 L0 0  Z" fill="#ffffff" fill-rule="evenodd" fill-opacity="1"/>
<defs>
  <clipPath id="clip791">
    <rect x="480" y="0" width="1681" height="1600"/>
  </clipPath>
</defs>
<path clip-path="url(#clip790)" d="M174.149 1423.18 L2352.76 1423.18 L2352.76 123.472 L174.149 123.472  Z" fill="#ffffff" fill-rule="evenodd" fill-opacity="1"/>
<defs>
  <clipPath id="clip792">
    <rect x="174" y="123" width="2180" height="1301"/>
  </clipPath>
</defs>
<polyline clip-path="url(#clip792)" style="stroke:#000000; stroke-linecap:round; stroke-linejoin:round; stroke-width:2; stroke-opacity:0.1; fill:none" points="234.779,1423.18 234.779,123.472 "/>
<polyline clip-path="url(#clip792)" style="stroke:#000000; stroke-linecap:round; stroke-linejoin:round; stroke-width:2; stroke-opacity:0.1; fill:none" points="749.116,1423.18 749.116,123.472 "/>
<polyline clip-path="url(#clip792)" style="stroke:#000000; stroke-linecap:round; stroke-linejoin:round; stroke-width:2; stroke-opacity:0.1; fill:none" points="1263.45,1423.18 1263.45,123.472 "/>
<polyline clip-path="url(#clip792)" style="stroke:#000000; stroke-linecap:round; stroke-linejoin:round; stroke-width:2; stroke-opacity:0.1; fill:none" points="1777.79,1423.18 1777.79,123.472 "/>
<polyline clip-path="url(#clip792)" style="stroke:#000000; stroke-linecap:round; stroke-linejoin:round; stroke-width:2; stroke-opacity:0.1; fill:none" points="2292.13,1423.18 2292.13,123.472 "/>
<polyline clip-path="url(#clip790)" style="stroke:#000000; stroke-linecap:round; stroke-linejoin:round; stroke-width:4; stroke-opacity:1; fill:none" points="174.149,1423.18 2352.76,1423.18 "/>
<polyline clip-path="url(#clip790)" style="stroke:#000000; stroke-linecap:round; stroke-linejoin:round; stroke-width:4; stroke-opacity:1; fill:none" points="234.779,1423.18 234.779,1404.28 "/>
<polyline clip-path="url(#clip790)" style="stroke:#000000; stroke-linecap:round; stroke-linejoin:round; stroke-width:4; stroke-opacity:1; fill:none" points="749.116,1423.18 749.116,1404.28 "/>
<polyline clip-path="url(#clip790)" style="stroke:#000000; stroke-linecap:round; stroke-linejoin:round; stroke-width:4; stroke-opacity:1; fill:none" points="1263.45,1423.18 1263.45,1404.28 "/>
<polyline clip-path="url(#clip790)" style="stroke:#000000; stroke-linecap:round; stroke-linejoin:round; stroke-width:4; stroke-opacity:1; fill:none" points="1777.79,1423.18 1777.79,1404.28 "/>
<polyline clip-path="url(#clip790)" style="stroke:#000000; stroke-linecap:round; stroke-linejoin:round; stroke-width:4; stroke-opacity:1; fill:none" points="2292.13,1423.18 2292.13,1404.28 "/>
<path clip-path="url(#clip790)" d="M181.307 1468.75 L210.983 1468.75 L210.983 1472.69 L181.307 1472.69 L181.307 1468.75 Z" fill="#000000" fill-rule="nonzero" fill-opacity="1" /><path clip-path="url(#clip790)" d="M221.885 1481.64 L229.524 1481.64 L229.524 1455.28 L221.214 1456.95 L221.214 1452.69 L229.478 1451.02 L234.154 1451.02 L234.154 1481.64 L241.793 1481.64 L241.793 1485.58 L221.885 1485.58 L221.885 1481.64 Z" fill="#000000" fill-rule="nonzero" fill-opacity="1" /><path clip-path="url(#clip790)" d="M251.237 1479.7 L256.121 1479.7 L256.121 1485.58 L251.237 1485.58 L251.237 1479.7 Z" fill="#000000" fill-rule="nonzero" fill-opacity="1" /><path clip-path="url(#clip790)" d="M276.306 1454.1 Q272.695 1454.1 270.867 1457.66 Q269.061 1461.2 269.061 1468.33 Q269.061 1475.44 270.867 1479.01 Q272.695 1482.55 276.306 1482.55 Q279.941 1482.55 281.746 1479.01 Q283.575 1475.44 283.575 1468.33 Q283.575 1461.2 281.746 1457.66 Q279.941 1454.1 276.306 1454.1 M276.306 1450.39 Q282.117 1450.39 285.172 1455 Q288.251 1459.58 288.251 1468.33 Q288.251 1477.06 285.172 1481.67 Q282.117 1486.25 276.306 1486.25 Q270.496 1486.25 267.418 1481.67 Q264.362 1477.06 264.362 1468.33 Q264.362 1459.58 267.418 1455 Q270.496 1450.39 276.306 1450.39 Z" fill="#000000" fill-rule="nonzero" fill-opacity="1" /><path clip-path="url(#clip790)" d="M696.141 1468.75 L725.817 1468.75 L725.817 1472.69 L696.141 1472.69 L696.141 1468.75 Z" fill="#000000" fill-rule="nonzero" fill-opacity="1" /><path clip-path="url(#clip790)" d="M745.91 1454.1 Q742.299 1454.1 740.47 1457.66 Q738.664 1461.2 738.664 1468.33 Q738.664 1475.44 740.47 1479.01 Q742.299 1482.55 745.91 1482.55 Q749.544 1482.55 751.349 1479.01 Q753.178 1475.44 753.178 1468.33 Q753.178 1461.2 751.349 1457.66 Q749.544 1454.1 745.91 1454.1 M745.91 1450.39 Q751.72 1450.39 754.775 1455 Q757.854 1459.58 757.854 1468.33 Q757.854 1477.06 754.775 1481.67 Q751.72 1486.25 745.91 1486.25 Q740.1 1486.25 737.021 1481.67 Q733.965 1477.06 733.965 1468.33 Q733.965 1459.58 737.021 1455 Q740.1 1450.39 745.91 1450.39 Z" fill="#000000" fill-rule="nonzero" fill-opacity="1" /><path clip-path="url(#clip790)" d="M766.072 1479.7 L770.956 1479.7 L770.956 1485.58 L766.072 1485.58 L766.072 1479.7 Z" fill="#000000" fill-rule="nonzero" fill-opacity="1" /><path clip-path="url(#clip790)" d="M781.187 1451.02 L799.544 1451.02 L799.544 1454.96 L785.47 1454.96 L785.47 1463.43 Q786.488 1463.08 787.507 1462.92 Q788.525 1462.73 789.544 1462.73 Q795.331 1462.73 798.71 1465.9 Q802.09 1469.08 802.09 1474.49 Q802.09 1480.07 798.618 1483.17 Q795.146 1486.25 788.826 1486.25 Q786.65 1486.25 784.382 1485.88 Q782.136 1485.51 779.729 1484.77 L779.729 1480.07 Q781.812 1481.2 784.034 1481.76 Q786.257 1482.32 788.734 1482.32 Q792.738 1482.32 795.076 1480.21 Q797.414 1478.1 797.414 1474.49 Q797.414 1470.88 795.076 1468.77 Q792.738 1466.67 788.734 1466.67 Q786.859 1466.67 784.984 1467.08 Q783.132 1467.5 781.187 1468.38 L781.187 1451.02 Z" fill="#000000" fill-rule="nonzero" fill-opacity="1" /><path clip-path="url(#clip790)" d="M1240.84 1454.1 Q1237.23 1454.1 1235.4 1457.66 Q1233.59 1461.2 1233.59 1468.33 Q1233.59 1475.44 1235.4 1479.01 Q1237.23 1482.55 1240.84 1482.55 Q1244.47 1482.55 1246.28 1479.01 Q1248.11 1475.44 1248.11 1468.33 Q1248.11 1461.2 1246.28 1457.66 Q1244.47 1454.1 1240.84 1454.1 M1240.84 1450.39 Q1246.65 1450.39 1249.7 1455 Q1252.78 1459.58 1252.78 1468.33 Q1252.78 1477.06 1249.7 1481.67 Q1246.65 1486.25 1240.84 1486.25 Q1235.03 1486.25 1231.95 1481.67 Q1228.89 1477.06 1228.89 1468.33 Q1228.89 1459.58 1231.95 1455 Q1235.03 1450.39 1240.84 1450.39 Z" fill="#000000" fill-rule="nonzero" fill-opacity="1" /><path clip-path="url(#clip790)" d="M1261 1479.7 L1265.88 1479.7 L1265.88 1485.58 L1261 1485.58 L1261 1479.7 Z" fill="#000000" fill-rule="nonzero" fill-opacity="1" /><path clip-path="url(#clip790)" d="M1286.07 1454.1 Q1282.46 1454.1 1280.63 1457.66 Q1278.82 1461.2 1278.82 1468.33 Q1278.82 1475.44 1280.63 1479.01 Q1282.46 1482.55 1286.07 1482.55 Q1289.7 1482.55 1291.51 1479.01 Q1293.34 1475.44 1293.34 1468.33 Q1293.34 1461.2 1291.51 1457.66 Q1289.7 1454.1 1286.07 1454.1 M1286.07 1450.39 Q1291.88 1450.39 1294.93 1455 Q1298.01 1459.58 1298.01 1468.33 Q1298.01 1477.06 1294.93 1481.67 Q1291.88 1486.25 1286.07 1486.25 Q1280.26 1486.25 1277.18 1481.67 Q1274.12 1477.06 1274.12 1468.33 Q1274.12 1459.58 1277.18 1455 Q1280.26 1450.39 1286.07 1450.39 Z" fill="#000000" fill-rule="nonzero" fill-opacity="1" /><path clip-path="url(#clip790)" d="M1755.67 1454.1 Q1752.06 1454.1 1750.23 1457.66 Q1748.43 1461.2 1748.43 1468.33 Q1748.43 1475.44 1750.23 1479.01 Q1752.06 1482.55 1755.67 1482.55 Q1759.31 1482.55 1761.11 1479.01 Q1762.94 1475.44 1762.94 1468.33 Q1762.94 1461.2 1761.11 1457.66 Q1759.31 1454.1 1755.67 1454.1 M1755.67 1450.39 Q1761.48 1450.39 1764.54 1455 Q1767.62 1459.58 1767.62 1468.33 Q1767.62 1477.06 1764.54 1481.67 Q1761.48 1486.25 1755.67 1486.25 Q1749.86 1486.25 1746.78 1481.67 Q1743.73 1477.06 1743.73 1468.33 Q1743.73 1459.58 1746.78 1455 Q1749.86 1450.39 1755.67 1450.39 Z" fill="#000000" fill-rule="nonzero" fill-opacity="1" /><path clip-path="url(#clip790)" d="M1775.83 1479.7 L1780.72 1479.7 L1780.72 1485.58 L1775.83 1485.58 L1775.83 1479.7 Z" fill="#000000" fill-rule="nonzero" fill-opacity="1" /><path clip-path="url(#clip790)" d="M1790.95 1451.02 L1809.31 1451.02 L1809.31 1454.96 L1795.23 1454.96 L1795.23 1463.43 Q1796.25 1463.08 1797.27 1462.92 Q1798.29 1462.73 1799.31 1462.73 Q1805.09 1462.73 1808.47 1465.9 Q1811.85 1469.08 1811.85 1474.49 Q1811.85 1480.07 1808.38 1483.17 Q1804.91 1486.25 1798.59 1486.25 Q1796.41 1486.25 1794.14 1485.88 Q1791.9 1485.51 1789.49 1484.77 L1789.49 1480.07 Q1791.57 1481.2 1793.8 1481.76 Q1796.02 1482.32 1798.5 1482.32 Q1802.5 1482.32 1804.84 1480.21 Q1807.18 1478.1 1807.18 1474.49 Q1807.18 1470.88 1804.84 1468.77 Q1802.5 1466.67 1798.5 1466.67 Q1796.62 1466.67 1794.75 1467.08 Q1792.89 1467.5 1790.95 1468.38 L1790.95 1451.02 Z" fill="#000000" fill-rule="nonzero" fill-opacity="1" /><path clip-path="url(#clip790)" d="M2259.28 1481.64 L2266.92 1481.64 L2266.92 1455.28 L2258.61 1456.95 L2258.61 1452.69 L2266.87 1451.02 L2271.55 1451.02 L2271.55 1481.64 L2279.19 1481.64 L2279.19 1485.58 L2259.28 1485.58 L2259.28 1481.64 Z" fill="#000000" fill-rule="nonzero" fill-opacity="1" /><path clip-path="url(#clip790)" d="M2288.63 1479.7 L2293.51 1479.7 L2293.51 1485.58 L2288.63 1485.58 L2288.63 1479.7 Z" fill="#000000" fill-rule="nonzero" fill-opacity="1" /><path clip-path="url(#clip790)" d="M2313.7 1454.1 Q2310.09 1454.1 2308.26 1457.66 Q2306.45 1461.2 2306.45 1468.33 Q2306.45 1475.44 2308.26 1479.01 Q2310.09 1482.55 2313.7 1482.55 Q2317.33 1482.55 2319.14 1479.01 Q2320.97 1475.44 2320.97 1468.33 Q2320.97 1461.2 2319.14 1457.66 Q2317.33 1454.1 2313.7 1454.1 M2313.7 1450.39 Q2319.51 1450.39 2322.57 1455 Q2325.64 1459.58 2325.64 1468.33 Q2325.64 1477.06 2322.57 1481.67 Q2319.51 1486.25 2313.7 1486.25 Q2307.89 1486.25 2304.81 1481.67 Q2301.76 1477.06 2301.76 1468.33 Q2301.76 1459.58 2304.81 1455 Q2307.89 1450.39 2313.7 1450.39 Z" fill="#000000" fill-rule="nonzero" fill-opacity="1" /><path clip-path="url(#clip790)" d="M1280.07 1532.4 L1267.18 1549.74 L1280.74 1568.04 L1273.83 1568.04 L1263.45 1554.04 L1253.08 1568.04 L1246.17 1568.04 L1260.01 1549.39 L1247.35 1532.4 L1254.25 1532.4 L1263.71 1545.1 L1273.16 1532.4 L1280.07 1532.4 Z" fill="#000000" fill-rule="nonzero" fill-opacity="1" /><polyline clip-path="url(#clip792)" style="stroke:#000000; stroke-linecap:round; stroke-linejoin:round; stroke-width:2; stroke-opacity:0.1; fill:none" points="174.149,1423.18 2352.76,1423.18 "/>
<polyline clip-path="url(#clip792)" style="stroke:#000000; stroke-linecap:round; stroke-linejoin:round; stroke-width:2; stroke-opacity:0.1; fill:none" points="174.149,989.944 2352.76,989.944 "/>
<polyline clip-path="url(#clip792)" style="stroke:#000000; stroke-linecap:round; stroke-linejoin:round; stroke-width:2; stroke-opacity:0.1; fill:none" points="174.149,556.708 2352.76,556.708 "/>
<polyline clip-path="url(#clip792)" style="stroke:#000000; stroke-linecap:round; stroke-linejoin:round; stroke-width:2; stroke-opacity:0.1; fill:none" points="174.149,123.472 2352.76,123.472 "/>
<polyline clip-path="url(#clip790)" style="stroke:#000000; stroke-linecap:round; stroke-linejoin:round; stroke-width:4; stroke-opacity:1; fill:none" points="174.149,1423.18 174.149,123.472 "/>
<polyline clip-path="url(#clip790)" style="stroke:#000000; stroke-linecap:round; stroke-linejoin:round; stroke-width:4; stroke-opacity:1; fill:none" points="174.149,1423.18 193.047,1423.18 "/>
<polyline clip-path="url(#clip790)" style="stroke:#000000; stroke-linecap:round; stroke-linejoin:round; stroke-width:4; stroke-opacity:1; fill:none" points="174.149,989.944 193.047,989.944 "/>
<polyline clip-path="url(#clip790)" style="stroke:#000000; stroke-linecap:round; stroke-linejoin:round; stroke-width:4; stroke-opacity:1; fill:none" points="174.149,556.708 193.047,556.708 "/>
<polyline clip-path="url(#clip790)" style="stroke:#000000; stroke-linecap:round; stroke-linejoin:round; stroke-width:4; stroke-opacity:1; fill:none" points="174.149,123.472 193.047,123.472 "/>
<path clip-path="url(#clip790)" d="M126.205 1408.98 Q122.593 1408.98 120.765 1412.54 Q118.959 1416.08 118.959 1423.21 Q118.959 1430.32 120.765 1433.89 Q122.593 1437.43 126.205 1437.43 Q129.839 1437.43 131.644 1433.89 Q133.473 1430.32 133.473 1423.21 Q133.473 1416.08 131.644 1412.54 Q129.839 1408.98 126.205 1408.98 M126.205 1405.27 Q132.015 1405.27 135.07 1409.88 Q138.149 1414.46 138.149 1423.21 Q138.149 1431.94 135.07 1436.55 Q132.015 1441.13 126.205 1441.13 Q120.394 1441.13 117.316 1436.55 Q114.26 1431.94 114.26 1423.21 Q114.26 1414.46 117.316 1409.88 Q120.394 1405.27 126.205 1405.27 Z" fill="#000000" fill-rule="nonzero" fill-opacity="1" /><path clip-path="url(#clip790)" d="M118.242 1003.29 L125.88 1003.29 L125.88 976.923 L117.57 978.59 L117.57 974.331 L125.834 972.664 L130.51 972.664 L130.51 1003.29 L138.149 1003.29 L138.149 1007.22 L118.242 1007.22 L118.242 1003.29 Z" fill="#000000" fill-rule="nonzero" fill-opacity="1" /><path clip-path="url(#clip790)" d="M121.83 570.053 L138.149 570.053 L138.149 573.988 L116.205 573.988 L116.205 570.053 Q118.867 567.298 123.45 562.669 Q128.056 558.016 129.237 556.673 Q131.482 554.15 132.362 552.414 Q133.265 550.655 133.265 548.965 Q133.265 546.21 131.32 544.474 Q129.399 542.738 126.297 542.738 Q124.098 542.738 121.644 543.502 Q119.214 544.266 116.436 545.817 L116.436 541.095 Q119.26 539.96 121.714 539.382 Q124.168 538.803 126.205 538.803 Q131.575 538.803 134.769 541.488 Q137.964 544.173 137.964 548.664 Q137.964 550.794 137.154 552.715 Q136.367 554.613 134.26 557.206 Q133.681 557.877 130.58 561.095 Q127.478 564.289 121.83 570.053 Z" fill="#000000" fill-rule="nonzero" fill-opacity="1" /><path clip-path="url(#clip790)" d="M131.019 122.118 Q134.376 122.836 136.251 125.104 Q138.149 127.373 138.149 130.706 Q138.149 135.822 134.63 138.623 Q131.112 141.423 124.63 141.423 Q122.455 141.423 120.14 140.984 Q117.848 140.567 115.394 139.71 L115.394 135.197 Q117.339 136.331 119.654 136.91 Q121.968 137.488 124.492 137.488 Q128.89 137.488 131.181 135.752 Q133.496 134.016 133.496 130.706 Q133.496 127.65 131.343 125.937 Q129.214 124.201 125.394 124.201 L121.367 124.201 L121.367 120.359 L125.58 120.359 Q129.029 120.359 130.857 118.993 Q132.686 117.604 132.686 115.012 Q132.686 112.35 130.788 110.937 Q128.913 109.502 125.394 109.502 Q123.473 109.502 121.274 109.919 Q119.075 110.336 116.436 111.215 L116.436 107.049 Q119.098 106.308 121.413 105.937 Q123.751 105.567 125.811 105.567 Q131.135 105.567 134.237 107.998 Q137.339 110.405 137.339 114.525 Q137.339 117.396 135.695 119.386 Q134.052 121.354 131.019 122.118 Z" fill="#000000" fill-rule="nonzero" fill-opacity="1" /><path clip-path="url(#clip790)" d="M14.479 803.277 L19.3487 803.277 L19.3487 808.878 Q19.3487 812.029 20.6219 813.271 Q21.895 814.48 25.2052 814.48 L28.3562 814.48 L28.3562 804.836 L32.9077 804.836 L32.9077 814.48 L64.0042 814.48 L64.0042 820.369 L32.9077 820.369 L32.9077 825.97 L28.3562 825.97 L28.3562 820.369 L25.8736 820.369 Q19.9216 820.369 17.2162 817.599 Q14.479 814.83 14.479 808.815 L14.479 803.277 Z" fill="#000000" fill-rule="nonzero" fill-opacity="1" /><path clip-path="url(#clip790)" d="M14.5426 784.307 Q21.8632 788.572 29.0246 790.641 Q36.186 792.71 43.5384 792.71 Q50.8908 792.71 58.1159 790.641 Q65.3091 788.54 72.5979 784.307 L72.5979 789.399 Q65.1182 794.174 57.8931 796.561 Q50.668 798.916 43.5384 798.916 Q36.4406 798.916 29.2474 796.561 Q22.0542 794.206 14.5426 789.399 L14.5426 784.307 Z" fill="#000000" fill-rule="nonzero" fill-opacity="1" /><path clip-path="url(#clip790)" d="M28.3562 743.312 L45.7028 756.202 L64.0042 742.643 L64.0042 749.55 L49.9996 759.926 L64.0042 770.302 L64.0042 777.209 L45.3526 763.364 L28.3562 776.031 L28.3562 769.125 L41.0558 759.672 L28.3562 750.218 L28.3562 743.312 Z" fill="#000000" fill-rule="nonzero" fill-opacity="1" /><path clip-path="url(#clip790)" d="M14.5426 735.291 L14.5426 730.198 Q22.0542 725.424 29.2474 723.069 Q36.4406 720.682 43.5384 720.682 Q50.668 720.682 57.8931 723.069 Q65.1182 725.424 72.5979 730.198 L72.5979 735.291 Q65.3091 731.058 58.1159 728.989 Q50.8908 726.888 43.5384 726.888 Q36.186 726.888 29.0246 728.989 Q21.8632 731.058 14.5426 735.291 Z" fill="#000000" fill-rule="nonzero" fill-opacity="1" /><path clip-path="url(#clip790)" d="M729.705 67.4314 Q735.052 67.4719 738.253 70.51 Q741.655 73.7103 741.655 78.5713 Q741.655 83.2299 738.658 86.4706 Q735.417 89.9949 728.814 89.9949 Q728.814 86.9567 728.814 83.878 Q731.609 84.0806 733.311 82.2982 Q734.607 80.8804 734.607 79.3815 Q734.607 77.2345 733.311 75.4521 Q732.055 73.7508 729.705 73.7508 Q704.468 73.7508 704.468 56.0483 Q704.468 43.8956 717.958 40.3308 Q706.615 38.8725 706.615 28.3401 Q706.615 20.3598 715.527 17.0381 L707.101 17.0381 L707.101 9.54393 L739.063 9.54393 L739.063 17.0381 Q713.583 17.0381 713.583 28.8262 Q713.583 36.5635 734.971 36.928 L734.971 43.8146 Q711.881 42.9234 711.962 56.0483 Q712.003 67.0263 729.705 67.4314 Z" fill="#000000" fill-rule="nonzero" fill-opacity="1" /><path clip-path="url(#clip790)" d="M751.337 47.1768 L756.036 47.1768 L756.036 72.576 L751.337 72.576 L751.337 47.1768 M751.337 37.2926 L756.036 37.2926 L756.036 42.5588 L751.337 42.5588 L751.337 37.2926 Z" fill="#000000" fill-rule="nonzero" fill-opacity="1" /><path clip-path="url(#clip790)" d="M848.316 39.4396 L848.316 46.6907 Q844.062 49.8504 840.416 51.2682 Q836.811 52.6456 832.882 52.6456 Q828.426 52.6456 822.511 50.2555 Q822.106 50.0935 821.823 49.972 Q821.58 49.8909 820.972 49.6479 Q814.693 47.1768 810.885 47.1768 Q807.321 47.1768 803.837 48.7162 Q800.353 50.2555 796.383 53.6583 L796.383 46.4072 Q800.637 43.2475 804.242 41.8701 Q807.888 40.4523 811.817 40.4523 Q816.273 40.4523 822.228 42.8424 Q822.674 43.0449 822.876 43.1259 Q823.119 43.2069 823.727 43.45 Q830.006 45.9211 833.814 45.9211 Q837.297 45.9211 840.7 44.4222 Q844.143 42.8829 848.316 39.4396 Z" fill="#000000" fill-rule="nonzero" fill-opacity="1" /><path clip-path="url(#clip790)" d="M891.62 12.096 L899.803 12.096 L899.803 65.6895 L929.253 65.6895 L929.253 72.576 L891.62 72.576 L891.62 12.096 Z" fill="#000000" fill-rule="nonzero" fill-opacity="1" /><path clip-path="url(#clip790)" d="M958.136 49.7694 Q949.102 49.7694 945.618 51.8354 Q942.135 53.9013 942.135 58.8839 Q942.135 62.8538 944.727 65.2034 Q947.36 67.5124 951.857 67.5124 Q958.055 67.5124 961.782 63.1374 Q965.549 58.7219 965.549 51.4303 L965.549 49.7694 L958.136 49.7694 M973.003 46.6907 L973.003 72.576 L965.549 72.576 L965.549 65.6895 Q962.997 69.8214 959.189 71.8063 Q955.381 73.7508 949.872 73.7508 Q942.904 73.7508 938.772 69.8619 Q934.681 65.9325 934.681 59.3701 Q934.681 51.7138 939.785 47.825 Q944.93 43.9361 955.098 43.9361 L965.549 43.9361 L965.549 43.2069 Q965.549 38.0623 962.146 35.2672 Q958.784 32.4315 952.667 32.4315 Q948.778 32.4315 945.092 33.3632 Q941.406 34.295 938.003 36.1584 L938.003 29.2718 Q942.094 27.692 945.943 26.9223 Q949.791 26.1121 953.437 26.1121 Q963.28 26.1121 968.141 31.2163 Q973.003 36.3204 973.003 46.6907 Z" fill="#000000" fill-rule="nonzero" fill-opacity="1" /><path clip-path="url(#clip790)" d="M995.566 65.7705 L995.566 89.8329 L988.072 89.8329 L988.072 27.2059 L995.566 27.2059 L995.566 34.0924 Q997.916 30.0415 1001.48 28.0971 Q1005.09 26.1121 1010.07 26.1121 Q1018.33 26.1121 1023.48 32.6746 Q1028.66 39.2371 1028.66 49.9314 Q1028.66 60.6258 1023.48 67.1883 Q1018.33 73.7508 1010.07 73.7508 Q1005.09 73.7508 1001.48 71.8063 Q997.916 69.8214 995.566 65.7705 M1020.92 49.9314 Q1020.92 41.7081 1017.52 37.0496 Q1014.16 32.3505 1008.25 32.3505 Q1002.33 32.3505 998.928 37.0496 Q995.566 41.7081 995.566 49.9314 Q995.566 58.1548 998.928 62.8538 Q1002.33 67.5124 1008.25 67.5124 Q1014.16 67.5124 1017.52 62.8538 Q1020.92 58.1548 1020.92 49.9314 Z" fill="#000000" fill-rule="nonzero" fill-opacity="1" /><path clip-path="url(#clip790)" d="M1041.02 9.54393 L1048.47 9.54393 L1048.47 72.576 L1041.02 72.576 L1041.02 9.54393 Z" fill="#000000" fill-rule="nonzero" fill-opacity="1" /><path clip-path="url(#clip790)" d="M1084.69 49.7694 Q1075.65 49.7694 1072.17 51.8354 Q1068.68 53.9013 1068.68 58.8839 Q1068.68 62.8538 1071.28 65.2034 Q1073.91 67.5124 1078.41 67.5124 Q1084.6 67.5124 1088.33 63.1374 Q1092.1 58.7219 1092.1 51.4303 L1092.1 49.7694 L1084.69 49.7694 M1099.55 46.6907 L1099.55 72.576 L1092.1 72.576 L1092.1 65.6895 Q1089.55 69.8214 1085.74 71.8063 Q1081.93 73.7508 1076.42 73.7508 Q1069.45 73.7508 1065.32 69.8619 Q1061.23 65.9325 1061.23 59.3701 Q1061.23 51.7138 1066.34 47.825 Q1071.48 43.9361 1081.65 43.9361 L1092.1 43.9361 L1092.1 43.2069 Q1092.1 38.0623 1088.7 35.2672 Q1085.33 32.4315 1079.22 32.4315 Q1075.33 32.4315 1071.64 33.3632 Q1067.96 34.295 1064.55 36.1584 L1064.55 29.2718 Q1068.64 27.692 1072.49 26.9223 Q1076.34 26.1121 1079.99 26.1121 Q1089.83 26.1121 1094.69 31.2163 Q1099.55 36.3204 1099.55 46.6907 Z" fill="#000000" fill-rule="nonzero" fill-opacity="1" /><path clip-path="url(#clip790)" d="M1147.56 28.9478 L1147.56 35.9153 Q1144.4 34.1734 1141.2 33.3227 Q1138.04 32.4315 1134.8 32.4315 Q1127.54 32.4315 1123.53 37.0496 Q1119.52 41.6271 1119.52 49.9314 Q1119.52 58.2358 1123.53 62.8538 Q1127.54 67.4314 1134.8 67.4314 Q1138.04 67.4314 1141.2 66.5807 Q1144.4 65.6895 1147.56 63.9476 L1147.56 70.8341 Q1144.44 72.2924 1141.07 73.0216 Q1137.75 73.7508 1133.99 73.7508 Q1123.74 73.7508 1117.7 67.3098 Q1111.67 60.8689 1111.67 49.9314 Q1111.67 38.832 1117.74 32.472 Q1123.86 26.1121 1134.47 26.1121 Q1137.91 26.1121 1141.2 26.8413 Q1144.48 27.5299 1147.56 28.9478 Z" fill="#000000" fill-rule="nonzero" fill-opacity="1" /><path clip-path="url(#clip790)" d="M1199.33 48.0275 L1199.33 51.6733 L1165.06 51.6733 Q1165.54 59.3701 1169.67 63.421 Q1173.85 67.4314 1181.26 67.4314 Q1185.55 67.4314 1189.56 66.3781 Q1193.61 65.3249 1197.58 63.2184 L1197.58 70.267 Q1193.57 71.9684 1189.36 72.8596 Q1185.15 73.7508 1180.81 73.7508 Q1169.96 73.7508 1163.6 67.4314 Q1157.28 61.1119 1157.28 50.3365 Q1157.28 39.1965 1163.27 32.6746 Q1169.31 26.1121 1179.52 26.1121 Q1188.67 26.1121 1193.98 32.0264 Q1199.33 37.9003 1199.33 48.0275 M1191.87 45.84 Q1191.79 39.7232 1188.43 36.0774 Q1185.11 32.4315 1179.6 32.4315 Q1173.36 32.4315 1169.59 35.9558 Q1165.87 39.4801 1165.3 45.8805 L1191.87 45.84 Z" fill="#000000" fill-rule="nonzero" fill-opacity="1" /><path clip-path="url(#clip790)" d="M1229.47 9.62495 Q1224.04 18.942 1221.4 28.0566 Q1218.77 37.1711 1218.77 46.5287 Q1218.77 55.8863 1221.4 65.0818 Q1224.08 74.2369 1229.47 83.5134 L1222.98 83.5134 Q1216.91 73.9938 1213.87 64.7983 Q1210.87 55.6027 1210.87 46.5287 Q1210.87 37.4952 1213.87 28.3401 Q1216.87 19.1851 1222.98 9.62495 L1229.47 9.62495 Z" fill="#000000" fill-rule="nonzero" fill-opacity="1" /><path clip-path="url(#clip790)" d="M1243.16 89.8329 L1243.16 27.2059 L1250.61 27.2059 L1250.61 55.4002 Q1250.61 61.274 1253.41 64.2716 Q1256.2 67.2693 1261.67 67.2693 Q1267.67 67.2693 1270.66 63.8666 Q1273.7 60.4638 1273.7 53.6583 L1273.7 27.2059 L1281.15 27.2059 L1281.15 62.1247 Q1281.15 64.5552 1281.84 65.73 Q1282.57 66.8642 1284.07 66.8642 Q1284.44 66.8642 1285.08 66.6617 Q1285.73 66.4186 1286.87 65.9325 L1286.87 71.9279 Q1285.21 72.8596 1283.71 73.3052 Q1282.25 73.7508 1280.83 73.7508 Q1278.04 73.7508 1276.37 72.1709 Q1274.71 70.5911 1274.11 67.3503 Q1272.08 70.5505 1269.12 72.1709 Q1266.21 73.7508 1262.24 73.7508 Q1258.11 73.7508 1255.19 72.1709 Q1252.31 70.5911 1250.61 67.4314 L1250.61 89.8329 L1243.16 89.8329 Z" fill="#000000" fill-rule="nonzero" fill-opacity="1" /><path clip-path="url(#clip790)" d="M1297.68 34.9026 L1349.62 34.9026 L1349.62 41.7081 L1297.68 41.7081 L1297.68 34.9026 M1297.68 51.4303 L1349.62 51.4303 L1349.62 58.3168 L1297.68 58.3168 L1297.68 51.4303 Z" fill="#000000" fill-rule="nonzero" fill-opacity="1" /><path clip-path="url(#clip790)" d="M1384.78 17.4837 Q1378.46 17.4837 1375.26 23.7221 Q1372.1 29.92 1372.1 42.3968 Q1372.1 54.833 1375.26 61.0714 Q1378.46 67.2693 1384.78 67.2693 Q1391.14 67.2693 1394.3 61.0714 Q1397.5 54.833 1397.5 42.3968 Q1397.5 29.92 1394.3 23.7221 Q1391.14 17.4837 1384.78 17.4837 M1384.78 11.0023 Q1394.94 11.0023 1400.29 19.0636 Q1405.68 27.0843 1405.68 42.3968 Q1405.68 57.6687 1400.29 65.73 Q1394.94 73.7508 1384.78 73.7508 Q1374.61 73.7508 1369.22 65.73 Q1363.87 57.6687 1363.87 42.3968 Q1363.87 27.0843 1369.22 19.0636 Q1374.61 11.0023 1384.78 11.0023 Z" fill="#000000" fill-rule="nonzero" fill-opacity="1" /><path clip-path="url(#clip790)" d="M1420.06 62.2867 L1428.61 62.2867 L1428.61 72.576 L1420.06 72.576 L1420.06 62.2867 Z" fill="#000000" fill-rule="nonzero" fill-opacity="1" /><path clip-path="url(#clip790)" d="M1463.93 17.4837 Q1457.61 17.4837 1454.41 23.7221 Q1451.25 29.92 1451.25 42.3968 Q1451.25 54.833 1454.41 61.0714 Q1457.61 67.2693 1463.93 67.2693 Q1470.29 67.2693 1473.45 61.0714 Q1476.65 54.833 1476.65 42.3968 Q1476.65 29.92 1473.45 23.7221 Q1470.29 17.4837 1463.93 17.4837 M1463.93 11.0023 Q1474.1 11.0023 1479.45 19.0636 Q1484.83 27.0843 1484.83 42.3968 Q1484.83 57.6687 1479.45 65.73 Q1474.1 73.7508 1463.93 73.7508 Q1453.76 73.7508 1448.38 65.73 Q1443.03 57.6687 1443.03 42.3968 Q1443.03 27.0843 1448.38 19.0636 Q1453.76 11.0023 1463.93 11.0023 Z" fill="#000000" fill-rule="nonzero" fill-opacity="1" /><path clip-path="url(#clip790)" d="M1500.07 62.2867 L1508.61 62.2867 L1508.61 69.2543 L1501.97 82.2172 L1496.74 82.2172 L1500.07 69.2543 L1500.07 62.2867 Z" fill="#000000" fill-rule="nonzero" fill-opacity="1" /><path clip-path="url(#clip790)" d="M1583.47 49.9314 Q1583.47 41.7081 1580.07 37.0496 Q1576.71 32.3505 1570.79 32.3505 Q1564.88 32.3505 1561.48 37.0496 Q1558.12 41.7081 1558.12 49.9314 Q1558.12 58.1548 1561.48 62.8538 Q1564.88 67.5124 1570.79 67.5124 Q1576.71 67.5124 1580.07 62.8538 Q1583.47 58.1548 1583.47 49.9314 M1558.12 34.0924 Q1560.46 30.0415 1564.03 28.0971 Q1567.63 26.1121 1572.62 26.1121 Q1580.88 26.1121 1586.03 32.6746 Q1591.21 39.2371 1591.21 49.9314 Q1591.21 60.6258 1586.03 67.1883 Q1580.88 73.7508 1572.62 73.7508 Q1567.63 73.7508 1564.03 71.8063 Q1560.46 69.8214 1558.12 65.7705 L1558.12 72.576 L1550.62 72.576 L1550.62 9.54393 L1558.12 9.54393 L1558.12 34.0924 Z" fill="#000000" fill-rule="nonzero" fill-opacity="1" /><path clip-path="url(#clip790)" d="M1604.54 34.9026 L1656.47 34.9026 L1656.47 41.7081 L1604.54 41.7081 L1604.54 34.9026 M1604.54 51.4303 L1656.47 51.4303 L1656.47 58.3168 L1604.54 58.3168 L1604.54 51.4303 Z" fill="#000000" fill-rule="nonzero" fill-opacity="1" /><path clip-path="url(#clip790)" d="M1681.18 65.6895 L1709.74 65.6895 L1709.74 72.576 L1671.34 72.576 L1671.34 65.6895 Q1676 60.8689 1684.02 52.7671 Q1692.08 44.6248 1694.14 42.2752 Q1698.07 37.8598 1699.61 34.8216 Q1701.19 31.7429 1701.19 28.7857 Q1701.19 23.9651 1697.79 20.927 Q1694.43 17.8888 1689 17.8888 Q1685.15 17.8888 1680.86 19.2256 Q1676.6 20.5624 1671.74 23.2765 L1671.74 15.0127 Q1676.69 13.0277 1680.98 12.015 Q1685.27 11.0023 1688.84 11.0023 Q1698.24 11.0023 1703.83 15.7013 Q1709.42 20.4004 1709.42 28.2591 Q1709.42 31.9859 1708 35.3482 Q1706.62 38.6699 1702.94 43.2069 Q1701.92 44.3817 1696.49 50.0125 Q1691.07 55.6027 1681.18 65.6895 Z" fill="#000000" fill-rule="nonzero" fill-opacity="1" /><path clip-path="url(#clip790)" d="M1726.92 62.2867 L1735.46 62.2867 L1735.46 72.576 L1726.92 72.576 L1726.92 62.2867 Z" fill="#000000" fill-rule="nonzero" fill-opacity="1" /><path clip-path="url(#clip790)" d="M1770.79 17.4837 Q1764.47 17.4837 1761.27 23.7221 Q1758.11 29.92 1758.11 42.3968 Q1758.11 54.833 1761.27 61.0714 Q1764.47 67.2693 1770.79 67.2693 Q1777.15 67.2693 1780.31 61.0714 Q1783.51 54.833 1783.51 42.3968 Q1783.51 29.92 1780.31 23.7221 Q1777.15 17.4837 1770.79 17.4837 M1770.79 11.0023 Q1780.96 11.0023 1786.3 19.0636 Q1791.69 27.0843 1791.69 42.3968 Q1791.69 57.6687 1786.3 65.73 Q1780.96 73.7508 1770.79 73.7508 Q1760.62 73.7508 1755.23 65.73 Q1749.88 57.6687 1749.88 42.3968 Q1749.88 27.0843 1755.23 19.0636 Q1760.62 11.0023 1770.79 11.0023 Z" fill="#000000" fill-rule="nonzero" fill-opacity="1" /><path clip-path="url(#clip790)" d="M1803.84 9.62495 L1810.32 9.62495 Q1816.4 19.1851 1819.4 28.3401 Q1822.44 37.4952 1822.44 46.5287 Q1822.44 55.6027 1819.4 64.7983 Q1816.4 73.9938 1810.32 83.5134 L1803.84 83.5134 Q1809.23 74.2369 1811.86 65.0818 Q1814.54 55.8863 1814.54 46.5287 Q1814.54 37.1711 1811.86 28.0566 Q1809.23 18.942 1803.84 9.62495 Z" fill="#000000" fill-rule="nonzero" fill-opacity="1" /><polyline clip-path="url(#clip792)" style="stroke:#009af9; stroke-linecap:round; stroke-linejoin:round; stroke-width:8; stroke-opacity:1; fill:none" points="235.808,-1000.5 239.926,336.448 244.045,610.769 248.164,745.181 252.283,828.496 256.402,886.5 260.521,929.81 264.639,963.702 268.758,991.133 272.877,1013.91 276.996,1033.19 281.115,1049.78 285.233,1064.25 289.352,1076.99 293.471,1088.33 297.59,1098.49 301.709,1107.66 305.827,1115.99 309.946,1123.59 314.065,1130.57 318.184,1136.99 322.303,1142.93 326.422,1148.44 330.54,1153.57 334.659,1158.35 338.778,1162.83 342.897,1167.02 347.016,1170.97 351.134,1174.68 355.253,1178.19 359.372,1181.5 363.491,1184.64 367.61,1187.61 371.729,1190.43 375.847,1193.12 379.966,1195.67 384.085,1198.1 388.204,1200.42 392.323,1202.64 396.441,1204.76 400.56,1206.78 404.679,1208.72 408.798,1210.58 412.917,1212.36 417.036,1214.07 421.154,1215.71 425.273,1217.29 429.392,1218.8 433.511,1220.26 437.63,1221.66 441.748,1223.01 445.867,1224.31 449.986,1225.56 454.105,1226.76 458.224,1227.93 462.343,1229.05 466.461,1230.13 470.58,1231.17 474.699,1232.18 478.818,1233.15 482.937,1234.09 487.055,1235 491.174,1235.88 495.293,1236.73 499.412,1237.54 503.531,1238.34 507.65,1239.1 511.768,1239.84 515.887,1240.55 520.006,1241.25 524.125,1241.91 528.244,1242.56 532.362,1243.18 536.481,1243.79 540.6,1244.37 544.719,1244.93 548.838,1245.48 552.957,1246.01 557.075,1246.51 561.194,1247 565.313,1247.48 569.432,1247.94 573.551,1248.38 577.669,1248.81 581.788,1249.22 585.907,1249.61 590.026,1250 594.145,1250.36 598.263,1250.72 602.382,1251.06 606.501,1251.39 610.62,1251.71 614.739,1252.01 618.858,1252.3 622.976,1252.58 627.095,1252.85 631.214,1253.1 635.333,1253.35 639.452,1253.58 643.57,1253.81 647.689,1254.02 651.808,1254.22 655.927,1254.42 660.046,1254.6 664.165,1254.77 668.283,1254.94 672.402,1255.09 676.521,1255.24 680.64,1255.37 684.759,1255.5 688.877,1255.62 692.996,1255.73 697.115,1255.83 701.234,1255.92 705.353,1256.01 709.472,1256.08 713.59,1256.15 717.709,1256.21 721.828,1256.27 725.947,1256.31 730.066,1256.35 734.184,1256.38 738.303,1256.4 742.422,1256.42 746.541,1256.43 750.66,1256.43 754.779,1256.42 758.897,1256.41 763.016,1256.39 767.135,1256.36 771.254,1256.33 775.373,1256.29 779.491,1256.24 783.61,1256.18 787.729,1256.12 791.848,1256.06 795.967,1255.98 800.086,1255.9 804.204,1255.82 808.323,1255.72 812.442,1255.62 816.561,1255.52 820.68,1255.41 824.798,1255.29 828.917,1255.17 833.036,1255.04 837.155,1254.9 841.274,1254.76 845.393,1254.61 849.511,1254.45 853.63,1254.29 857.749,1254.13 861.868,1253.96 865.987,1253.78 870.105,1253.59 874.224,1253.4 878.343,1253.21 882.462,1253.01 886.581,1252.8 890.699,1252.58 894.818,1252.36 898.937,1252.14 903.056,1251.91 907.175,1251.67 911.294,1251.43 915.412,1251.18 919.531,1250.93 923.65,1250.67 927.769,1250.4 931.888,1250.13 936.006,1249.85 940.125,1249.57 944.244,1249.28 948.363,1248.98 952.482,1248.68 956.601,1248.37 960.719,1248.06 964.838,1247.74 968.957,1247.42 973.076,1247.09 977.195,1246.75 981.313,1246.41 985.432,1246.06 989.551,1245.7 993.67,1245.34 997.789,1244.98 1001.91,1244.6 1006.03,1244.23 1010.15,1243.84 1014.26,1243.45 1018.38,1243.05 1022.5,1242.65 1026.62,1242.24 1030.74,1241.82 1034.86,1241.4 1038.98,1240.97 1043.1,1240.54 1047.21,1240.1 1051.33,1239.65 1055.45,1239.2 1059.57,1238.73 1063.69,1238.27 1067.81,1237.79 1071.93,1237.31 1076.05,1236.83 1080.17,1236.33 1084.28,1235.83 1088.4,1235.32 1092.52,1234.81 1096.64,1234.29 1100.76,1233.76 1104.88,1233.22 1109,1232.68 1113.12,1232.13 1117.23,1231.57 1121.35,1231.01 1125.47,1230.44 1129.59,1229.86 1133.71,1229.27 1137.83,1228.68 1141.95,1228.08 1146.07,1227.47 1150.18,1226.85 1154.3,1226.23 1158.42,1225.6 1162.54,1224.96 1166.66,1224.31 1170.78,1223.65 1174.9,1222.99 1179.02,1222.32 1183.14,1221.63 1187.25,1220.95 1191.37,1220.25 1195.49,1219.54 1199.61,1218.83 1203.73,1218.1 1207.85,1217.37 1211.97,1216.63 1216.09,1215.88 1220.2,1215.12 1224.32,1214.35 1228.44,1213.57 1232.56,1212.78 1236.68,1211.99 1240.8,1211.18 1244.92,1210.36 1249.04,1209.53 1253.16,1208.7 1257.27,1207.85 1261.39,1206.99 1265.51,1206.99 1269.63,1207.85 1273.75,1208.7 1277.87,1209.53 1281.99,1210.36 1286.11,1211.18 1290.22,1211.99 1294.34,1212.78 1298.46,1213.57 1302.58,1214.35 1306.7,1215.12 1310.82,1215.88 1314.94,1216.63 1319.06,1217.37 1323.18,1218.1 1327.29,1218.83 1331.41,1219.54 1335.53,1220.25 1339.65,1220.95 1343.77,1221.63 1347.89,1222.32 1352.01,1222.99 1356.13,1223.65 1360.24,1224.31 1364.36,1224.96 1368.48,1225.6 1372.6,1226.23 1376.72,1226.85 1380.84,1227.47 1384.96,1228.08 1389.08,1228.68 1393.2,1229.27 1397.31,1229.86 1401.43,1230.44 1405.55,1231.01 1409.67,1231.57 1413.79,1232.13 1417.91,1232.68 1422.03,1233.22 1426.15,1233.76 1430.26,1234.29 1434.38,1234.81 1438.5,1235.32 1442.62,1235.83 1446.74,1236.33 1450.86,1236.83 1454.98,1237.31 1459.1,1237.79 1463.22,1238.27 1467.33,1238.73 1471.45,1239.2 1475.57,1239.65 1479.69,1240.1 1483.81,1240.54 1487.93,1240.97 1492.05,1241.4 1496.17,1241.82 1500.28,1242.24 1504.4,1242.65 1508.52,1243.05 1512.64,1243.45 1516.76,1243.84 1520.88,1244.23 1525,1244.6 1529.12,1244.98 1533.23,1245.34 1537.35,1245.7 1541.47,1246.06 1545.59,1246.41 1549.71,1246.75 1553.83,1247.09 1557.95,1247.42 1562.07,1247.74 1566.19,1248.06 1570.3,1248.37 1574.42,1248.68 1578.54,1248.98 1582.66,1249.28 1586.78,1249.57 1590.9,1249.85 1595.02,1250.13 1599.14,1250.4 1603.25,1250.67 1607.37,1250.93 1611.49,1251.18 1615.61,1251.43 1619.73,1251.67 1623.85,1251.91 1627.97,1252.14 1632.09,1252.36 1636.21,1252.58 1640.32,1252.8 1644.44,1253.01 1648.56,1253.21 1652.68,1253.4 1656.8,1253.59 1660.92,1253.78 1665.04,1253.96 1669.16,1254.13 1673.27,1254.29 1677.39,1254.45 1681.51,1254.61 1685.63,1254.76 1689.75,1254.9 1693.87,1255.04 1697.99,1255.17 1702.11,1255.29 1706.23,1255.41 1710.34,1255.52 1714.46,1255.62 1718.58,1255.72 1722.7,1255.82 1726.82,1255.9 1730.94,1255.98 1735.06,1256.06 1739.18,1256.12 1743.29,1256.18 1747.41,1256.24 1751.53,1256.29 1755.65,1256.33 1759.77,1256.36 1763.89,1256.39 1768.01,1256.41 1772.13,1256.42 1776.25,1256.43 1780.36,1256.43 1784.48,1256.42 1788.6,1256.4 1792.72,1256.38 1796.84,1256.35 1800.96,1256.31 1805.08,1256.27 1809.2,1256.21 1813.31,1256.15 1817.43,1256.08 1821.55,1256.01 1825.67,1255.92 1829.79,1255.83 1833.91,1255.73 1838.03,1255.62 1842.15,1255.5 1846.26,1255.37 1850.38,1255.24 1854.5,1255.09 1858.62,1254.94 1862.74,1254.77 1866.86,1254.6 1870.98,1254.42 1875.1,1254.22 1879.22,1254.02 1883.33,1253.81 1887.45,1253.58 1891.57,1253.35 1895.69,1253.1 1899.81,1252.85 1903.93,1252.58 1908.05,1252.3 1912.17,1252.01 1916.28,1251.71 1920.4,1251.39 1924.52,1251.06 1928.64,1250.72 1932.76,1250.36 1936.88,1250 1941,1249.61 1945.12,1249.22 1949.24,1248.81 1953.35,1248.38 1957.47,1247.94 1961.59,1247.48 1965.71,1247 1969.83,1246.51 1973.95,1246.01 1978.07,1245.48 1982.19,1244.93 1986.3,1244.37 1990.42,1243.79 1994.54,1243.18 1998.66,1242.56 2002.78,1241.91 2006.9,1241.25 2011.02,1240.55 2015.14,1239.84 2019.26,1239.1 2023.37,1238.34 2027.49,1237.54 2031.61,1236.73 2035.73,1235.88 2039.85,1235 2043.97,1234.09 2048.09,1233.15 2052.21,1232.18 2056.32,1231.17 2060.44,1230.13 2064.56,1229.05 2068.68,1227.93 2072.8,1226.76 2076.92,1225.56 2081.04,1224.31 2085.16,1223.01 2089.28,1221.66 2093.39,1220.26 2097.51,1218.8 2101.63,1217.29 2105.75,1215.71 2109.87,1214.07 2113.99,1212.36 2118.11,1210.58 2122.23,1208.72 2126.34,1206.78 2130.46,1204.76 2134.58,1202.64 2138.7,1200.42 2142.82,1198.1 2146.94,1195.67 2151.06,1193.12 2155.18,1190.43 2159.3,1187.61 2163.41,1184.64 2167.53,1181.5 2171.65,1178.19 2175.77,1174.68 2179.89,1170.97 2184.01,1167.02 2188.13,1162.83 2192.25,1158.35 2196.36,1153.57 2200.48,1148.44 2204.6,1142.93 2208.72,1136.99 2212.84,1130.57 2216.96,1123.59 2221.08,1115.99 2225.2,1107.66 2229.31,1098.49 2233.43,1088.33 2237.55,1076.99 2241.67,1064.25 2245.79,1049.78 2249.91,1033.19 2254.03,1013.91 2258.15,991.133 2262.27,963.702 2266.38,929.81 2270.5,886.5 2274.62,828.496 2278.74,745.181 2282.86,610.769 2286.98,336.448 2291.1,-1000.5 "/>
</svg>
