<?xml version="1.0" encoding="utf-8"?>
<svg xmlns="http://www.w3.org/2000/svg" xmlns:xlink="http://www.w3.org/1999/xlink" width="600" height="400" viewBox="0 0 2400 1600">
<defs>
  <clipPath id="clip820">
    <rect x="0" y="0" width="2400" height="1600"/>
  </clipPath>
</defs>
<path clip-path="url(#clip820)" d="M0 1600 L2400 1600 L2400 0 L0 0  Z" fill="#ffffff" fill-rule="evenodd" fill-opacity="1"/>
<defs>
  <clipPath id="clip821">
    <rect x="480" y="0" width="1681" height="1600"/>
  </clipPath>
</defs>
<path clip-path="url(#clip820)" d="M174.149 1423.18 L2352.76 1423.18 L2352.76 123.472 L174.149 123.472  Z" fill="#ffffff" fill-rule="evenodd" fill-opacity="1"/>
<defs>
  <clipPath id="clip822">
    <rect x="174" y="123" width="2180" height="1301"/>
  </clipPath>
</defs>
<polyline clip-path="url(#clip822)" style="stroke:#000000; stroke-linecap:round; stroke-linejoin:round; stroke-width:2; stroke-opacity:0.1; fill:none" points="234.779,1423.18 234.779,123.472 "/>
<polyline clip-path="url(#clip822)" style="stroke:#000000; stroke-linecap:round; stroke-linejoin:round; stroke-width:2; stroke-opacity:0.1; fill:none" points="749.116,1423.18 749.116,123.472 "/>
<polyline clip-path="url(#clip822)" style="stroke:#000000; stroke-linecap:round; stroke-linejoin:round; stroke-width:2; stroke-opacity:0.1; fill:none" points="1263.45,1423.18 1263.45,123.472 "/>
<polyline clip-path="url(#clip822)" style="stroke:#000000; stroke-linecap:round; stroke-linejoin:round; stroke-width:2; stroke-opacity:0.1; fill:none" points="1777.79,1423.18 1777.79,123.472 "/>
<polyline clip-path="url(#clip822)" style="stroke:#000000; stroke-linecap:round; stroke-linejoin:round; stroke-width:2; stroke-opacity:0.1; fill:none" points="2292.13,1423.18 2292.13,123.472 "/>
<polyline clip-path="url(#clip820)" style="stroke:#000000; stroke-linecap:round; stroke-linejoin:round; stroke-width:4; stroke-opacity:1; fill:none" points="174.149,1423.18 2352.76,1423.18 "/>
<polyline clip-path="url(#clip820)" style="stroke:#000000; stroke-linecap:round; stroke-linejoin:round; stroke-width:4; stroke-opacity:1; fill:none" points="234.779,1423.18 234.779,1404.28 "/>
<polyline clip-path="url(#clip820)" style="stroke:#000000; stroke-linecap:round; stroke-linejoin:round; stroke-width:4; stroke-opacity:1; fill:none" points="749.116,1423.18 749.116,1404.28 "/>
<polyline clip-path="url(#clip820)" style="stroke:#000000; stroke-linecap:round; stroke-linejoin:round; stroke-width:4; stroke-opacity:1; fill:none" points="1263.45,1423.18 1263.45,1404.28 "/>
<polyline clip-path="url(#clip820)" style="stroke:#000000; stroke-linecap:round; stroke-linejoin:round; stroke-width:4; stroke-opacity:1; fill:none" points="1777.79,1423.18 1777.79,1404.28 "/>
<polyline clip-path="url(#clip820)" style="stroke:#000000; stroke-linecap:round; stroke-linejoin:round; stroke-width:4; stroke-opacity:1; fill:none" points="2292.13,1423.18 2292.13,1404.28 "/>
<path clip-path="url(#clip820)" d="M181.307 1468.75 L210.983 1468.75 L210.983 1472.69 L181.307 1472.69 L181.307 1468.75 Z" fill="#000000" fill-rule="nonzero" fill-opacity="1" /><path clip-path="url(#clip820)" d="M221.885 1481.64 L229.524 1481.64 L229.524 1455.28 L221.214 1456.95 L221.214 1452.69 L229.478 1451.02 L234.154 1451.02 L234.154 1481.64 L241.793 1481.64 L241.793 1485.58 L221.885 1485.58 L221.885 1481.64 Z" fill="#000000" fill-rule="nonzero" fill-opacity="1" /><path clip-path="url(#clip820)" d="M251.237 1479.7 L256.121 1479.7 L256.121 1485.58 L251.237 1485.58 L251.237 1479.7 Z" fill="#000000" fill-rule="nonzero" fill-opacity="1" /><path clip-path="url(#clip820)" d="M276.306 1454.1 Q272.695 1454.1 270.867 1457.66 Q269.061 1461.2 269.061 1468.33 Q269.061 1475.44 270.867 1479.01 Q272.695 1482.55 276.306 1482.55 Q279.941 1482.55 281.746 1479.01 Q283.575 1475.44 283.575 1468.33 Q283.575 1461.2 281.746 1457.66 Q279.941 1454.1 276.306 1454.1 M276.306 1450.39 Q282.117 1450.39 285.172 1455 Q288.251 1459.58 288.251 1468.33 Q288.251 1477.06 285.172 1481.67 Q282.117 1486.25 276.306 1486.25 Q270.496 1486.25 267.418 1481.67 Q264.362 1477.06 264.362 1468.33 Q264.362 1459.58 267.418 1455 Q270.496 1450.39 276.306 1450.39 Z" fill="#000000" fill-rule="nonzero" fill-opacity="1" /><path clip-path="url(#clip820)" d="M696.141 1468.75 L725.817 1468.75 L725.817 1472.69 L696.141 1472.69 L696.141 1468.75 Z" fill="#000000" fill-rule="nonzero" fill-opacity="1" /><path clip-path="url(#clip820)" d="M745.91 1454.1 Q742.299 1454.1 740.47 1457.66 Q738.664 1461.2 738.664 1468.33 Q738.664 1475.44 740.47 1479.01 Q742.299 1482.55 745.91 1482.55 Q749.544 1482.55 751.349 1479.01 Q753.178 1475.44 753.178 1468.33 Q753.178 1461.2 751.349 1457.66 Q749.544 1454.1 745.91 1454.1 M745.91 1450.39 Q751.72 1450.39 754.775 1455 Q757.854 1459.58 757.854 1468.33 Q757.854 1477.06 754.775 1481.67 Q751.72 1486.25 745.91 1486.25 Q740.1 1486.25 737.021 1481.67 Q733.965 1477.06 733.965 1468.33 Q733.965 1459.58 737.021 1455 Q740.1 1450.39 745.91 1450.39 Z" fill="#000000" fill-rule="nonzero" fill-opacity="1" /><path clip-path="url(#clip820)" d="M766.072 1479.7 L770.956 1479.7 L770.956 1485.58 L766.072 1485.58 L766.072 1479.7 Z" fill="#000000" fill-rule="nonzero" fill-opacity="1" /><path clip-path="url(#clip820)" d="M781.187 1451.02 L799.544 1451.02 L799.544 1454.96 L785.47 1454.96 L785.47 1463.43 Q786.488 1463.08 787.507 1462.92 Q788.525 1462.73 789.544 1462.73 Q795.331 1462.73 798.71 1465.9 Q802.09 1469.08 802.09 1474.49 Q802.09 1480.07 798.618 1483.17 Q795.146 1486.25 788.826 1486.25 Q786.65 1486.25 784.382 1485.88 Q782.136 1485.51 779.729 1484.77 L779.729 1480.07 Q781.812 1481.2 784.034 1481.76 Q786.257 1482.32 788.734 1482.32 Q792.738 1482.32 795.076 1480.21 Q797.414 1478.1 797.414 1474.49 Q797.414 1470.88 795.076 1468.77 Q792.738 1466.67 788.734 1466.67 Q786.859 1466.67 784.984 1467.08 Q783.132 1467.5 781.187 1468.38 L781.187 1451.02 Z" fill="#000000" fill-rule="nonzero" fill-opacity="1" /><path clip-path="url(#clip820)" d="M1240.84 1454.1 Q1237.23 1454.1 1235.4 1457.66 Q1233.59 1461.2 1233.59 1468.33 Q1233.59 1475.44 1235.4 1479.01 Q1237.23 1482.55 1240.84 1482.55 Q1244.47 1482.55 1246.28 1479.01 Q1248.11 1475.44 1248.11 1468.33 Q1248.11 1461.2 1246.28 1457.66 Q1244.47 1454.1 1240.84 1454.1 M1240.84 1450.39 Q1246.65 1450.39 1249.7 1455 Q1252.78 1459.58 1252.78 1468.33 Q1252.78 1477.06 1249.7 1481.67 Q1246.65 1486.25 1240.84 1486.25 Q1235.03 1486.25 1231.95 1481.67 Q1228.89 1477.06 1228.89 1468.33 Q1228.89 1459.58 1231.95 1455 Q1235.03 1450.39 1240.84 1450.39 Z" fill="#000000" fill-rule="nonzero" fill-opacity="1" /><path clip-path="url(#clip820)" d="M1261 1479.7 L1265.88 1479.7 L1265.88 1485.58 L1261 1485.58 L1261 1479.7 Z" fill="#000000" fill-rule="nonzero" fill-opacity="1" /><path clip-path="url(#clip820)" d="M1286.07 1454.1 Q1282.46 1454.1 1280.63 1457.66 Q1278.82 1461.2 1278.82 1468.33 Q1278.82 1475.44 1280.63 1479.01 Q1282.46 1482.55 1286.07 1482.55 Q1289.7 1482.55 1291.51 1479.01 Q1293.34 1475.44 1293.34 1468.33 Q1293.34 1461.2 1291.51 1457.66 Q1289.7 1454.1 1286.07 1454.1 M1286.07 1450.39 Q1291.88 1450.39 1294.93 1455 Q1298.01 1459.58 1298.01 1468.33 Q1298.01 1477.06 1294.93 1481.67 Q1291.88 1486.25 1286.07 1486.25 Q1280.26 1486.25 1277.18 1481.67 Q1274.12 1477.06 1274.12 1468.33 Q1274.12 1459.58 1277.18 1455 Q1280.26 1450.39 1286.07 1450.39 Z" fill="#000000" fill-rule="nonzero" fill-opacity="1" /><path clip-path="url(#clip820)" d="M1755.67 1454.1 Q1752.06 1454.1 1750.23 1457.66 Q1748.43 1461.2 1748.43 1468.33 Q1748.43 1475.44 1750.23 1479.01 Q1752.06 1482.55 1755.67 1482.55 Q1759.31 1482.55 1761.11 1479.01 Q1762.94 1475.44 1762.94 1468.33 Q1762.94 1461.2 1761.11 1457.66 Q1759.31 1454.1 1755.67 1454.1 M1755.67 1450.39 Q1761.48 1450.39 1764.54 1455 Q1767.62 1459.58 1767.62 1468.33 Q1767.62 1477.06 1764.54 1481.67 Q1761.48 1486.25 1755.67 1486.25 Q1749.86 1486.25 1746.78 1481.67 Q1743.73 1477.06 1743.73 1468.33 Q1743.73 1459.58 1746.78 1455 Q1749.86 1450.39 1755.67 1450.39 Z" fill="#000000" fill-rule="nonzero" fill-opacity="1" /><path clip-path="url(#clip820)" d="M1775.83 1479.7 L1780.72 1479.7 L1780.72 1485.58 L1775.83 1485.58 L1775.83 1479.7 Z" fill="#000000" fill-rule="nonzero" fill-opacity="1" /><path clip-path="url(#clip820)" d="M1790.95 1451.02 L1809.31 1451.02 L1809.31 1454.96 L1795.23 1454.96 L1795.23 1463.43 Q1796.25 1463.08 1797.27 1462.92 Q1798.29 1462.73 1799.31 1462.73 Q1805.09 1462.73 1808.47 1465.9 Q1811.85 1469.08 1811.85 1474.49 Q1811.85 1480.07 1808.38 1483.17 Q1804.91 1486.25 1798.59 1486.25 Q1796.41 1486.25 1794.14 1485.88 Q1791.9 1485.51 1789.49 1484.77 L1789.49 1480.07 Q1791.57 1481.2 1793.8 1481.76 Q1796.02 1482.32 1798.5 1482.32 Q1802.5 1482.32 1804.84 1480.21 Q1807.18 1478.1 1807.18 1474.49 Q1807.18 1470.88 1804.84 1468.77 Q1802.5 1466.67 1798.5 1466.67 Q1796.62 1466.67 1794.75 1467.08 Q1792.89 1467.5 1790.95 1468.38 L1790.95 1451.02 Z" fill="#000000" fill-rule="nonzero" fill-opacity="1" /><path clip-path="url(#clip820)" d="M2259.28 1481.64 L2266.92 1481.64 L2266.92 1455.28 L2258.61 1456.95 L2258.61 1452.69 L2266.87 1451.02 L2271.55 1451.02 L2271.55 1481.64 L2279.19 1481.64 L2279.19 1485.58 L2259.28 1485.58 L2259.28 1481.64 Z" fill="#000000" fill-rule="nonzero" fill-opacity="1" /><path clip-path="url(#clip820)" d="M2288.63 1479.7 L2293.51 1479.7 L2293.51 1485.58 L2288.63 1485.58 L2288.63 1479.7 Z" fill="#000000" fill-rule="nonzero" fill-opacity="1" /><path clip-path="url(#clip820)" d="M2313.7 1454.1 Q2310.09 1454.1 2308.26 1457.66 Q2306.45 1461.2 2306.45 1468.33 Q2306.45 1475.44 2308.26 1479.01 Q2310.09 1482.55 2313.7 1482.55 Q2317.33 1482.55 2319.14 1479.01 Q2320.97 1475.44 2320.97 1468.33 Q2320.97 1461.2 2319.14 1457.66 Q2317.33 1454.1 2313.7 1454.1 M2313.7 1450.39 Q2319.51 1450.39 2322.57 1455 Q2325.64 1459.58 2325.64 1468.33 Q2325.64 1477.06 2322.57 1481.67 Q2319.51 1486.25 2313.7 1486.25 Q2307.89 1486.25 2304.81 1481.67 Q2301.76 1477.06 2301.76 1468.33 Q2301.76 1459.58 2304.81 1455 Q2307.89 1450.39 2313.7 1450.39 Z" fill="#000000" fill-rule="nonzero" fill-opacity="1" /><path clip-path="url(#clip820)" d="M1280.07 1532.4 L1267.18 1549.74 L1280.74 1568.04 L1273.83 1568.04 L1263.45 1554.04 L1253.08 1568.04 L1246.17 1568.04 L1260.01 1549.39 L1247.35 1532.4 L1254.25 1532.4 L1263.71 1545.1 L1273.16 1532.4 L1280.07 1532.4 Z" fill="#000000" fill-rule="nonzero" fill-opacity="1" /><polyline clip-path="url(#clip822)" style="stroke:#000000; stroke-linecap:round; stroke-linejoin:round; stroke-width:2; stroke-opacity:0.1; fill:none" points="174.149,1423.18 2352.76,1423.18 "/>
<polyline clip-path="url(#clip822)" style="stroke:#000000; stroke-linecap:round; stroke-linejoin:round; stroke-width:2; stroke-opacity:0.1; fill:none" points="174.149,989.944 2352.76,989.944 "/>
<polyline clip-path="url(#clip822)" style="stroke:#000000; stroke-linecap:round; stroke-linejoin:round; stroke-width:2; stroke-opacity:0.1; fill:none" points="174.149,556.708 2352.76,556.708 "/>
<polyline clip-path="url(#clip822)" style="stroke:#000000; stroke-linecap:round; stroke-linejoin:round; stroke-width:2; stroke-opacity:0.1; fill:none" points="174.149,123.472 2352.76,123.472 "/>
<polyline clip-path="url(#clip820)" style="stroke:#000000; stroke-linecap:round; stroke-linejoin:round; stroke-width:4; stroke-opacity:1; fill:none" points="174.149,1423.18 174.149,123.472 "/>
<polyline clip-path="url(#clip820)" style="stroke:#000000; stroke-linecap:round; stroke-linejoin:round; stroke-width:4; stroke-opacity:1; fill:none" points="174.149,1423.18 193.047,1423.18 "/>
<polyline clip-path="url(#clip820)" style="stroke:#000000; stroke-linecap:round; stroke-linejoin:round; stroke-width:4; stroke-opacity:1; fill:none" points="174.149,989.944 193.047,989.944 "/>
<polyline clip-path="url(#clip820)" style="stroke:#000000; stroke-linecap:round; stroke-linejoin:round; stroke-width:4; stroke-opacity:1; fill:none" points="174.149,556.708 193.047,556.708 "/>
<polyline clip-path="url(#clip820)" style="stroke:#000000; stroke-linecap:round; stroke-linejoin:round; stroke-width:4; stroke-opacity:1; fill:none" points="174.149,123.472 193.047,123.472 "/>
<path clip-path="url(#clip820)" d="M126.205 1408.98 Q122.593 1408.98 120.765 1412.54 Q118.959 1416.08 118.959 1423.21 Q118.959 1430.32 120.765 1433.89 Q122.593 1437.43 126.205 1437.43 Q129.839 1437.43 131.644 1433.89 Q133.473 1430.32 133.473 1423.21 Q133.473 1416.08 131.644 1412.54 Q129.839 1408.98 126.205 1408.98 M126.205 1405.27 Q132.015 1405.27 135.07 1409.88 Q138.149 1414.46 138.149 1423.21 Q138.149 1431.94 135.07 1436.55 Q132.015 1441.13 126.205 1441.13 Q120.394 1441.13 117.316 1436.55 Q114.26 1431.94 114.26 1423.21 Q114.26 1414.46 117.316 1409.88 Q120.394 1405.27 126.205 1405.27 Z" fill="#000000" fill-rule="nonzero" fill-opacity="1" /><path clip-path="url(#clip820)" d="M118.242 1003.29 L125.88 1003.29 L125.88 976.923 L117.57 978.59 L117.57 974.331 L125.834 972.664 L130.51 972.664 L130.51 1003.29 L138.149 1003.29 L138.149 1007.22 L118.242 1007.22 L118.242 1003.29 Z" fill="#000000" fill-rule="nonzero" fill-opacity="1" /><path clip-path="url(#clip820)" d="M121.83 570.053 L138.149 570.053 L138.149 573.988 L116.205 573.988 L116.205 570.053 Q118.867 567.298 123.45 562.669 Q128.056 558.016 129.237 556.673 Q131.482 554.15 132.362 552.414 Q133.265 550.655 133.265 548.965 Q133.265 546.21 131.32 544.474 Q129.399 542.738 126.297 542.738 Q124.098 542.738 121.644 543.502 Q119.214 544.266 116.436 545.817 L116.436 541.095 Q119.26 539.96 121.714 539.382 Q124.168 538.803 126.205 538.803 Q131.575 538.803 134.769 541.488 Q137.964 544.173 137.964 548.664 Q137.964 550.794 137.154 552.715 Q136.367 554.613 134.26 557.206 Q133.681 557.877 130.58 561.095 Q127.478 564.289 121.83 570.053 Z" fill="#000000" fill-rule="nonzero" fill-opacity="1" /><path clip-path="url(#clip820)" d="M131.019 122.118 Q134.376 122.836 136.251 125.104 Q138.149 127.373 138.149 130.706 Q138.149 135.822 134.63 138.623 Q131.112 141.423 124.63 141.423 Q122.455 141.423 120.14 140.984 Q117.848 140.567 115.394 139.71 L115.394 135.197 Q117.339 136.331 119.654 136.91 Q121.968 137.488 124.492 137.488 Q128.89 137.488 131.181 135.752 Q133.496 134.016 133.496 130.706 Q133.496 127.65 131.343 125.937 Q129.214 124.201 125.394 124.201 L121.367 124.201 L121.367 120.359 L125.58 120.359 Q129.029 120.359 130.857 118.993 Q132.686 117.604 132.686 115.012 Q132.686 112.35 130.788 110.937 Q128.913 109.502 125.394 109.502 Q123.473 109.502 121.274 109.919 Q119.075 110.336 116.436 111.215 L116.436 107.049 Q119.098 106.308 121.413 105.937 Q123.751 105.567 125.811 105.567 Q131.135 105.567 134.237 107.998 Q137.339 110.405 137.339 114.525 Q137.339 117.396 135.695 119.386 Q134.052 121.354 131.019 122.118 Z" fill="#000000" fill-rule="nonzero" fill-opacity="1" /><path clip-path="url(#clip820)" d="M14.479 803.277 L19.3487 803.277 L19.3487 808.878 Q19.3487 812.029 20.6219 813.271 Q21.895 814.48 25.2052 814.48 L28.3562 814.48 L28.3562 804.836 L32.9077 804.836 L32.9077 814.48 L64.0042 814.48 L64.0042 820.369 L32.9077 820.369 L32.9077 825.97 L28.3562 825.97 L28.3562 820.369 L25.8736 820.369 Q19.9216 820.369 17.2162 817.599 Q14.479 814.83 14.479 808.815 L14.479 803.277 Z" fill="#000000" fill-rule="nonzero" fill-opacity="1" /><path clip-path="url(#clip820)" d="M14.5426 784.307 Q21.8632 788.572 29.0246 790.641 Q36.186 792.71 43.5384 792.71 Q50.8908 792.71 58.1159 790.641 Q65.3091 788.54 72.5979 784.307 L72.5979 789.399 Q65.1182 794.174 57.8931 796.561 Q50.668 798.916 43.5384 798.916 Q36.4406 798.916 29.2474 796.561 Q22.0542 794.206 14.5426 789.399 L14.5426 784.307 Z" fill="#000000" fill-rule="nonzero" fill-opacity="1" /><path clip-path="url(#clip820)" d="M28.3562 743.312 L45.7028 756.202 L64.0042 742.643 L64.0042 749.55 L49.9996 759.926 L64.0042 770.302 L64.0042 777.209 L45.3526 763.364 L28.3562 776.031 L28.3562 769.125 L41.0558 759.672 L28.3562 750.218 L28.3562 743.312 Z" fill="#000000" fill-rule="nonzero" fill-opacity="1" /><path clip-path="url(#clip820)" d="M14.5426 735.291 L14.5426 730.198 Q22.0542 725.424 29.2474 723.069 Q36.4406 720.682 43.5384 720.682 Q50.668 720.682 57.8931 723.069 Q65.1182 725.424 72.5979 730.198 L72.5979 735.291 Q65.3091 731.058 58.1159 728.989 Q50.8908 726.888 43.5384 726.888 Q36.186 726.888 29.0246 728.989 Q21.8632 731.058 14.5426 735.291 Z" fill="#000000" fill-rule="nonzero" fill-opacity="1" /><path clip-path="url(#clip820)" d="M703.314 67.4314 Q708.661 67.4719 711.861 70.51 Q715.264 73.7103 715.264 78.5713 Q715.264 83.2299 712.266 86.4706 Q709.025 89.9949 702.422 89.9949 Q702.422 86.9567 702.422 83.878 Q705.218 84.0806 706.919 82.2982 Q708.215 80.8804 708.215 79.3815 Q708.215 77.2345 706.919 75.4521 Q705.663 73.7508 703.314 73.7508 Q678.076 73.7508 678.076 56.0483 Q678.076 43.8956 691.566 40.3308 Q680.223 38.8725 680.223 28.3401 Q680.223 20.3598 689.135 17.0381 L680.71 17.0381 L680.71 9.54393 L712.671 9.54393 L712.671 17.0381 Q687.191 17.0381 687.191 28.8262 Q687.191 36.5635 708.58 36.928 L708.58 43.8146 Q685.49 42.9234 685.571 56.0483 Q685.611 67.0263 703.314 67.4314 Z" fill="#000000" fill-rule="nonzero" fill-opacity="1" /><path clip-path="url(#clip820)" d="M724.945 47.1768 L729.645 47.1768 L729.645 72.576 L724.945 72.576 L724.945 47.1768 M724.945 37.2926 L729.645 37.2926 L729.645 42.5588 L724.945 42.5588 L724.945 37.2926 Z" fill="#000000" fill-rule="nonzero" fill-opacity="1" /><path clip-path="url(#clip820)" d="M821.924 39.4396 L821.924 46.6907 Q817.671 49.8504 814.025 51.2682 Q810.42 52.6456 806.49 52.6456 Q802.034 52.6456 796.12 50.2555 Q795.715 50.0935 795.431 49.972 Q795.188 49.8909 794.581 49.6479 Q788.302 47.1768 784.494 47.1768 Q780.929 47.1768 777.445 48.7162 Q773.961 50.2555 769.992 53.6583 L769.992 46.4072 Q774.245 43.2475 777.85 41.8701 Q781.496 40.4523 785.425 40.4523 Q789.881 40.4523 795.836 42.8424 Q796.282 43.0449 796.484 43.1259 Q796.727 43.2069 797.335 43.45 Q803.614 45.9211 807.422 45.9211 Q810.906 45.9211 814.308 44.4222 Q817.752 42.8829 821.924 39.4396 Z" fill="#000000" fill-rule="nonzero" fill-opacity="1" /><path clip-path="url(#clip820)" d="M865.228 12.096 L873.411 12.096 L873.411 65.6895 L902.861 65.6895 L902.861 72.576 L865.228 72.576 L865.228 12.096 Z" fill="#000000" fill-rule="nonzero" fill-opacity="1" /><path clip-path="url(#clip820)" d="M931.744 49.7694 Q922.711 49.7694 919.227 51.8354 Q915.743 53.9013 915.743 58.8839 Q915.743 62.8538 918.336 65.2034 Q920.969 67.5124 925.465 67.5124 Q931.663 67.5124 935.39 63.1374 Q939.157 58.7219 939.157 51.4303 L939.157 49.7694 L931.744 49.7694 M946.611 46.6907 L946.611 72.576 L939.157 72.576 L939.157 65.6895 Q936.605 69.8214 932.797 71.8063 Q928.99 73.7508 923.48 73.7508 Q916.513 73.7508 912.381 69.8619 Q908.289 65.9325 908.289 59.3701 Q908.289 51.7138 913.394 47.825 Q918.538 43.9361 928.706 43.9361 L939.157 43.9361 L939.157 43.2069 Q939.157 38.0623 935.755 35.2672 Q932.392 32.4315 926.275 32.4315 Q922.387 32.4315 918.7 33.3632 Q915.014 34.295 911.611 36.1584 L911.611 29.2718 Q915.703 27.692 919.551 26.9223 Q923.399 26.1121 927.045 26.1121 Q936.889 26.1121 941.75 31.2163 Q946.611 36.3204 946.611 46.6907 Z" fill="#000000" fill-rule="nonzero" fill-opacity="1" /><path clip-path="url(#clip820)" d="M969.174 65.7705 L969.174 89.8329 L961.68 89.8329 L961.68 27.2059 L969.174 27.2059 L969.174 34.0924 Q971.524 30.0415 975.089 28.0971 Q978.694 26.1121 983.677 26.1121 Q991.941 26.1121 997.085 32.6746 Q1002.27 39.2371 1002.27 49.9314 Q1002.27 60.6258 997.085 67.1883 Q991.941 73.7508 983.677 73.7508 Q978.694 73.7508 975.089 71.8063 Q971.524 69.8214 969.174 65.7705 M994.533 49.9314 Q994.533 41.7081 991.13 37.0496 Q987.768 32.3505 981.854 32.3505 Q975.939 32.3505 972.537 37.0496 Q969.174 41.7081 969.174 49.9314 Q969.174 58.1548 972.537 62.8538 Q975.939 67.5124 981.854 67.5124 Q987.768 67.5124 991.13 62.8538 Q994.533 58.1548 994.533 49.9314 Z" fill="#000000" fill-rule="nonzero" fill-opacity="1" /><path clip-path="url(#clip820)" d="M1014.63 9.54393 L1022.08 9.54393 L1022.08 72.576 L1014.63 72.576 L1014.63 9.54393 Z" fill="#000000" fill-rule="nonzero" fill-opacity="1" /><path clip-path="url(#clip820)" d="M1058.29 49.7694 Q1049.26 49.7694 1045.78 51.8354 Q1042.29 53.9013 1042.29 58.8839 Q1042.29 62.8538 1044.89 65.2034 Q1047.52 67.5124 1052.02 67.5124 Q1058.21 67.5124 1061.94 63.1374 Q1065.71 58.7219 1065.71 51.4303 L1065.71 49.7694 L1058.29 49.7694 M1073.16 46.6907 L1073.16 72.576 L1065.71 72.576 L1065.71 65.6895 Q1063.16 69.8214 1059.35 71.8063 Q1055.54 73.7508 1050.03 73.7508 Q1043.06 73.7508 1038.93 69.8619 Q1034.84 65.9325 1034.84 59.3701 Q1034.84 51.7138 1039.94 47.825 Q1045.09 43.9361 1055.26 43.9361 L1065.71 43.9361 L1065.71 43.2069 Q1065.71 38.0623 1062.3 35.2672 Q1058.94 32.4315 1052.83 32.4315 Q1048.94 32.4315 1045.25 33.3632 Q1041.56 34.295 1038.16 36.1584 L1038.16 29.2718 Q1042.25 27.692 1046.1 26.9223 Q1049.95 26.1121 1053.6 26.1121 Q1063.44 26.1121 1068.3 31.2163 Q1073.16 36.3204 1073.16 46.6907 Z" fill="#000000" fill-rule="nonzero" fill-opacity="1" /><path clip-path="url(#clip820)" d="M1121.16 28.9478 L1121.16 35.9153 Q1118 34.1734 1114.8 33.3227 Q1111.64 32.4315 1108.4 32.4315 Q1101.15 32.4315 1097.14 37.0496 Q1093.13 41.6271 1093.13 49.9314 Q1093.13 58.2358 1097.14 62.8538 Q1101.15 67.4314 1108.4 67.4314 Q1111.64 67.4314 1114.8 66.5807 Q1118 65.6895 1121.16 63.9476 L1121.16 70.8341 Q1118.05 72.2924 1114.68 73.0216 Q1111.36 73.7508 1107.59 73.7508 Q1097.35 73.7508 1091.31 67.3098 Q1085.27 60.8689 1085.27 49.9314 Q1085.27 38.832 1091.35 32.472 Q1097.47 26.1121 1108.08 26.1121 Q1111.52 26.1121 1114.8 26.8413 Q1118.09 27.5299 1121.16 28.9478 Z" fill="#000000" fill-rule="nonzero" fill-opacity="1" /><path clip-path="url(#clip820)" d="M1172.93 48.0275 L1172.93 51.6733 L1138.66 51.6733 Q1139.15 59.3701 1143.28 63.421 Q1147.45 67.4314 1154.87 67.4314 Q1159.16 67.4314 1163.17 66.3781 Q1167.22 65.3249 1171.19 63.2184 L1171.19 70.267 Q1167.18 71.9684 1162.97 72.8596 Q1158.76 73.7508 1154.42 73.7508 Q1143.57 73.7508 1137.21 67.4314 Q1130.89 61.1119 1130.89 50.3365 Q1130.89 39.1965 1136.88 32.6746 Q1142.92 26.1121 1153.13 26.1121 Q1162.28 26.1121 1167.59 32.0264 Q1172.93 37.9003 1172.93 48.0275 M1165.48 45.84 Q1165.4 39.7232 1162.04 36.0774 Q1158.72 32.4315 1153.21 32.4315 Q1146.97 32.4315 1143.2 35.9558 Q1139.47 39.4801 1138.91 45.8805 L1165.48 45.84 Z" fill="#000000" fill-rule="nonzero" fill-opacity="1" /><path clip-path="url(#clip820)" d="M1203.07 9.62495 Q1197.65 18.942 1195.01 28.0566 Q1192.38 37.1711 1192.38 46.5287 Q1192.38 55.8863 1195.01 65.0818 Q1197.69 74.2369 1203.07 83.5134 L1196.59 83.5134 Q1190.52 73.9938 1187.48 64.7983 Q1184.48 55.6027 1184.48 46.5287 Q1184.48 37.4952 1187.48 28.3401 Q1190.48 19.1851 1196.59 9.62495 L1203.07 9.62495 Z" fill="#000000" fill-rule="nonzero" fill-opacity="1" /><path clip-path="url(#clip820)" d="M1216.77 89.8329 L1216.77 27.2059 L1224.22 27.2059 L1224.22 55.4002 Q1224.22 61.274 1227.01 64.2716 Q1229.81 67.2693 1235.28 67.2693 Q1241.27 67.2693 1244.27 63.8666 Q1247.31 60.4638 1247.31 53.6583 L1247.31 27.2059 L1254.76 27.2059 L1254.76 62.1247 Q1254.76 64.5552 1255.45 65.73 Q1256.18 66.8642 1257.68 66.8642 Q1258.04 66.8642 1258.69 66.6617 Q1259.34 66.4186 1260.47 65.9325 L1260.47 71.9279 Q1258.81 72.8596 1257.32 73.3052 Q1255.86 73.7508 1254.44 73.7508 Q1251.64 73.7508 1249.98 72.1709 Q1248.32 70.5911 1247.71 67.3503 Q1245.69 70.5505 1242.73 72.1709 Q1239.82 73.7508 1235.85 73.7508 Q1231.71 73.7508 1228.8 72.1709 Q1225.92 70.5911 1224.22 67.4314 L1224.22 89.8329 L1216.77 89.8329 Z" fill="#000000" fill-rule="nonzero" fill-opacity="1" /><path clip-path="url(#clip820)" d="M1271.29 34.9026 L1323.22 34.9026 L1323.22 41.7081 L1271.29 41.7081 L1271.29 34.9026 M1271.29 51.4303 L1323.22 51.4303 L1323.22 58.3168 L1271.29 58.3168 L1271.29 51.4303 Z" fill="#000000" fill-rule="nonzero" fill-opacity="1" /><path clip-path="url(#clip820)" d="M1358.39 17.4837 Q1352.07 17.4837 1348.87 23.7221 Q1345.71 29.92 1345.71 42.3968 Q1345.71 54.833 1348.87 61.0714 Q1352.07 67.2693 1358.39 67.2693 Q1364.75 67.2693 1367.9 61.0714 Q1371.11 54.833 1371.11 42.3968 Q1371.11 29.92 1367.9 23.7221 Q1364.75 17.4837 1358.39 17.4837 M1358.39 11.0023 Q1368.55 11.0023 1373.9 19.0636 Q1379.29 27.0843 1379.29 42.3968 Q1379.29 57.6687 1373.9 65.73 Q1368.55 73.7508 1358.39 73.7508 Q1348.22 73.7508 1342.83 65.73 Q1337.48 57.6687 1337.48 42.3968 Q1337.48 27.0843 1342.83 19.0636 Q1348.22 11.0023 1358.39 11.0023 Z" fill="#000000" fill-rule="nonzero" fill-opacity="1" /><path clip-path="url(#clip820)" d="M1393.67 62.2867 L1402.22 62.2867 L1402.22 72.576 L1393.67 72.576 L1393.67 62.2867 Z" fill="#000000" fill-rule="nonzero" fill-opacity="1" /><path clip-path="url(#clip820)" d="M1437.54 17.4837 Q1431.22 17.4837 1428.02 23.7221 Q1424.86 29.92 1424.86 42.3968 Q1424.86 54.833 1428.02 61.0714 Q1431.22 67.2693 1437.54 67.2693 Q1443.9 67.2693 1447.06 61.0714 Q1450.26 54.833 1450.26 42.3968 Q1450.26 29.92 1447.06 23.7221 Q1443.9 17.4837 1437.54 17.4837 M1437.54 11.0023 Q1447.71 11.0023 1453.05 19.0636 Q1458.44 27.0843 1458.44 42.3968 Q1458.44 57.6687 1453.05 65.73 Q1447.71 73.7508 1437.54 73.7508 Q1427.37 73.7508 1421.98 65.73 Q1416.64 57.6687 1416.64 42.3968 Q1416.64 27.0843 1421.98 19.0636 Q1427.37 11.0023 1437.54 11.0023 Z" fill="#000000" fill-rule="nonzero" fill-opacity="1" /><path clip-path="url(#clip820)" d="M1473.67 62.2867 L1482.22 62.2867 L1482.22 69.2543 L1475.58 82.2172 L1470.35 82.2172 L1473.67 69.2543 L1473.67 62.2867 Z" fill="#000000" fill-rule="nonzero" fill-opacity="1" /><path clip-path="url(#clip820)" d="M1557.08 49.9314 Q1557.08 41.7081 1553.68 37.0496 Q1550.32 32.3505 1544.4 32.3505 Q1538.49 32.3505 1535.09 37.0496 Q1531.72 41.7081 1531.72 49.9314 Q1531.72 58.1548 1535.09 62.8538 Q1538.49 67.5124 1544.4 67.5124 Q1550.32 67.5124 1553.68 62.8538 Q1557.08 58.1548 1557.08 49.9314 M1531.72 34.0924 Q1534.07 30.0415 1537.64 28.0971 Q1541.24 26.1121 1546.23 26.1121 Q1554.49 26.1121 1559.63 32.6746 Q1564.82 39.2371 1564.82 49.9314 Q1564.82 60.6258 1559.63 67.1883 Q1554.49 73.7508 1546.23 73.7508 Q1541.24 73.7508 1537.64 71.8063 Q1534.07 69.8214 1531.72 65.7705 L1531.72 72.576 L1524.23 72.576 L1524.23 9.54393 L1531.72 9.54393 L1531.72 34.0924 Z" fill="#000000" fill-rule="nonzero" fill-opacity="1" /><path clip-path="url(#clip820)" d="M1578.15 34.9026 L1630.08 34.9026 L1630.08 41.7081 L1578.15 41.7081 L1578.15 34.9026 M1578.15 51.4303 L1630.08 51.4303 L1630.08 58.3168 L1578.15 58.3168 L1578.15 51.4303 Z" fill="#000000" fill-rule="nonzero" fill-opacity="1" /><path clip-path="url(#clip820)" d="M1649.16 65.6895 L1662.53 65.6895 L1662.53 19.5497 L1647.98 22.4663 L1647.98 15.0127 L1662.45 12.096 L1670.63 12.096 L1670.63 65.6895 L1684 65.6895 L1684 72.576 L1649.16 72.576 L1649.16 65.6895 Z" fill="#000000" fill-rule="nonzero" fill-opacity="1" /><path clip-path="url(#clip820)" d="M1718.02 17.4837 Q1711.71 17.4837 1708.51 23.7221 Q1705.35 29.92 1705.35 42.3968 Q1705.35 54.833 1708.51 61.0714 Q1711.71 67.2693 1718.02 67.2693 Q1724.38 67.2693 1727.54 61.0714 Q1730.74 54.833 1730.74 42.3968 Q1730.74 29.92 1727.54 23.7221 Q1724.38 17.4837 1718.02 17.4837 M1718.02 11.0023 Q1728.19 11.0023 1733.54 19.0636 Q1738.93 27.0843 1738.93 42.3968 Q1738.93 57.6687 1733.54 65.73 Q1728.19 73.7508 1718.02 73.7508 Q1707.86 73.7508 1702.47 65.73 Q1697.12 57.6687 1697.12 42.3968 Q1697.12 27.0843 1702.47 19.0636 Q1707.86 11.0023 1718.02 11.0023 Z" fill="#000000" fill-rule="nonzero" fill-opacity="1" /><path clip-path="url(#clip820)" d="M1753.31 62.2867 L1761.86 62.2867 L1761.86 72.576 L1753.31 72.576 L1753.31 62.2867 Z" fill="#000000" fill-rule="nonzero" fill-opacity="1" /><path clip-path="url(#clip820)" d="M1797.18 17.4837 Q1790.86 17.4837 1787.66 23.7221 Q1784.5 29.92 1784.5 42.3968 Q1784.5 54.833 1787.66 61.0714 Q1790.86 67.2693 1797.18 67.2693 Q1803.54 67.2693 1806.7 61.0714 Q1809.9 54.833 1809.9 42.3968 Q1809.9 29.92 1806.7 23.7221 Q1803.54 17.4837 1797.18 17.4837 M1797.18 11.0023 Q1807.35 11.0023 1812.69 19.0636 Q1818.08 27.0843 1818.08 42.3968 Q1818.08 57.6687 1812.69 65.73 Q1807.35 73.7508 1797.18 73.7508 Q1787.01 73.7508 1781.62 65.73 Q1776.28 57.6687 1776.28 42.3968 Q1776.28 27.0843 1781.62 19.0636 Q1787.01 11.0023 1797.18 11.0023 Z" fill="#000000" fill-rule="nonzero" fill-opacity="1" /><path clip-path="url(#clip820)" d="M1830.23 9.62495 L1836.72 9.62495 Q1842.79 19.1851 1845.79 28.3401 Q1848.83 37.4952 1848.83 46.5287 Q1848.83 55.6027 1845.79 64.7983 Q1842.79 73.9938 1836.72 83.5134 L1830.23 83.5134 Q1835.62 74.2369 1838.26 65.0818 Q1840.93 55.8863 1840.93 46.5287 Q1840.93 37.1711 1838.26 28.0566 Q1835.62 18.942 1830.23 9.62495 Z" fill="#000000" fill-rule="nonzero" fill-opacity="1" /><polyline clip-path="url(#clip822)" style="stroke:#009af9; stroke-linecap:round; stroke-linejoin:round; stroke-width:8; stroke-opacity:1; fill:none" points="235.808,-8711.97 239.926,-961.346 244.045,15.2476 248.164,409.737 252.283,625.367 256.402,762.077 260.521,856.83 264.639,926.542 268.758,980.076 272.877,1022.54 276.996,1057.07 281.115,1085.74 285.233,1109.93 289.352,1130.63 293.471,1148.55 297.59,1164.23 301.709,1178.06 305.827,1190.35 309.946,1201.36 314.065,1211.28 318.184,1220.25 322.303,1228.42 326.422,1235.89 330.54,1242.74 334.659,1249.05 338.778,1254.88 342.897,1260.28 347.016,1265.3 351.134,1269.98 355.253,1274.36 359.372,1278.46 363.491,1282.3 367.61,1285.92 371.729,1289.32 375.847,1292.54 379.966,1295.57 384.085,1298.45 388.204,1301.18 392.323,1303.77 396.441,1306.23 400.56,1308.58 404.679,1310.81 408.798,1312.94 412.917,1314.98 417.036,1316.93 421.154,1318.79 425.273,1320.58 429.392,1322.29 433.511,1323.93 437.63,1325.51 441.748,1327.02 445.867,1328.48 449.986,1329.89 454.105,1331.24 458.224,1332.54 462.343,1333.8 466.461,1335.01 470.58,1336.18 474.699,1337.31 478.818,1338.41 482.937,1339.47 487.055,1340.49 491.174,1341.48 495.293,1342.44 499.412,1343.37 503.531,1344.28 507.65,1345.15 511.768,1346 515.887,1346.82 520.006,1347.62 524.125,1348.4 528.244,1349.16 532.362,1349.89 536.481,1350.61 540.6,1351.3 544.719,1351.98 548.838,1352.64 552.957,1353.28 557.075,1353.9 561.194,1354.51 565.313,1355.1 569.432,1355.68 573.551,1356.24 577.669,1356.79 581.788,1357.33 585.907,1357.85 590.026,1358.36 594.145,1358.86 598.263,1359.34 602.382,1359.82 606.501,1360.28 610.62,1360.73 614.739,1361.18 618.858,1361.61 622.976,1362.03 627.095,1362.44 631.214,1362.85 635.333,1363.24 639.452,1363.63 643.57,1364.01 647.689,1364.38 651.808,1364.74 655.927,1365.09 660.046,1365.44 664.165,1365.78 668.283,1366.11 672.402,1366.44 676.521,1366.76 680.64,1367.07 684.759,1367.37 688.877,1367.67 692.996,1367.97 697.115,1368.25 701.234,1368.54 705.353,1368.81 709.472,1369.08 713.59,1369.35 717.709,1369.61 721.828,1369.86 725.947,1370.11 730.066,1370.35 734.184,1370.59 738.303,1370.83 742.422,1371.06 746.541,1371.29 750.66,1371.51 754.779,1371.72 758.897,1371.94 763.016,1372.15 767.135,1372.35 771.254,1372.55 775.373,1372.75 779.491,1372.94 783.61,1373.13 787.729,1373.32 791.848,1373.5 795.967,1373.68 800.086,1373.86 804.204,1374.03 808.323,1374.2 812.442,1374.36 816.561,1374.52 820.68,1374.68 824.798,1374.84 828.917,1374.99 833.036,1375.14 837.155,1375.29 841.274,1375.43 845.393,1375.57 849.511,1375.71 853.63,1375.85 857.749,1375.98 861.868,1376.11 865.987,1376.24 870.105,1376.36 874.224,1376.49 878.343,1376.61 882.462,1376.73 886.581,1376.84 890.699,1376.95 894.818,1377.06 898.937,1377.17 903.056,1377.28 907.175,1377.38 911.294,1377.48 915.412,1377.58 919.531,1377.68 923.65,1377.78 927.769,1377.87 931.888,1377.96 936.006,1378.05 940.125,1378.14 944.244,1378.22 948.363,1378.3 952.482,1378.38 956.601,1378.46 960.719,1378.54 964.838,1378.61 968.957,1378.69 973.076,1378.76 977.195,1378.83 981.313,1378.9 985.432,1378.96 989.551,1379.03 993.67,1379.09 997.789,1379.15 1001.91,1379.21 1006.03,1379.27 1010.15,1379.32 1014.26,1379.38 1018.38,1379.43 1022.5,1379.48 1026.62,1379.53 1030.74,1379.57 1034.86,1379.62 1038.98,1379.66 1043.1,1379.71 1047.21,1379.75 1051.33,1379.79 1055.45,1379.82 1059.57,1379.86 1063.69,1379.9 1067.81,1379.93 1071.93,1379.96 1076.05,1379.99 1080.17,1380.02 1084.28,1380.05 1088.4,1380.07 1092.52,1380.1 1096.64,1380.12 1100.76,1380.14 1104.88,1380.16 1109,1380.18 1113.12,1380.2 1117.23,1380.21 1121.35,1380.22 1125.47,1380.24 1129.59,1380.25 1133.71,1380.26 1137.83,1380.27 1141.95,1380.27 1146.07,1380.28 1150.18,1380.28 1154.3,1380.29 1158.42,1380.29 1162.54,1380.29 1166.66,1380.29 1170.78,1380.28 1174.9,1380.28 1179.02,1380.27 1183.14,1380.27 1187.25,1380.26 1191.37,1380.25 1195.49,1380.24 1199.61,1380.23 1203.73,1380.21 1207.85,1380.2 1211.97,1380.18 1216.09,1380.16 1220.2,1380.14 1224.32,1380.12 1228.44,1380.1 1232.56,1380.08 1236.68,1380.05 1240.8,1380.03 1244.92,1380 1249.04,1379.97 1253.16,1379.94 1257.27,1379.91 1261.39,1379.87 1265.51,1379.87 1269.63,1379.91 1273.75,1379.94 1277.87,1379.97 1281.99,1380 1286.11,1380.03 1290.22,1380.05 1294.34,1380.08 1298.46,1380.1 1302.58,1380.12 1306.7,1380.14 1310.82,1380.16 1314.94,1380.18 1319.06,1380.2 1323.18,1380.21 1327.29,1380.23 1331.41,1380.24 1335.53,1380.25 1339.65,1380.26 1343.77,1380.27 1347.89,1380.27 1352.01,1380.28 1356.13,1380.28 1360.24,1380.29 1364.36,1380.29 1368.48,1380.29 1372.6,1380.29 1376.72,1380.28 1380.84,1380.28 1384.96,1380.27 1389.08,1380.27 1393.2,1380.26 1397.31,1380.25 1401.43,1380.24 1405.55,1380.22 1409.67,1380.21 1413.79,1380.2 1417.91,1380.18 1422.03,1380.16 1426.15,1380.14 1430.26,1380.12 1434.38,1380.1 1438.5,1380.07 1442.62,1380.05 1446.74,1380.02 1450.86,1379.99 1454.98,1379.96 1459.1,1379.93 1463.22,1379.9 1467.33,1379.86 1471.45,1379.82 1475.57,1379.79 1479.69,1379.75 1483.81,1379.71 1487.93,1379.66 1492.05,1379.62 1496.17,1379.57 1500.28,1379.53 1504.4,1379.48 1508.52,1379.43 1512.64,1379.38 1516.76,1379.32 1520.88,1379.27 1525,1379.21 1529.12,1379.15 1533.23,1379.09 1537.35,1379.03 1541.47,1378.96 1545.59,1378.9 1549.71,1378.83 1553.83,1378.76 1557.95,1378.69 1562.07,1378.61 1566.19,1378.54 1570.3,1378.46 1574.42,1378.38 1578.54,1378.3 1582.66,1378.22 1586.78,1378.14 1590.9,1378.05 1595.02,1377.96 1599.14,1377.87 1603.25,1377.78 1607.37,1377.68 1611.49,1377.58 1615.61,1377.48 1619.73,1377.38 1623.85,1377.28 1627.97,1377.17 1632.09,1377.06 1636.21,1376.95 1640.32,1376.84 1644.44,1376.73 1648.56,1376.61 1652.68,1376.49 1656.8,1376.36 1660.92,1376.24 1665.04,1376.11 1669.16,1375.98 1673.27,1375.85 1677.39,1375.71 1681.51,1375.57 1685.63,1375.43 1689.75,1375.29 1693.87,1375.14 1697.99,1374.99 1702.11,1374.84 1706.23,1374.68 1710.34,1374.52 1714.46,1374.36 1718.58,1374.2 1722.7,1374.03 1726.82,1373.86 1730.94,1373.68 1735.06,1373.5 1739.18,1373.32 1743.29,1373.13 1747.41,1372.94 1751.53,1372.75 1755.65,1372.55 1759.77,1372.35 1763.89,1372.15 1768.01,1371.94 1772.13,1371.72 1776.25,1371.51 1780.36,1371.29 1784.48,1371.06 1788.6,1370.83 1792.72,1370.59 1796.84,1370.35 1800.96,1370.11 1805.08,1369.86 1809.2,1369.61 1813.31,1369.35 1817.43,1369.08 1821.55,1368.81 1825.67,1368.54 1829.79,1368.25 1833.91,1367.97 1838.03,1367.67 1842.15,1367.37 1846.26,1367.07 1850.38,1366.76 1854.5,1366.44 1858.62,1366.11 1862.74,1365.78 1866.86,1365.44 1870.98,1365.09 1875.1,1364.74 1879.22,1364.38 1883.33,1364.01 1887.45,1363.63 1891.57,1363.24 1895.69,1362.85 1899.81,1362.44 1903.93,1362.03 1908.05,1361.61 1912.17,1361.18 1916.28,1360.73 1920.4,1360.28 1924.52,1359.82 1928.64,1359.34 1932.76,1358.86 1936.88,1358.36 1941,1357.85 1945.12,1357.33 1949.24,1356.79 1953.35,1356.24 1957.47,1355.68 1961.59,1355.1 1965.71,1354.51 1969.83,1353.9 1973.95,1353.28 1978.07,1352.64 1982.19,1351.98 1986.3,1351.3 1990.42,1350.61 1994.54,1349.89 1998.66,1349.16 2002.78,1348.4 2006.9,1347.62 2011.02,1346.82 2015.14,1346 2019.26,1345.15 2023.37,1344.28 2027.49,1343.37 2031.61,1342.44 2035.73,1341.48 2039.85,1340.49 2043.97,1339.47 2048.09,1338.41 2052.21,1337.31 2056.32,1336.18 2060.44,1335.01 2064.56,1333.8 2068.68,1332.54 2072.8,1331.24 2076.92,1329.89 2081.04,1328.48 2085.16,1327.02 2089.28,1325.51 2093.39,1323.93 2097.51,1322.29 2101.63,1320.58 2105.75,1318.79 2109.87,1316.93 2113.99,1314.98 2118.11,1312.94 2122.23,1310.81 2126.34,1308.58 2130.46,1306.23 2134.58,1303.77 2138.7,1301.18 2142.82,1298.45 2146.94,1295.57 2151.06,1292.54 2155.18,1289.32 2159.3,1285.92 2163.41,1282.3 2167.53,1278.46 2171.65,1274.36 2175.77,1269.98 2179.89,1265.3 2184.01,1260.28 2188.13,1254.88 2192.25,1249.05 2196.36,1242.74 2200.48,1235.89 2204.6,1228.42 2208.72,1220.25 2212.84,1211.28 2216.96,1201.36 2221.08,1190.35 2225.2,1178.06 2229.31,1164.23 2233.43,1148.55 2237.55,1130.63 2241.67,1109.93 2245.79,1085.74 2249.91,1057.07 2254.03,1022.54 2258.15,980.076 2262.27,926.542 2266.38,856.83 2270.5,762.077 2274.62,625.367 2278.74,409.737 2282.86,15.2476 2286.98,-961.346 2291.1,-8711.97 "/>
</svg>
