<?xml version="1.0" encoding="utf-8"?>
<svg xmlns="http://www.w3.org/2000/svg" xmlns:xlink="http://www.w3.org/1999/xlink" width="600" height="400" viewBox="0 0 2400 1600">
<defs>
  <clipPath id="clip330">
    <rect x="0" y="0" width="2400" height="1600"/>
  </clipPath>
</defs>
<path clip-path="url(#clip330)" d="M0 1600 L2400 1600 L2400 0 L0 0  Z" fill="#ffffff" fill-rule="evenodd" fill-opacity="1"/>
<defs>
  <clipPath id="clip331">
    <rect x="480" y="0" width="1681" height="1600"/>
  </clipPath>
</defs>
<path clip-path="url(#clip330)" d="M249.542 1423.18 L2352.76 1423.18 L2352.76 123.472 L249.542 123.472  Z" fill="#ffffff" fill-rule="evenodd" fill-opacity="1"/>
<defs>
  <clipPath id="clip332">
    <rect x="249" y="123" width="2104" height="1301"/>
  </clipPath>
</defs>
<polyline clip-path="url(#clip332)" style="stroke:#000000; stroke-linecap:round; stroke-linejoin:round; stroke-width:2; stroke-opacity:0.1; fill:none" points="308.074,1423.18 308.074,123.472 "/>
<polyline clip-path="url(#clip332)" style="stroke:#000000; stroke-linecap:round; stroke-linejoin:round; stroke-width:2; stroke-opacity:0.1; fill:none" points="804.611,1423.18 804.611,123.472 "/>
<polyline clip-path="url(#clip332)" style="stroke:#000000; stroke-linecap:round; stroke-linejoin:round; stroke-width:2; stroke-opacity:0.1; fill:none" points="1301.15,1423.18 1301.15,123.472 "/>
<polyline clip-path="url(#clip332)" style="stroke:#000000; stroke-linecap:round; stroke-linejoin:round; stroke-width:2; stroke-opacity:0.1; fill:none" points="1797.69,1423.18 1797.69,123.472 "/>
<polyline clip-path="url(#clip332)" style="stroke:#000000; stroke-linecap:round; stroke-linejoin:round; stroke-width:2; stroke-opacity:0.1; fill:none" points="2294.22,1423.18 2294.22,123.472 "/>
<polyline clip-path="url(#clip330)" style="stroke:#000000; stroke-linecap:round; stroke-linejoin:round; stroke-width:4; stroke-opacity:1; fill:none" points="249.542,1423.18 2352.76,1423.18 "/>
<polyline clip-path="url(#clip330)" style="stroke:#000000; stroke-linecap:round; stroke-linejoin:round; stroke-width:4; stroke-opacity:1; fill:none" points="308.074,1423.18 308.074,1404.28 "/>
<polyline clip-path="url(#clip330)" style="stroke:#000000; stroke-linecap:round; stroke-linejoin:round; stroke-width:4; stroke-opacity:1; fill:none" points="804.611,1423.18 804.611,1404.28 "/>
<polyline clip-path="url(#clip330)" style="stroke:#000000; stroke-linecap:round; stroke-linejoin:round; stroke-width:4; stroke-opacity:1; fill:none" points="1301.15,1423.18 1301.15,1404.28 "/>
<polyline clip-path="url(#clip330)" style="stroke:#000000; stroke-linecap:round; stroke-linejoin:round; stroke-width:4; stroke-opacity:1; fill:none" points="1797.69,1423.18 1797.69,1404.28 "/>
<polyline clip-path="url(#clip330)" style="stroke:#000000; stroke-linecap:round; stroke-linejoin:round; stroke-width:4; stroke-opacity:1; fill:none" points="2294.22,1423.18 2294.22,1404.28 "/>
<path clip-path="url(#clip330)" d="M254.602 1468.75 L284.278 1468.75 L284.278 1472.69 L254.602 1472.69 L254.602 1468.75 Z" fill="#000000" fill-rule="nonzero" fill-opacity="1" /><path clip-path="url(#clip330)" d="M295.18 1481.64 L302.819 1481.64 L302.819 1455.28 L294.509 1456.95 L294.509 1452.69 L302.773 1451.02 L307.449 1451.02 L307.449 1481.64 L315.088 1481.64 L315.088 1485.58 L295.18 1485.58 L295.18 1481.64 Z" fill="#000000" fill-rule="nonzero" fill-opacity="1" /><path clip-path="url(#clip330)" d="M324.532 1479.7 L329.416 1479.7 L329.416 1485.58 L324.532 1485.58 L324.532 1479.7 Z" fill="#000000" fill-rule="nonzero" fill-opacity="1" /><path clip-path="url(#clip330)" d="M349.601 1454.1 Q345.99 1454.1 344.162 1457.66 Q342.356 1461.2 342.356 1468.33 Q342.356 1475.44 344.162 1479.01 Q345.99 1482.55 349.601 1482.55 Q353.236 1482.55 355.041 1479.01 Q356.87 1475.44 356.87 1468.33 Q356.87 1461.2 355.041 1457.66 Q353.236 1454.1 349.601 1454.1 M349.601 1450.39 Q355.412 1450.39 358.467 1455 Q361.546 1459.58 361.546 1468.33 Q361.546 1477.06 358.467 1481.67 Q355.412 1486.25 349.601 1486.25 Q343.791 1486.25 340.713 1481.67 Q337.657 1477.06 337.657 1468.33 Q337.657 1459.58 340.713 1455 Q343.791 1450.39 349.601 1450.39 Z" fill="#000000" fill-rule="nonzero" fill-opacity="1" /><path clip-path="url(#clip330)" d="M751.637 1468.75 L781.313 1468.75 L781.313 1472.69 L751.637 1472.69 L751.637 1468.75 Z" fill="#000000" fill-rule="nonzero" fill-opacity="1" /><path clip-path="url(#clip330)" d="M801.405 1454.1 Q797.794 1454.1 795.966 1457.66 Q794.16 1461.2 794.16 1468.33 Q794.16 1475.44 795.966 1479.01 Q797.794 1482.55 801.405 1482.55 Q805.04 1482.55 806.845 1479.01 Q808.674 1475.44 808.674 1468.33 Q808.674 1461.2 806.845 1457.66 Q805.04 1454.1 801.405 1454.1 M801.405 1450.39 Q807.216 1450.39 810.271 1455 Q813.35 1459.58 813.35 1468.33 Q813.35 1477.06 810.271 1481.67 Q807.216 1486.25 801.405 1486.25 Q795.595 1486.25 792.517 1481.67 Q789.461 1477.06 789.461 1468.33 Q789.461 1459.58 792.517 1455 Q795.595 1450.39 801.405 1450.39 Z" fill="#000000" fill-rule="nonzero" fill-opacity="1" /><path clip-path="url(#clip330)" d="M821.567 1479.7 L826.452 1479.7 L826.452 1485.58 L821.567 1485.58 L821.567 1479.7 Z" fill="#000000" fill-rule="nonzero" fill-opacity="1" /><path clip-path="url(#clip330)" d="M836.683 1451.02 L855.039 1451.02 L855.039 1454.96 L840.965 1454.96 L840.965 1463.43 Q841.984 1463.08 843.002 1462.92 Q844.021 1462.73 845.039 1462.73 Q850.826 1462.73 854.206 1465.9 Q857.586 1469.08 857.586 1474.49 Q857.586 1480.07 854.113 1483.17 Q850.641 1486.25 844.322 1486.25 Q842.146 1486.25 839.877 1485.88 Q837.632 1485.51 835.225 1484.77 L835.225 1480.07 Q837.308 1481.2 839.53 1481.76 Q841.752 1482.32 844.229 1482.32 Q848.234 1482.32 850.572 1480.21 Q852.91 1478.1 852.91 1474.49 Q852.91 1470.88 850.572 1468.77 Q848.234 1466.67 844.229 1466.67 Q842.354 1466.67 840.479 1467.08 Q838.627 1467.5 836.683 1468.38 L836.683 1451.02 Z" fill="#000000" fill-rule="nonzero" fill-opacity="1" /><path clip-path="url(#clip330)" d="M1278.53 1454.1 Q1274.92 1454.1 1273.09 1457.66 Q1271.29 1461.2 1271.29 1468.33 Q1271.29 1475.44 1273.09 1479.01 Q1274.92 1482.55 1278.53 1482.55 Q1282.17 1482.55 1283.97 1479.01 Q1285.8 1475.44 1285.8 1468.33 Q1285.8 1461.2 1283.97 1457.66 Q1282.17 1454.1 1278.53 1454.1 M1278.53 1450.39 Q1284.34 1450.39 1287.4 1455 Q1290.48 1459.58 1290.48 1468.33 Q1290.48 1477.06 1287.4 1481.67 Q1284.34 1486.25 1278.53 1486.25 Q1272.72 1486.25 1269.64 1481.67 Q1266.59 1477.06 1266.59 1468.33 Q1266.59 1459.58 1269.64 1455 Q1272.72 1450.39 1278.53 1450.39 Z" fill="#000000" fill-rule="nonzero" fill-opacity="1" /><path clip-path="url(#clip330)" d="M1298.7 1479.7 L1303.58 1479.7 L1303.58 1485.58 L1298.7 1485.58 L1298.7 1479.7 Z" fill="#000000" fill-rule="nonzero" fill-opacity="1" /><path clip-path="url(#clip330)" d="M1323.76 1454.1 Q1320.15 1454.1 1318.32 1457.66 Q1316.52 1461.2 1316.52 1468.33 Q1316.52 1475.44 1318.32 1479.01 Q1320.15 1482.55 1323.76 1482.55 Q1327.4 1482.55 1329.2 1479.01 Q1331.03 1475.44 1331.03 1468.33 Q1331.03 1461.2 1329.2 1457.66 Q1327.4 1454.1 1323.76 1454.1 M1323.76 1450.39 Q1329.57 1450.39 1332.63 1455 Q1335.71 1459.58 1335.71 1468.33 Q1335.71 1477.06 1332.63 1481.67 Q1329.57 1486.25 1323.76 1486.25 Q1317.95 1486.25 1314.88 1481.67 Q1311.82 1477.06 1311.82 1468.33 Q1311.82 1459.58 1314.88 1455 Q1317.95 1450.39 1323.76 1450.39 Z" fill="#000000" fill-rule="nonzero" fill-opacity="1" /><path clip-path="url(#clip330)" d="M1775.57 1454.1 Q1771.96 1454.1 1770.13 1457.66 Q1768.32 1461.2 1768.32 1468.33 Q1768.32 1475.44 1770.13 1479.01 Q1771.96 1482.55 1775.57 1482.55 Q1779.2 1482.55 1781.01 1479.01 Q1782.84 1475.44 1782.84 1468.33 Q1782.84 1461.2 1781.01 1457.66 Q1779.2 1454.1 1775.57 1454.1 M1775.57 1450.39 Q1781.38 1450.39 1784.43 1455 Q1787.51 1459.58 1787.51 1468.33 Q1787.51 1477.06 1784.43 1481.67 Q1781.38 1486.25 1775.57 1486.25 Q1769.76 1486.25 1766.68 1481.67 Q1763.62 1477.06 1763.62 1468.33 Q1763.62 1459.58 1766.68 1455 Q1769.76 1450.39 1775.57 1450.39 Z" fill="#000000" fill-rule="nonzero" fill-opacity="1" /><path clip-path="url(#clip330)" d="M1795.73 1479.7 L1800.61 1479.7 L1800.61 1485.58 L1795.73 1485.58 L1795.73 1479.7 Z" fill="#000000" fill-rule="nonzero" fill-opacity="1" /><path clip-path="url(#clip330)" d="M1810.85 1451.02 L1829.2 1451.02 L1829.2 1454.96 L1815.13 1454.96 L1815.13 1463.43 Q1816.15 1463.08 1817.17 1462.92 Q1818.18 1462.73 1819.2 1462.73 Q1824.99 1462.73 1828.37 1465.9 Q1831.75 1469.08 1831.75 1474.49 Q1831.75 1480.07 1828.28 1483.17 Q1824.8 1486.25 1818.49 1486.25 Q1816.31 1486.25 1814.04 1485.88 Q1811.8 1485.51 1809.39 1484.77 L1809.39 1480.07 Q1811.47 1481.2 1813.69 1481.76 Q1815.92 1482.32 1818.39 1482.32 Q1822.4 1482.32 1824.73 1480.21 Q1827.07 1478.1 1827.07 1474.49 Q1827.07 1470.88 1824.73 1468.77 Q1822.4 1466.67 1818.39 1466.67 Q1816.52 1466.67 1814.64 1467.08 Q1812.79 1467.5 1810.85 1468.38 L1810.85 1451.02 Z" fill="#000000" fill-rule="nonzero" fill-opacity="1" /><path clip-path="url(#clip330)" d="M2261.38 1481.64 L2269.02 1481.64 L2269.02 1455.28 L2260.71 1456.95 L2260.71 1452.69 L2268.97 1451.02 L2273.65 1451.02 L2273.65 1481.64 L2281.28 1481.64 L2281.28 1485.58 L2261.38 1485.58 L2261.38 1481.64 Z" fill="#000000" fill-rule="nonzero" fill-opacity="1" /><path clip-path="url(#clip330)" d="M2290.73 1479.7 L2295.61 1479.7 L2295.61 1485.58 L2290.73 1485.58 L2290.73 1479.7 Z" fill="#000000" fill-rule="nonzero" fill-opacity="1" /><path clip-path="url(#clip330)" d="M2315.8 1454.1 Q2312.19 1454.1 2310.36 1457.66 Q2308.55 1461.2 2308.55 1468.33 Q2308.55 1475.44 2310.36 1479.01 Q2312.19 1482.55 2315.8 1482.55 Q2319.43 1482.55 2321.24 1479.01 Q2323.07 1475.44 2323.07 1468.33 Q2323.07 1461.2 2321.24 1457.66 Q2319.43 1454.1 2315.8 1454.1 M2315.8 1450.39 Q2321.61 1450.39 2324.66 1455 Q2327.74 1459.58 2327.74 1468.33 Q2327.74 1477.06 2324.66 1481.67 Q2321.61 1486.25 2315.8 1486.25 Q2309.99 1486.25 2306.91 1481.67 Q2303.85 1477.06 2303.85 1468.33 Q2303.85 1459.58 2306.91 1455 Q2309.99 1450.39 2315.8 1450.39 Z" fill="#000000" fill-rule="nonzero" fill-opacity="1" /><path clip-path="url(#clip330)" d="M1317.76 1532.4 L1304.87 1549.74 L1318.43 1568.04 L1311.53 1568.04 L1301.15 1554.04 L1290.77 1568.04 L1283.87 1568.04 L1297.71 1549.39 L1285.04 1532.4 L1291.95 1532.4 L1301.4 1545.1 L1310.86 1532.4 L1317.76 1532.4 Z" fill="#000000" fill-rule="nonzero" fill-opacity="1" /><polyline clip-path="url(#clip332)" style="stroke:#000000; stroke-linecap:round; stroke-linejoin:round; stroke-width:2; stroke-opacity:0.1; fill:none" points="249.542,1423.18 2352.76,1423.18 "/>
<polyline clip-path="url(#clip332)" style="stroke:#000000; stroke-linecap:round; stroke-linejoin:round; stroke-width:2; stroke-opacity:0.1; fill:none" points="249.542,1152.41 2352.76,1152.41 "/>
<polyline clip-path="url(#clip332)" style="stroke:#000000; stroke-linecap:round; stroke-linejoin:round; stroke-width:2; stroke-opacity:0.1; fill:none" points="249.542,881.635 2352.76,881.635 "/>
<polyline clip-path="url(#clip332)" style="stroke:#000000; stroke-linecap:round; stroke-linejoin:round; stroke-width:2; stroke-opacity:0.1; fill:none" points="249.542,610.863 2352.76,610.863 "/>
<polyline clip-path="url(#clip332)" style="stroke:#000000; stroke-linecap:round; stroke-linejoin:round; stroke-width:2; stroke-opacity:0.1; fill:none" points="249.542,340.09 2352.76,340.09 "/>
<polyline clip-path="url(#clip330)" style="stroke:#000000; stroke-linecap:round; stroke-linejoin:round; stroke-width:4; stroke-opacity:1; fill:none" points="249.542,1423.18 249.542,123.472 "/>
<polyline clip-path="url(#clip330)" style="stroke:#000000; stroke-linecap:round; stroke-linejoin:round; stroke-width:4; stroke-opacity:1; fill:none" points="249.542,1423.18 268.44,1423.18 "/>
<polyline clip-path="url(#clip330)" style="stroke:#000000; stroke-linecap:round; stroke-linejoin:round; stroke-width:4; stroke-opacity:1; fill:none" points="249.542,1152.41 268.44,1152.41 "/>
<polyline clip-path="url(#clip330)" style="stroke:#000000; stroke-linecap:round; stroke-linejoin:round; stroke-width:4; stroke-opacity:1; fill:none" points="249.542,881.635 268.44,881.635 "/>
<polyline clip-path="url(#clip330)" style="stroke:#000000; stroke-linecap:round; stroke-linejoin:round; stroke-width:4; stroke-opacity:1; fill:none" points="249.542,610.863 268.44,610.863 "/>
<polyline clip-path="url(#clip330)" style="stroke:#000000; stroke-linecap:round; stroke-linejoin:round; stroke-width:4; stroke-opacity:1; fill:none" points="249.542,340.09 268.44,340.09 "/>
<path clip-path="url(#clip330)" d="M126.205 1408.98 Q122.593 1408.98 120.765 1412.54 Q118.959 1416.08 118.959 1423.21 Q118.959 1430.32 120.765 1433.89 Q122.593 1437.43 126.205 1437.43 Q129.839 1437.43 131.644 1433.89 Q133.473 1430.32 133.473 1423.21 Q133.473 1416.08 131.644 1412.54 Q129.839 1408.98 126.205 1408.98 M126.205 1405.27 Q132.015 1405.27 135.07 1409.88 Q138.149 1414.46 138.149 1423.21 Q138.149 1431.94 135.07 1436.55 Q132.015 1441.13 126.205 1441.13 Q120.394 1441.13 117.316 1436.55 Q114.26 1431.94 114.26 1423.21 Q114.26 1414.46 117.316 1409.88 Q120.394 1405.27 126.205 1405.27 Z" fill="#000000" fill-rule="nonzero" fill-opacity="1" /><path clip-path="url(#clip330)" d="M146.366 1434.58 L151.251 1434.58 L151.251 1440.46 L146.366 1440.46 L146.366 1434.58 Z" fill="#000000" fill-rule="nonzero" fill-opacity="1" /><path clip-path="url(#clip330)" d="M171.436 1408.98 Q167.825 1408.98 165.996 1412.54 Q164.19 1416.08 164.19 1423.21 Q164.19 1430.32 165.996 1433.89 Q167.825 1437.43 171.436 1437.43 Q175.07 1437.43 176.876 1433.89 Q178.704 1430.32 178.704 1423.21 Q178.704 1416.08 176.876 1412.54 Q175.07 1408.98 171.436 1408.98 M171.436 1405.27 Q177.246 1405.27 180.301 1409.88 Q183.38 1414.46 183.38 1423.21 Q183.38 1431.94 180.301 1436.55 Q177.246 1441.13 171.436 1441.13 Q165.626 1441.13 162.547 1436.55 Q159.491 1431.94 159.491 1423.21 Q159.491 1414.46 162.547 1409.88 Q165.626 1405.27 171.436 1405.27 Z" fill="#000000" fill-rule="nonzero" fill-opacity="1" /><path clip-path="url(#clip330)" d="M201.598 1408.98 Q197.987 1408.98 196.158 1412.54 Q194.352 1416.08 194.352 1423.21 Q194.352 1430.32 196.158 1433.89 Q197.987 1437.43 201.598 1437.43 Q205.232 1437.43 207.037 1433.89 Q208.866 1430.32 208.866 1423.21 Q208.866 1416.08 207.037 1412.54 Q205.232 1408.98 201.598 1408.98 M201.598 1405.27 Q207.408 1405.27 210.463 1409.88 Q213.542 1414.46 213.542 1423.21 Q213.542 1431.94 210.463 1436.55 Q207.408 1441.13 201.598 1441.13 Q195.787 1441.13 192.709 1436.55 Q189.653 1431.94 189.653 1423.21 Q189.653 1414.46 192.709 1409.88 Q195.787 1405.27 201.598 1405.27 Z" fill="#000000" fill-rule="nonzero" fill-opacity="1" /><path clip-path="url(#clip330)" d="M127.2 1138.21 Q123.589 1138.21 121.76 1141.77 Q119.955 1145.31 119.955 1152.44 Q119.955 1159.55 121.76 1163.11 Q123.589 1166.66 127.2 1166.66 Q130.834 1166.66 132.64 1163.11 Q134.468 1159.55 134.468 1152.44 Q134.468 1145.31 132.64 1141.77 Q130.834 1138.21 127.2 1138.21 M127.2 1134.5 Q133.01 1134.5 136.066 1139.11 Q139.144 1143.69 139.144 1152.44 Q139.144 1161.17 136.066 1165.78 Q133.01 1170.36 127.2 1170.36 Q121.39 1170.36 118.311 1165.78 Q115.256 1161.17 115.256 1152.44 Q115.256 1143.69 118.311 1139.11 Q121.39 1134.5 127.2 1134.5 Z" fill="#000000" fill-rule="nonzero" fill-opacity="1" /><path clip-path="url(#clip330)" d="M147.362 1163.81 L152.246 1163.81 L152.246 1169.69 L147.362 1169.69 L147.362 1163.81 Z" fill="#000000" fill-rule="nonzero" fill-opacity="1" /><path clip-path="url(#clip330)" d="M166.459 1165.75 L182.778 1165.75 L182.778 1169.69 L160.834 1169.69 L160.834 1165.75 Q163.496 1163 168.079 1158.37 Q172.686 1153.72 173.866 1152.37 Q176.112 1149.85 176.991 1148.11 Q177.894 1146.35 177.894 1144.66 Q177.894 1141.91 175.95 1140.17 Q174.028 1138.44 170.927 1138.44 Q168.727 1138.44 166.274 1139.2 Q163.843 1139.97 161.065 1141.52 L161.065 1136.79 Q163.89 1135.66 166.343 1135.08 Q168.797 1134.5 170.834 1134.5 Q176.204 1134.5 179.399 1137.19 Q182.593 1139.87 182.593 1144.36 Q182.593 1146.49 181.783 1148.41 Q180.996 1150.31 178.889 1152.91 Q178.311 1153.58 175.209 1156.79 Q172.107 1159.99 166.459 1165.75 Z" fill="#000000" fill-rule="nonzero" fill-opacity="1" /><path clip-path="url(#clip330)" d="M192.639 1135.13 L210.996 1135.13 L210.996 1139.06 L196.922 1139.06 L196.922 1147.53 Q197.94 1147.19 198.959 1147.03 Q199.977 1146.84 200.996 1146.84 Q206.783 1146.84 210.162 1150.01 Q213.542 1153.18 213.542 1158.6 Q213.542 1164.18 210.07 1167.28 Q206.598 1170.36 200.278 1170.36 Q198.102 1170.36 195.834 1169.99 Q193.588 1169.62 191.181 1168.88 L191.181 1164.18 Q193.264 1165.31 195.487 1165.87 Q197.709 1166.42 200.186 1166.42 Q204.19 1166.42 206.528 1164.32 Q208.866 1162.21 208.866 1158.6 Q208.866 1154.99 206.528 1152.88 Q204.19 1150.78 200.186 1150.78 Q198.311 1150.78 196.436 1151.19 Q194.584 1151.61 192.639 1152.49 L192.639 1135.13 Z" fill="#000000" fill-rule="nonzero" fill-opacity="1" /><path clip-path="url(#clip330)" d="M126.205 867.434 Q122.593 867.434 120.765 870.998 Q118.959 874.54 118.959 881.67 Q118.959 888.776 120.765 892.341 Q122.593 895.883 126.205 895.883 Q129.839 895.883 131.644 892.341 Q133.473 888.776 133.473 881.67 Q133.473 874.54 131.644 870.998 Q129.839 867.434 126.205 867.434 M126.205 863.73 Q132.015 863.73 135.07 868.336 Q138.149 872.92 138.149 881.67 Q138.149 890.396 135.07 895.003 Q132.015 899.586 126.205 899.586 Q120.394 899.586 117.316 895.003 Q114.26 890.396 114.26 881.67 Q114.26 872.92 117.316 868.336 Q120.394 863.73 126.205 863.73 Z" fill="#000000" fill-rule="nonzero" fill-opacity="1" /><path clip-path="url(#clip330)" d="M146.366 893.035 L151.251 893.035 L151.251 898.915 L146.366 898.915 L146.366 893.035 Z" fill="#000000" fill-rule="nonzero" fill-opacity="1" /><path clip-path="url(#clip330)" d="M161.482 864.355 L179.839 864.355 L179.839 868.29 L165.765 868.29 L165.765 876.762 Q166.783 876.415 167.802 876.253 Q168.82 876.068 169.839 876.068 Q175.626 876.068 179.005 879.239 Q182.385 882.41 182.385 887.827 Q182.385 893.406 178.913 896.508 Q175.44 899.586 169.121 899.586 Q166.945 899.586 164.677 899.216 Q162.431 898.846 160.024 898.105 L160.024 893.406 Q162.107 894.54 164.329 895.096 Q166.552 895.651 169.028 895.651 Q173.033 895.651 175.371 893.545 Q177.709 891.438 177.709 887.827 Q177.709 884.216 175.371 882.109 Q173.033 880.003 169.028 880.003 Q167.153 880.003 165.278 880.42 Q163.427 880.836 161.482 881.716 L161.482 864.355 Z" fill="#000000" fill-rule="nonzero" fill-opacity="1" /><path clip-path="url(#clip330)" d="M201.598 867.434 Q197.987 867.434 196.158 870.998 Q194.352 874.54 194.352 881.67 Q194.352 888.776 196.158 892.341 Q197.987 895.883 201.598 895.883 Q205.232 895.883 207.037 892.341 Q208.866 888.776 208.866 881.67 Q208.866 874.54 207.037 870.998 Q205.232 867.434 201.598 867.434 M201.598 863.73 Q207.408 863.73 210.463 868.336 Q213.542 872.92 213.542 881.67 Q213.542 890.396 210.463 895.003 Q207.408 899.586 201.598 899.586 Q195.787 899.586 192.709 895.003 Q189.653 890.396 189.653 881.67 Q189.653 872.92 192.709 868.336 Q195.787 863.73 201.598 863.73 Z" fill="#000000" fill-rule="nonzero" fill-opacity="1" /><path clip-path="url(#clip330)" d="M127.2 596.661 Q123.589 596.661 121.76 600.226 Q119.955 603.768 119.955 610.897 Q119.955 618.004 121.76 621.568 Q123.589 625.11 127.2 625.11 Q130.834 625.11 132.64 621.568 Q134.468 618.004 134.468 610.897 Q134.468 603.768 132.64 600.226 Q130.834 596.661 127.2 596.661 M127.2 592.958 Q133.01 592.958 136.066 597.564 Q139.144 602.147 139.144 610.897 Q139.144 619.624 136.066 624.231 Q133.01 628.814 127.2 628.814 Q121.39 628.814 118.311 624.231 Q115.256 619.624 115.256 610.897 Q115.256 602.147 118.311 597.564 Q121.39 592.958 127.2 592.958 Z" fill="#000000" fill-rule="nonzero" fill-opacity="1" /><path clip-path="url(#clip330)" d="M147.362 622.263 L152.246 622.263 L152.246 628.143 L147.362 628.143 L147.362 622.263 Z" fill="#000000" fill-rule="nonzero" fill-opacity="1" /><path clip-path="url(#clip330)" d="M161.251 593.583 L183.473 593.583 L183.473 595.573 L170.927 628.143 L166.042 628.143 L177.848 597.518 L161.251 597.518 L161.251 593.583 Z" fill="#000000" fill-rule="nonzero" fill-opacity="1" /><path clip-path="url(#clip330)" d="M192.639 593.583 L210.996 593.583 L210.996 597.518 L196.922 597.518 L196.922 605.99 Q197.94 605.643 198.959 605.481 Q199.977 605.295 200.996 605.295 Q206.783 605.295 210.162 608.467 Q213.542 611.638 213.542 617.055 Q213.542 622.633 210.07 625.735 Q206.598 628.814 200.278 628.814 Q198.102 628.814 195.834 628.443 Q193.588 628.073 191.181 627.332 L191.181 622.633 Q193.264 623.768 195.487 624.323 Q197.709 624.879 200.186 624.879 Q204.19 624.879 206.528 622.772 Q208.866 620.666 208.866 617.055 Q208.866 613.444 206.528 611.337 Q204.19 609.231 200.186 609.231 Q198.311 609.231 196.436 609.647 Q194.584 610.064 192.639 610.944 L192.639 593.583 Z" fill="#000000" fill-rule="nonzero" fill-opacity="1" /><path clip-path="url(#clip330)" d="M117.015 353.435 L124.654 353.435 L124.654 327.069 L116.343 328.736 L116.343 324.477 L124.607 322.81 L129.283 322.81 L129.283 353.435 L136.922 353.435 L136.922 357.37 L117.015 357.37 L117.015 353.435 Z" fill="#000000" fill-rule="nonzero" fill-opacity="1" /><path clip-path="url(#clip330)" d="M146.366 351.49 L151.251 351.49 L151.251 357.37 L146.366 357.37 L146.366 351.49 Z" fill="#000000" fill-rule="nonzero" fill-opacity="1" /><path clip-path="url(#clip330)" d="M171.436 325.889 Q167.825 325.889 165.996 329.454 Q164.19 332.995 164.19 340.125 Q164.19 347.231 165.996 350.796 Q167.825 354.338 171.436 354.338 Q175.07 354.338 176.876 350.796 Q178.704 347.231 178.704 340.125 Q178.704 332.995 176.876 329.454 Q175.07 325.889 171.436 325.889 M171.436 322.185 Q177.246 322.185 180.301 326.792 Q183.38 331.375 183.38 340.125 Q183.38 348.852 180.301 353.458 Q177.246 358.041 171.436 358.041 Q165.626 358.041 162.547 353.458 Q159.491 348.852 159.491 340.125 Q159.491 331.375 162.547 326.792 Q165.626 322.185 171.436 322.185 Z" fill="#000000" fill-rule="nonzero" fill-opacity="1" /><path clip-path="url(#clip330)" d="M201.598 325.889 Q197.987 325.889 196.158 329.454 Q194.352 332.995 194.352 340.125 Q194.352 347.231 196.158 350.796 Q197.987 354.338 201.598 354.338 Q205.232 354.338 207.037 350.796 Q208.866 347.231 208.866 340.125 Q208.866 332.995 207.037 329.454 Q205.232 325.889 201.598 325.889 M201.598 322.185 Q207.408 322.185 210.463 326.792 Q213.542 331.375 213.542 340.125 Q213.542 348.852 210.463 353.458 Q207.408 358.041 201.598 358.041 Q195.787 358.041 192.709 353.458 Q189.653 348.852 189.653 340.125 Q189.653 331.375 192.709 326.792 Q195.787 322.185 201.598 322.185 Z" fill="#000000" fill-rule="nonzero" fill-opacity="1" /><path clip-path="url(#clip330)" d="M14.479 803.277 L19.3487 803.277 L19.3487 808.878 Q19.3487 812.029 20.6219 813.271 Q21.895 814.48 25.2052 814.48 L28.3562 814.48 L28.3562 804.836 L32.9077 804.836 L32.9077 814.48 L64.0042 814.48 L64.0042 820.369 L32.9077 820.369 L32.9077 825.97 L28.3562 825.97 L28.3562 820.369 L25.8736 820.369 Q19.9216 820.369 17.2162 817.599 Q14.479 814.83 14.479 808.815 L14.479 803.277 Z" fill="#000000" fill-rule="nonzero" fill-opacity="1" /><path clip-path="url(#clip330)" d="M14.5426 784.307 Q21.8632 788.572 29.0246 790.641 Q36.186 792.71 43.5384 792.71 Q50.8908 792.71 58.1159 790.641 Q65.3091 788.54 72.5979 784.307 L72.5979 789.399 Q65.1182 794.174 57.8931 796.561 Q50.668 798.916 43.5384 798.916 Q36.4406 798.916 29.2474 796.561 Q22.0542 794.206 14.5426 789.399 L14.5426 784.307 Z" fill="#000000" fill-rule="nonzero" fill-opacity="1" /><path clip-path="url(#clip330)" d="M28.3562 743.312 L45.7028 756.202 L64.0042 742.643 L64.0042 749.55 L49.9996 759.926 L64.0042 770.302 L64.0042 777.209 L45.3526 763.364 L28.3562 776.031 L28.3562 769.125 L41.0558 759.672 L28.3562 750.218 L28.3562 743.312 Z" fill="#000000" fill-rule="nonzero" fill-opacity="1" /><path clip-path="url(#clip330)" d="M14.5426 735.291 L14.5426 730.198 Q22.0542 725.424 29.2474 723.069 Q36.4406 720.682 43.5384 720.682 Q50.668 720.682 57.8931 723.069 Q65.1182 725.424 72.5979 730.198 L72.5979 735.291 Q65.3091 731.058 58.1159 728.989 Q50.8908 726.888 43.5384 726.888 Q36.186 726.888 29.0246 728.989 Q21.8632 731.058 14.5426 735.291 Z" fill="#000000" fill-rule="nonzero" fill-opacity="1" /><path clip-path="url(#clip330)" d="M767.402 67.4314 Q772.749 67.4719 775.949 70.51 Q779.352 73.7103 779.352 78.5713 Q779.352 83.2299 776.354 86.4706 Q773.114 89.9949 766.511 89.9949 Q766.511 86.9567 766.511 83.878 Q769.306 84.0806 771.007 82.2982 Q772.303 80.8804 772.303 79.3815 Q772.303 77.2345 771.007 75.4521 Q769.751 73.7508 767.402 73.7508 Q742.165 73.7508 742.165 56.0483 Q742.165 43.8956 755.654 40.3308 Q744.312 38.8725 744.312 28.3401 Q744.312 20.3598 753.224 17.0381 L744.798 17.0381 L744.798 9.54393 L776.759 9.54393 L776.759 17.0381 Q751.279 17.0381 751.279 28.8262 Q751.279 36.5635 772.668 36.928 L772.668 43.8146 Q749.578 42.9234 749.659 56.0483 Q749.699 67.0263 767.402 67.4314 Z" fill="#000000" fill-rule="nonzero" fill-opacity="1" /><path clip-path="url(#clip330)" d="M789.034 47.1768 L793.733 47.1768 L793.733 72.576 L789.034 72.576 L789.034 47.1768 M789.034 37.2926 L793.733 37.2926 L793.733 42.5588 L789.034 42.5588 L789.034 37.2926 Z" fill="#000000" fill-rule="nonzero" fill-opacity="1" /><path clip-path="url(#clip330)" d="M886.012 39.4396 L886.012 46.6907 Q881.759 49.8504 878.113 51.2682 Q874.508 52.6456 870.578 52.6456 Q866.122 52.6456 860.208 50.2555 Q859.803 50.0935 859.519 49.972 Q859.276 49.8909 858.669 49.6479 Q852.39 47.1768 848.582 47.1768 Q845.017 47.1768 841.533 48.7162 Q838.05 50.2555 834.08 53.6583 L834.08 46.4072 Q838.333 43.2475 841.938 41.8701 Q845.584 40.4523 849.514 40.4523 Q853.97 40.4523 859.924 42.8424 Q860.37 43.0449 860.573 43.1259 Q860.816 43.2069 861.423 43.45 Q867.702 45.9211 871.51 45.9211 Q874.994 45.9211 878.397 44.4222 Q881.84 42.8829 886.012 39.4396 Z" fill="#000000" fill-rule="nonzero" fill-opacity="1" /><path clip-path="url(#clip330)" d="M929.316 12.096 L937.499 12.096 L937.499 65.6895 L966.949 65.6895 L966.949 72.576 L929.316 72.576 L929.316 12.096 Z" fill="#000000" fill-rule="nonzero" fill-opacity="1" /><path clip-path="url(#clip330)" d="M995.832 49.7694 Q986.799 49.7694 983.315 51.8354 Q979.831 53.9013 979.831 58.8839 Q979.831 62.8538 982.424 65.2034 Q985.057 67.5124 989.553 67.5124 Q995.751 67.5124 999.478 63.1374 Q1003.25 58.7219 1003.25 51.4303 L1003.25 49.7694 L995.832 49.7694 M1010.7 46.6907 L1010.7 72.576 L1003.25 72.576 L1003.25 65.6895 Q1000.69 69.8214 996.886 71.8063 Q993.078 73.7508 987.568 73.7508 Q980.601 73.7508 976.469 69.8619 Q972.378 65.9325 972.378 59.3701 Q972.378 51.7138 977.482 47.825 Q982.626 43.9361 992.794 43.9361 L1003.25 43.9361 L1003.25 43.2069 Q1003.25 38.0623 999.843 35.2672 Q996.48 32.4315 990.364 32.4315 Q986.475 32.4315 982.788 33.3632 Q979.102 34.295 975.699 36.1584 L975.699 29.2718 Q979.791 27.692 983.639 26.9223 Q987.487 26.1121 991.133 26.1121 Q1000.98 26.1121 1005.84 31.2163 Q1010.7 36.3204 1010.7 46.6907 Z" fill="#000000" fill-rule="nonzero" fill-opacity="1" /><path clip-path="url(#clip330)" d="M1033.26 65.7705 L1033.26 89.8329 L1025.77 89.8329 L1025.77 27.2059 L1033.26 27.2059 L1033.26 34.0924 Q1035.61 30.0415 1039.18 28.0971 Q1042.78 26.1121 1047.76 26.1121 Q1056.03 26.1121 1061.17 32.6746 Q1066.36 39.2371 1066.36 49.9314 Q1066.36 60.6258 1061.17 67.1883 Q1056.03 73.7508 1047.76 73.7508 Q1042.78 73.7508 1039.18 71.8063 Q1035.61 69.8214 1033.26 65.7705 M1058.62 49.9314 Q1058.62 41.7081 1055.22 37.0496 Q1051.86 32.3505 1045.94 32.3505 Q1040.03 32.3505 1036.62 37.0496 Q1033.26 41.7081 1033.26 49.9314 Q1033.26 58.1548 1036.62 62.8538 Q1040.03 67.5124 1045.94 67.5124 Q1051.86 67.5124 1055.22 62.8538 Q1058.62 58.1548 1058.62 49.9314 Z" fill="#000000" fill-rule="nonzero" fill-opacity="1" /><path clip-path="url(#clip330)" d="M1078.71 9.54393 L1086.17 9.54393 L1086.17 72.576 L1078.71 72.576 L1078.71 9.54393 Z" fill="#000000" fill-rule="nonzero" fill-opacity="1" /><path clip-path="url(#clip330)" d="M1122.38 49.7694 Q1113.35 49.7694 1109.87 51.8354 Q1106.38 53.9013 1106.38 58.8839 Q1106.38 62.8538 1108.97 65.2034 Q1111.61 67.5124 1116.1 67.5124 Q1122.3 67.5124 1126.03 63.1374 Q1129.8 58.7219 1129.8 51.4303 L1129.8 49.7694 L1122.38 49.7694 M1137.25 46.6907 L1137.25 72.576 L1129.8 72.576 L1129.8 65.6895 Q1127.24 69.8214 1123.44 71.8063 Q1119.63 73.7508 1114.12 73.7508 Q1107.15 73.7508 1103.02 69.8619 Q1098.93 65.9325 1098.93 59.3701 Q1098.93 51.7138 1104.03 47.825 Q1109.18 43.9361 1119.34 43.9361 L1129.8 43.9361 L1129.8 43.2069 Q1129.8 38.0623 1126.39 35.2672 Q1123.03 32.4315 1116.91 32.4315 Q1113.02 32.4315 1109.34 33.3632 Q1105.65 34.295 1102.25 36.1584 L1102.25 29.2718 Q1106.34 27.692 1110.19 26.9223 Q1114.04 26.1121 1117.68 26.1121 Q1127.53 26.1121 1132.39 31.2163 Q1137.25 36.3204 1137.25 46.6907 Z" fill="#000000" fill-rule="nonzero" fill-opacity="1" /><path clip-path="url(#clip330)" d="M1185.25 28.9478 L1185.25 35.9153 Q1182.09 34.1734 1178.89 33.3227 Q1175.73 32.4315 1172.49 32.4315 Q1165.24 32.4315 1161.23 37.0496 Q1157.22 41.6271 1157.22 49.9314 Q1157.22 58.2358 1161.23 62.8538 Q1165.24 67.4314 1172.49 67.4314 Q1175.73 67.4314 1178.89 66.5807 Q1182.09 65.6895 1185.25 63.9476 L1185.25 70.8341 Q1182.13 72.2924 1178.77 73.0216 Q1175.45 73.7508 1171.68 73.7508 Q1161.43 73.7508 1155.4 67.3098 Q1149.36 60.8689 1149.36 49.9314 Q1149.36 38.832 1155.44 32.472 Q1161.55 26.1121 1172.17 26.1121 Q1175.61 26.1121 1178.89 26.8413 Q1182.17 27.5299 1185.25 28.9478 Z" fill="#000000" fill-rule="nonzero" fill-opacity="1" /><path clip-path="url(#clip330)" d="M1237.02 48.0275 L1237.02 51.6733 L1202.75 51.6733 Q1203.24 59.3701 1207.37 63.421 Q1211.54 67.4314 1218.96 67.4314 Q1223.25 67.4314 1227.26 66.3781 Q1231.31 65.3249 1235.28 63.2184 L1235.28 70.267 Q1231.27 71.9684 1227.06 72.8596 Q1222.84 73.7508 1218.51 73.7508 Q1207.65 73.7508 1201.29 67.4314 Q1194.97 61.1119 1194.97 50.3365 Q1194.97 39.1965 1200.97 32.6746 Q1207.01 26.1121 1217.21 26.1121 Q1226.37 26.1121 1231.68 32.0264 Q1237.02 37.9003 1237.02 48.0275 M1229.57 45.84 Q1229.49 39.7232 1226.13 36.0774 Q1222.8 32.4315 1217.3 32.4315 Q1211.06 32.4315 1207.29 35.9558 Q1203.56 39.4801 1203 45.8805 L1229.57 45.84 Z" fill="#000000" fill-rule="nonzero" fill-opacity="1" /><path clip-path="url(#clip330)" d="M1267.16 9.62495 Q1261.73 18.942 1259.1 28.0566 Q1256.47 37.1711 1256.47 46.5287 Q1256.47 55.8863 1259.1 65.0818 Q1261.77 74.2369 1267.16 83.5134 L1260.68 83.5134 Q1254.6 73.9938 1251.57 64.7983 Q1248.57 55.6027 1248.57 46.5287 Q1248.57 37.4952 1251.57 28.3401 Q1254.56 19.1851 1260.68 9.62495 L1267.16 9.62495 Z" fill="#000000" fill-rule="nonzero" fill-opacity="1" /><path clip-path="url(#clip330)" d="M1280.85 89.8329 L1280.85 27.2059 L1288.31 27.2059 L1288.31 55.4002 Q1288.31 61.274 1291.1 64.2716 Q1293.9 67.2693 1299.37 67.2693 Q1305.36 67.2693 1308.36 63.8666 Q1311.4 60.4638 1311.4 53.6583 L1311.4 27.2059 L1318.85 27.2059 L1318.85 62.1247 Q1318.85 64.5552 1319.54 65.73 Q1320.27 66.8642 1321.77 66.8642 Q1322.13 66.8642 1322.78 66.6617 Q1323.43 66.4186 1324.56 65.9325 L1324.56 71.9279 Q1322.9 72.8596 1321.4 73.3052 Q1319.95 73.7508 1318.53 73.7508 Q1315.73 73.7508 1314.07 72.1709 Q1312.41 70.5911 1311.8 67.3503 Q1309.78 70.5505 1306.82 72.1709 Q1303.9 73.7508 1299.93 73.7508 Q1295.8 73.7508 1292.89 72.1709 Q1290.01 70.5911 1288.31 67.4314 L1288.31 89.8329 L1280.85 89.8329 Z" fill="#000000" fill-rule="nonzero" fill-opacity="1" /><path clip-path="url(#clip330)" d="M1335.38 34.9026 L1387.31 34.9026 L1387.31 41.7081 L1335.38 41.7081 L1335.38 34.9026 M1335.38 51.4303 L1387.31 51.4303 L1387.31 58.3168 L1335.38 58.3168 L1335.38 51.4303 Z" fill="#000000" fill-rule="nonzero" fill-opacity="1" /><path clip-path="url(#clip330)" d="M1422.47 17.4837 Q1416.15 17.4837 1412.95 23.7221 Q1409.79 29.92 1409.79 42.3968 Q1409.79 54.833 1412.95 61.0714 Q1416.15 67.2693 1422.47 67.2693 Q1428.83 67.2693 1431.99 61.0714 Q1435.19 54.833 1435.19 42.3968 Q1435.19 29.92 1431.99 23.7221 Q1428.83 17.4837 1422.47 17.4837 M1422.47 11.0023 Q1432.64 11.0023 1437.99 19.0636 Q1443.38 27.0843 1443.38 42.3968 Q1443.38 57.6687 1437.99 65.73 Q1432.64 73.7508 1422.47 73.7508 Q1412.31 73.7508 1406.92 65.73 Q1401.57 57.6687 1401.57 42.3968 Q1401.57 27.0843 1406.92 19.0636 Q1412.31 11.0023 1422.47 11.0023 Z" fill="#000000" fill-rule="nonzero" fill-opacity="1" /><path clip-path="url(#clip330)" d="M1457.76 62.2867 L1466.3 62.2867 L1466.3 72.576 L1457.76 72.576 L1457.76 62.2867 Z" fill="#000000" fill-rule="nonzero" fill-opacity="1" /><path clip-path="url(#clip330)" d="M1501.63 17.4837 Q1495.31 17.4837 1492.11 23.7221 Q1488.95 29.92 1488.95 42.3968 Q1488.95 54.833 1492.11 61.0714 Q1495.31 67.2693 1501.63 67.2693 Q1507.99 67.2693 1511.15 61.0714 Q1514.35 54.833 1514.35 42.3968 Q1514.35 29.92 1511.15 23.7221 Q1507.99 17.4837 1501.63 17.4837 M1501.63 11.0023 Q1511.8 11.0023 1517.14 19.0636 Q1522.53 27.0843 1522.53 42.3968 Q1522.53 57.6687 1517.14 65.73 Q1511.8 73.7508 1501.63 73.7508 Q1491.46 73.7508 1486.07 65.73 Q1480.73 57.6687 1480.73 42.3968 Q1480.73 27.0843 1486.07 19.0636 Q1491.46 11.0023 1501.63 11.0023 Z" fill="#000000" fill-rule="nonzero" fill-opacity="1" /><path clip-path="url(#clip330)" d="M1537.76 62.2867 L1546.31 62.2867 L1546.31 69.2543 L1539.67 82.2172 L1534.44 82.2172 L1537.76 69.2543 L1537.76 62.2867 Z" fill="#000000" fill-rule="nonzero" fill-opacity="1" /><path clip-path="url(#clip330)" d="M1621.17 49.9314 Q1621.17 41.7081 1617.77 37.0496 Q1614.41 32.3505 1608.49 32.3505 Q1602.58 32.3505 1599.17 37.0496 Q1595.81 41.7081 1595.81 49.9314 Q1595.81 58.1548 1599.17 62.8538 Q1602.58 67.5124 1608.49 67.5124 Q1614.41 67.5124 1617.77 62.8538 Q1621.17 58.1548 1621.17 49.9314 M1595.81 34.0924 Q1598.16 30.0415 1601.73 28.0971 Q1605.33 26.1121 1610.31 26.1121 Q1618.58 26.1121 1623.72 32.6746 Q1628.91 39.2371 1628.91 49.9314 Q1628.91 60.6258 1623.72 67.1883 Q1618.58 73.7508 1610.31 73.7508 Q1605.33 73.7508 1601.73 71.8063 Q1598.16 69.8214 1595.81 65.7705 L1595.81 72.576 L1588.32 72.576 L1588.32 9.54393 L1595.81 9.54393 L1595.81 34.0924 Z" fill="#000000" fill-rule="nonzero" fill-opacity="1" /><path clip-path="url(#clip330)" d="M1642.24 34.9026 L1694.17 34.9026 L1694.17 41.7081 L1642.24 41.7081 L1642.24 34.9026 M1642.24 51.4303 L1694.17 51.4303 L1694.17 58.3168 L1642.24 58.3168 L1642.24 51.4303 Z" fill="#000000" fill-rule="nonzero" fill-opacity="1" /><path clip-path="url(#clip330)" d="M1713.25 65.6895 L1726.62 65.6895 L1726.62 19.5497 L1712.07 22.4663 L1712.07 15.0127 L1726.53 12.096 L1734.72 12.096 L1734.72 65.6895 L1748.09 65.6895 L1748.09 72.576 L1713.25 72.576 L1713.25 65.6895 Z" fill="#000000" fill-rule="nonzero" fill-opacity="1" /><path clip-path="url(#clip330)" d="M1764.61 62.2867 L1773.16 62.2867 L1773.16 72.576 L1764.61 72.576 L1764.61 62.2867 Z" fill="#000000" fill-rule="nonzero" fill-opacity="1" /><path clip-path="url(#clip330)" d="M1808.48 17.4837 Q1802.16 17.4837 1798.96 23.7221 Q1795.8 29.92 1795.8 42.3968 Q1795.8 54.833 1798.96 61.0714 Q1802.16 67.2693 1808.48 67.2693 Q1814.84 67.2693 1818 61.0714 Q1821.2 54.833 1821.2 42.3968 Q1821.2 29.92 1818 23.7221 Q1814.84 17.4837 1808.48 17.4837 M1808.48 11.0023 Q1818.65 11.0023 1824 19.0636 Q1829.39 27.0843 1829.39 42.3968 Q1829.39 57.6687 1824 65.73 Q1818.65 73.7508 1808.48 73.7508 Q1798.32 73.7508 1792.93 65.73 Q1787.58 57.6687 1787.58 42.3968 Q1787.58 27.0843 1792.93 19.0636 Q1798.32 11.0023 1808.48 11.0023 Z" fill="#000000" fill-rule="nonzero" fill-opacity="1" /><path clip-path="url(#clip330)" d="M1841.54 9.62495 L1848.02 9.62495 Q1854.1 19.1851 1857.1 28.3401 Q1860.13 37.4952 1860.13 46.5287 Q1860.13 55.6027 1857.1 64.7983 Q1854.1 73.9938 1848.02 83.5134 L1841.54 83.5134 Q1846.93 74.2369 1849.56 65.0818 Q1852.23 55.8863 1852.23 46.5287 Q1852.23 37.1711 1849.56 28.0566 Q1846.93 18.942 1841.54 9.62495 Z" fill="#000000" fill-rule="nonzero" fill-opacity="1" /><polyline clip-path="url(#clip332)" style="stroke:#009af9; stroke-linecap:round; stroke-linejoin:round; stroke-width:8; stroke-opacity:1; fill:none" points="309.067,1422.91 313.043,1421.82 317.02,1420.73 320.996,1419.63 324.972,1418.53 328.948,1417.43 332.925,1416.32 336.901,1415.2 340.877,1414.09 344.853,1412.96 348.83,1411.83 352.806,1410.7 356.782,1409.57 360.759,1408.42 364.735,1407.28 368.711,1406.13 372.687,1404.97 376.664,1403.81 380.64,1402.64 384.616,1401.47 388.593,1400.3 392.569,1399.12 396.545,1397.93 400.521,1396.74 404.498,1395.55 408.474,1394.35 412.45,1393.14 416.427,1391.93 420.403,1390.72 424.379,1389.5 428.355,1388.27 432.332,1387.04 436.308,1385.8 440.284,1384.56 444.26,1383.31 448.237,1382.06 452.213,1380.8 456.189,1379.54 460.166,1378.27 464.142,1377 468.118,1375.72 472.094,1374.43 476.071,1373.14 480.047,1371.84 484.023,1370.54 488,1369.23 491.976,1367.92 495.952,1366.6 499.928,1365.28 503.905,1363.94 507.881,1362.61 511.857,1361.26 515.834,1359.91 519.81,1358.56 523.786,1357.2 527.762,1355.83 531.739,1354.46 535.715,1353.08 539.691,1351.69 543.668,1350.3 547.644,1348.9 551.62,1347.49 555.596,1346.08 559.573,1344.66 563.549,1343.24 567.525,1341.81 571.501,1340.37 575.478,1338.93 579.454,1337.47 583.43,1336.02 587.407,1334.55 591.383,1333.08 595.359,1331.6 599.335,1330.12 603.312,1328.62 607.288,1327.13 611.264,1325.62 615.241,1324.11 619.217,1322.58 623.193,1321.06 627.169,1319.52 631.146,1317.98 635.122,1316.43 639.098,1314.87 643.075,1313.31 647.051,1311.73 651.027,1310.15 655.003,1308.57 658.98,1306.97 662.956,1305.37 666.932,1303.76 670.908,1302.14 674.885,1300.51 678.861,1298.87 682.837,1297.23 686.814,1295.58 690.79,1293.92 694.766,1292.25 698.742,1290.58 702.719,1288.89 706.695,1287.2 710.671,1285.5 714.648,1283.79 718.624,1282.07 722.6,1280.34 726.576,1278.61 730.553,1276.86 734.529,1275.11 738.505,1273.35 742.482,1271.58 746.458,1269.79 750.434,1268 754.41,1266.21 758.387,1264.4 762.363,1262.58 766.339,1260.75 770.316,1258.92 774.292,1257.07 778.268,1255.21 782.244,1253.35 786.221,1251.47 790.197,1249.59 794.173,1247.69 798.149,1245.78 802.126,1243.87 806.102,1241.94 810.078,1240.01 814.055,1238.06 818.031,1236.1 822.007,1234.13 825.983,1232.15 829.96,1230.17 833.936,1228.16 837.912,1226.15 841.889,1224.13 845.865,1222.1 849.841,1220.05 853.817,1218 857.794,1215.93 861.77,1213.85 865.746,1211.76 869.723,1209.66 873.699,1207.55 877.675,1205.42 881.651,1203.28 885.628,1201.14 889.604,1198.97 893.58,1196.8 897.556,1194.61 901.533,1192.41 905.509,1190.2 909.485,1187.98 913.462,1185.74 917.438,1183.49 921.414,1181.23 925.39,1178.95 929.367,1176.66 933.343,1174.36 937.319,1172.05 941.296,1169.72 945.272,1167.37 949.248,1165.02 953.224,1162.64 957.201,1160.26 961.177,1157.86 965.153,1155.45 969.13,1153.02 973.106,1150.57 977.082,1148.12 981.058,1145.64 985.035,1143.16 989.011,1140.65 992.987,1138.13 996.964,1135.6 1000.94,1133.05 1004.92,1130.49 1008.89,1127.91 1012.87,1125.31 1016.84,1122.7 1020.82,1120.07 1024.8,1117.42 1028.77,1114.76 1032.75,1112.08 1036.73,1109.38 1040.7,1106.67 1044.68,1103.94 1048.66,1101.19 1052.63,1098.43 1056.61,1095.64 1060.58,1092.84 1064.56,1090.02 1068.54,1087.19 1072.51,1084.33 1076.49,1081.45 1080.47,1078.56 1084.44,1075.65 1088.42,1072.72 1092.39,1069.76 1096.37,1066.79 1100.35,1063.8 1104.32,1060.79 1108.3,1057.76 1112.28,1054.71 1116.25,1051.64 1120.23,1048.55 1124.2,1045.43 1128.18,1042.3 1132.16,1039.14 1136.13,1035.96 1140.11,1032.76 1144.09,1029.54 1148.06,1026.3 1152.04,1023.03 1156.01,1019.74 1159.99,1016.43 1163.97,1013.09 1167.94,1009.73 1171.92,1006.35 1175.9,1002.94 1179.87,999.509 1183.85,996.053 1187.82,992.571 1191.8,989.065 1195.78,985.533 1199.75,981.976 1203.73,978.392 1207.71,974.783 1211.68,971.147 1215.66,967.484 1219.64,963.794 1223.61,960.076 1227.59,956.331 1231.56,952.558 1235.54,948.756 1239.52,944.926 1243.49,941.067 1247.47,937.178 1251.45,933.26 1255.42,929.312 1259.4,925.333 1263.37,921.324 1267.35,917.284 1271.33,913.212 1275.3,909.108 1279.28,904.973 1283.26,900.805 1287.23,896.604 1291.21,892.369 1295.18,888.101 1299.16,883.799 1303.14,883.799 1307.11,888.101 1311.09,892.369 1315.07,896.604 1319.04,900.805 1323.02,904.973 1326.99,909.108 1330.97,913.212 1334.95,917.284 1338.92,921.324 1342.9,925.333 1346.88,929.312 1350.85,933.26 1354.83,937.178 1358.81,941.067 1362.78,944.926 1366.76,948.756 1370.73,952.558 1374.71,956.331 1378.69,960.076 1382.66,963.794 1386.64,967.484 1390.62,971.147 1394.59,974.783 1398.57,978.392 1402.54,981.976 1406.52,985.533 1410.5,989.065 1414.47,992.571 1418.45,996.053 1422.43,999.509 1426.4,1002.94 1430.38,1006.35 1434.35,1009.73 1438.33,1013.09 1442.31,1016.43 1446.28,1019.74 1450.26,1023.03 1454.24,1026.3 1458.21,1029.54 1462.19,1032.76 1466.16,1035.96 1470.14,1039.14 1474.12,1042.3 1478.09,1045.43 1482.07,1048.55 1486.05,1051.64 1490.02,1054.71 1494,1057.76 1497.97,1060.79 1501.95,1063.8 1505.93,1066.79 1509.9,1069.76 1513.88,1072.72 1517.86,1075.65 1521.83,1078.56 1525.81,1081.45 1529.79,1084.33 1533.76,1087.19 1537.74,1090.02 1541.71,1092.84 1545.69,1095.64 1549.67,1098.43 1553.64,1101.19 1557.62,1103.94 1561.6,1106.67 1565.57,1109.38 1569.55,1112.08 1573.52,1114.76 1577.5,1117.42 1581.48,1120.07 1585.45,1122.7 1589.43,1125.31 1593.41,1127.91 1597.38,1130.49 1601.36,1133.05 1605.33,1135.6 1609.31,1138.13 1613.29,1140.65 1617.26,1143.16 1621.24,1145.64 1625.22,1148.12 1629.19,1150.57 1633.17,1153.02 1637.14,1155.45 1641.12,1157.86 1645.1,1160.26 1649.07,1162.64 1653.05,1165.02 1657.03,1167.37 1661,1169.72 1664.98,1172.05 1668.95,1174.36 1672.93,1176.66 1676.91,1178.95 1680.88,1181.23 1684.86,1183.49 1688.84,1185.74 1692.81,1187.98 1696.79,1190.2 1700.77,1192.41 1704.74,1194.61 1708.72,1196.8 1712.69,1198.97 1716.67,1201.14 1720.65,1203.28 1724.62,1205.42 1728.6,1207.55 1732.58,1209.66 1736.55,1211.76 1740.53,1213.85 1744.5,1215.93 1748.48,1218 1752.46,1220.05 1756.43,1222.1 1760.41,1224.13 1764.39,1226.15 1768.36,1228.16 1772.34,1230.17 1776.31,1232.15 1780.29,1234.13 1784.27,1236.1 1788.24,1238.06 1792.22,1240.01 1796.2,1241.94 1800.17,1243.87 1804.15,1245.78 1808.12,1247.69 1812.1,1249.59 1816.08,1251.47 1820.05,1253.35 1824.03,1255.21 1828.01,1257.07 1831.98,1258.92 1835.96,1260.75 1839.93,1262.58 1843.91,1264.4 1847.89,1266.21 1851.86,1268 1855.84,1269.79 1859.82,1271.58 1863.79,1273.35 1867.77,1275.11 1871.75,1276.86 1875.72,1278.61 1879.7,1280.34 1883.67,1282.07 1887.65,1283.79 1891.63,1285.5 1895.6,1287.2 1899.58,1288.89 1903.56,1290.58 1907.53,1292.25 1911.51,1293.92 1915.48,1295.58 1919.46,1297.23 1923.44,1298.87 1927.41,1300.51 1931.39,1302.14 1935.37,1303.76 1939.34,1305.37 1943.32,1306.97 1947.29,1308.57 1951.27,1310.15 1955.25,1311.73 1959.22,1313.31 1963.2,1314.87 1967.18,1316.43 1971.15,1317.98 1975.13,1319.52 1979.1,1321.06 1983.08,1322.58 1987.06,1324.11 1991.03,1325.62 1995.01,1327.13 1998.99,1328.62 2002.96,1330.12 2006.94,1331.6 2010.92,1333.08 2014.89,1334.55 2018.87,1336.02 2022.84,1337.47 2026.82,1338.93 2030.8,1340.37 2034.77,1341.81 2038.75,1343.24 2042.73,1344.66 2046.7,1346.08 2050.68,1347.49 2054.65,1348.9 2058.63,1350.3 2062.61,1351.69 2066.58,1353.08 2070.56,1354.46 2074.54,1355.83 2078.51,1357.2 2082.49,1358.56 2086.46,1359.91 2090.44,1361.26 2094.42,1362.61 2098.39,1363.94 2102.37,1365.28 2106.35,1366.6 2110.32,1367.92 2114.3,1369.23 2118.27,1370.54 2122.25,1371.84 2126.23,1373.14 2130.2,1374.43 2134.18,1375.72 2138.16,1377 2142.13,1378.27 2146.11,1379.54 2150.08,1380.8 2154.06,1382.06 2158.04,1383.31 2162.01,1384.56 2165.99,1385.8 2169.97,1387.04 2173.94,1388.27 2177.92,1389.5 2181.9,1390.72 2185.87,1391.93 2189.85,1393.14 2193.82,1394.35 2197.8,1395.55 2201.78,1396.74 2205.75,1397.93 2209.73,1399.12 2213.71,1400.3 2217.68,1401.47 2221.66,1402.64 2225.63,1403.81 2229.61,1404.97 2233.59,1406.13 2237.56,1407.28 2241.54,1408.42 2245.52,1409.57 2249.49,1410.7 2253.47,1411.83 2257.44,1412.96 2261.42,1414.09 2265.4,1415.2 2269.37,1416.32 2273.35,1417.43 2277.33,1418.53 2281.3,1419.63 2285.28,1420.73 2289.25,1421.82 2293.23,1422.91 "/>
</svg>
