<?xml version="1.0" encoding="utf-8"?>
<svg xmlns="http://www.w3.org/2000/svg" xmlns:xlink="http://www.w3.org/1999/xlink" width="600" height="400" viewBox="0 0 2400 1600">
<defs>
  <clipPath id="clip860">
    <rect x="0" y="0" width="2400" height="1600"/>
  </clipPath>
</defs>
<path clip-path="url(#clip860)" d="M0 1600 L2400 1600 L2400 0 L0 0  Z" fill="#ffffff" fill-rule="evenodd" fill-opacity="1"/>
<defs>
  <clipPath id="clip861">
    <rect x="480" y="0" width="1681" height="1600"/>
  </clipPath>
</defs>
<path clip-path="url(#clip860)" d="M251.842 1423.18 L2352.76 1423.18 L2352.76 123.472 L251.842 123.472  Z" fill="#ffffff" fill-rule="evenodd" fill-opacity="1"/>
<defs>
  <clipPath id="clip862">
    <rect x="251" y="123" width="2102" height="1301"/>
  </clipPath>
</defs>
<polyline clip-path="url(#clip862)" style="stroke:#000000; stroke-linecap:round; stroke-linejoin:round; stroke-width:2; stroke-opacity:0.1; fill:none" points="301.342,1423.18 301.342,123.472 "/>
<polyline clip-path="url(#clip862)" style="stroke:#000000; stroke-linecap:round; stroke-linejoin:round; stroke-width:2; stroke-opacity:0.1; fill:none" points="799.331,1423.18 799.331,123.472 "/>
<polyline clip-path="url(#clip862)" style="stroke:#000000; stroke-linecap:round; stroke-linejoin:round; stroke-width:2; stroke-opacity:0.1; fill:none" points="1297.32,1423.18 1297.32,123.472 "/>
<polyline clip-path="url(#clip862)" style="stroke:#000000; stroke-linecap:round; stroke-linejoin:round; stroke-width:2; stroke-opacity:0.1; fill:none" points="1795.31,1423.18 1795.31,123.472 "/>
<polyline clip-path="url(#clip862)" style="stroke:#000000; stroke-linecap:round; stroke-linejoin:round; stroke-width:2; stroke-opacity:0.1; fill:none" points="2293.3,1423.18 2293.3,123.472 "/>
<polyline clip-path="url(#clip860)" style="stroke:#000000; stroke-linecap:round; stroke-linejoin:round; stroke-width:4; stroke-opacity:1; fill:none" points="251.842,1423.18 2352.76,1423.18 "/>
<polyline clip-path="url(#clip860)" style="stroke:#000000; stroke-linecap:round; stroke-linejoin:round; stroke-width:4; stroke-opacity:1; fill:none" points="301.342,1423.18 301.342,1404.28 "/>
<polyline clip-path="url(#clip860)" style="stroke:#000000; stroke-linecap:round; stroke-linejoin:round; stroke-width:4; stroke-opacity:1; fill:none" points="799.331,1423.18 799.331,1404.28 "/>
<polyline clip-path="url(#clip860)" style="stroke:#000000; stroke-linecap:round; stroke-linejoin:round; stroke-width:4; stroke-opacity:1; fill:none" points="1297.32,1423.18 1297.32,1404.28 "/>
<polyline clip-path="url(#clip860)" style="stroke:#000000; stroke-linecap:round; stroke-linejoin:round; stroke-width:4; stroke-opacity:1; fill:none" points="1795.31,1423.18 1795.31,1404.28 "/>
<polyline clip-path="url(#clip860)" style="stroke:#000000; stroke-linecap:round; stroke-linejoin:round; stroke-width:4; stroke-opacity:1; fill:none" points="2293.3,1423.18 2293.3,1404.28 "/>
<path clip-path="url(#clip860)" d="M301.342 1454.1 Q297.731 1454.1 295.903 1457.66 Q294.097 1461.2 294.097 1468.33 Q294.097 1475.44 295.903 1479.01 Q297.731 1482.55 301.342 1482.55 Q304.977 1482.55 306.782 1479.01 Q308.611 1475.44 308.611 1468.33 Q308.611 1461.2 306.782 1457.66 Q304.977 1454.1 301.342 1454.1 M301.342 1450.39 Q307.153 1450.39 310.208 1455 Q313.287 1459.58 313.287 1468.33 Q313.287 1477.06 310.208 1481.67 Q307.153 1486.25 301.342 1486.25 Q295.532 1486.25 292.454 1481.67 Q289.398 1477.06 289.398 1468.33 Q289.398 1459.58 292.454 1455 Q295.532 1450.39 301.342 1450.39 Z" fill="#000000" fill-rule="nonzero" fill-opacity="1" /><path clip-path="url(#clip860)" d="M763.023 1481.64 L779.343 1481.64 L779.343 1485.58 L757.398 1485.58 L757.398 1481.64 Q760.06 1478.89 764.644 1474.26 Q769.25 1469.61 770.431 1468.27 Q772.676 1465.74 773.556 1464.01 Q774.458 1462.25 774.458 1460.56 Q774.458 1457.8 772.514 1456.07 Q770.593 1454.33 767.491 1454.33 Q765.292 1454.33 762.838 1455.09 Q760.407 1455.86 757.63 1457.41 L757.63 1452.69 Q760.454 1451.55 762.907 1450.97 Q765.361 1450.39 767.398 1450.39 Q772.768 1450.39 775.963 1453.08 Q779.157 1455.77 779.157 1460.26 Q779.157 1462.39 778.347 1464.31 Q777.56 1466.2 775.454 1468.8 Q774.875 1469.47 771.773 1472.69 Q768.671 1475.88 763.023 1481.64 Z" fill="#000000" fill-rule="nonzero" fill-opacity="1" /><path clip-path="url(#clip860)" d="M789.204 1451.02 L807.56 1451.02 L807.56 1454.96 L793.486 1454.96 L793.486 1463.43 Q794.504 1463.08 795.523 1462.92 Q796.541 1462.73 797.56 1462.73 Q803.347 1462.73 806.727 1465.9 Q810.106 1469.08 810.106 1474.49 Q810.106 1480.07 806.634 1483.17 Q803.162 1486.25 796.842 1486.25 Q794.667 1486.25 792.398 1485.88 Q790.153 1485.51 787.745 1484.77 L787.745 1480.07 Q789.829 1481.2 792.051 1481.76 Q794.273 1482.32 796.75 1482.32 Q800.754 1482.32 803.092 1480.21 Q805.43 1478.1 805.43 1474.49 Q805.43 1470.88 803.092 1468.77 Q800.754 1466.67 796.75 1466.67 Q794.875 1466.67 793 1467.08 Q791.148 1467.5 789.204 1468.38 L789.204 1451.02 Z" fill="#000000" fill-rule="nonzero" fill-opacity="1" /><path clip-path="url(#clip860)" d="M829.319 1454.1 Q825.708 1454.1 823.879 1457.66 Q822.074 1461.2 822.074 1468.33 Q822.074 1475.44 823.879 1479.01 Q825.708 1482.55 829.319 1482.55 Q832.953 1482.55 834.759 1479.01 Q836.588 1475.44 836.588 1468.33 Q836.588 1461.2 834.759 1457.66 Q832.953 1454.1 829.319 1454.1 M829.319 1450.39 Q835.129 1450.39 838.185 1455 Q841.263 1459.58 841.263 1468.33 Q841.263 1477.06 838.185 1481.67 Q835.129 1486.25 829.319 1486.25 Q823.509 1486.25 820.43 1481.67 Q817.375 1477.06 817.375 1468.33 Q817.375 1459.58 820.43 1455 Q823.509 1450.39 829.319 1450.39 Z" fill="#000000" fill-rule="nonzero" fill-opacity="1" /><path clip-path="url(#clip860)" d="M1256.94 1451.02 L1275.29 1451.02 L1275.29 1454.96 L1261.22 1454.96 L1261.22 1463.43 Q1262.24 1463.08 1263.26 1462.92 Q1264.28 1462.73 1265.29 1462.73 Q1271.08 1462.73 1274.46 1465.9 Q1277.84 1469.08 1277.84 1474.49 Q1277.84 1480.07 1274.37 1483.17 Q1270.9 1486.25 1264.58 1486.25 Q1262.4 1486.25 1260.13 1485.88 Q1257.89 1485.51 1255.48 1484.77 L1255.48 1480.07 Q1257.56 1481.2 1259.78 1481.76 Q1262.01 1482.32 1264.48 1482.32 Q1268.49 1482.32 1270.83 1480.21 Q1273.16 1478.1 1273.16 1474.49 Q1273.16 1470.88 1270.83 1468.77 Q1268.49 1466.67 1264.48 1466.67 Q1262.61 1466.67 1260.73 1467.08 Q1258.88 1467.5 1256.94 1468.38 L1256.94 1451.02 Z" fill="#000000" fill-rule="nonzero" fill-opacity="1" /><path clip-path="url(#clip860)" d="M1297.05 1454.1 Q1293.44 1454.1 1291.61 1457.66 Q1289.81 1461.2 1289.81 1468.33 Q1289.81 1475.44 1291.61 1479.01 Q1293.44 1482.55 1297.05 1482.55 Q1300.69 1482.55 1302.49 1479.01 Q1304.32 1475.44 1304.32 1468.33 Q1304.32 1461.2 1302.49 1457.66 Q1300.69 1454.1 1297.05 1454.1 M1297.05 1450.39 Q1302.86 1450.39 1305.92 1455 Q1309 1459.58 1309 1468.33 Q1309 1477.06 1305.92 1481.67 Q1302.86 1486.25 1297.05 1486.25 Q1291.24 1486.25 1288.16 1481.67 Q1285.11 1477.06 1285.11 1468.33 Q1285.11 1459.58 1288.16 1455 Q1291.24 1450.39 1297.05 1450.39 Z" fill="#000000" fill-rule="nonzero" fill-opacity="1" /><path clip-path="url(#clip860)" d="M1327.21 1454.1 Q1323.6 1454.1 1321.78 1457.66 Q1319.97 1461.2 1319.97 1468.33 Q1319.97 1475.44 1321.78 1479.01 Q1323.6 1482.55 1327.21 1482.55 Q1330.85 1482.55 1332.65 1479.01 Q1334.48 1475.44 1334.48 1468.33 Q1334.48 1461.2 1332.65 1457.66 Q1330.85 1454.1 1327.21 1454.1 M1327.21 1450.39 Q1333.03 1450.39 1336.08 1455 Q1339.16 1459.58 1339.16 1468.33 Q1339.16 1477.06 1336.08 1481.67 Q1333.03 1486.25 1327.21 1486.25 Q1321.4 1486.25 1318.33 1481.67 Q1315.27 1477.06 1315.27 1468.33 Q1315.27 1459.58 1318.33 1455 Q1321.4 1450.39 1327.21 1450.39 Z" fill="#000000" fill-rule="nonzero" fill-opacity="1" /><path clip-path="url(#clip860)" d="M1753.58 1451.02 L1775.81 1451.02 L1775.81 1453.01 L1763.26 1485.58 L1758.37 1485.58 L1770.18 1454.96 L1753.58 1454.96 L1753.58 1451.02 Z" fill="#000000" fill-rule="nonzero" fill-opacity="1" /><path clip-path="url(#clip860)" d="M1784.97 1451.02 L1803.33 1451.02 L1803.33 1454.96 L1789.25 1454.96 L1789.25 1463.43 Q1790.27 1463.08 1791.29 1462.92 Q1792.31 1462.73 1793.33 1462.73 Q1799.12 1462.73 1802.5 1465.9 Q1805.87 1469.08 1805.87 1474.49 Q1805.87 1480.07 1802.4 1483.17 Q1798.93 1486.25 1792.61 1486.25 Q1790.44 1486.25 1788.17 1485.88 Q1785.92 1485.51 1783.51 1484.77 L1783.51 1480.07 Q1785.6 1481.2 1787.82 1481.76 Q1790.04 1482.32 1792.52 1482.32 Q1796.52 1482.32 1798.86 1480.21 Q1801.2 1478.1 1801.2 1474.49 Q1801.2 1470.88 1798.86 1468.77 Q1796.52 1466.67 1792.52 1466.67 Q1790.64 1466.67 1788.77 1467.08 Q1786.92 1467.5 1784.97 1468.38 L1784.97 1451.02 Z" fill="#000000" fill-rule="nonzero" fill-opacity="1" /><path clip-path="url(#clip860)" d="M1825.09 1454.1 Q1821.48 1454.1 1819.65 1457.66 Q1817.84 1461.2 1817.84 1468.33 Q1817.84 1475.44 1819.65 1479.01 Q1821.48 1482.55 1825.09 1482.55 Q1828.72 1482.55 1830.53 1479.01 Q1832.36 1475.44 1832.36 1468.33 Q1832.36 1461.2 1830.53 1457.66 Q1828.72 1454.1 1825.09 1454.1 M1825.09 1450.39 Q1830.9 1450.39 1833.95 1455 Q1837.03 1459.58 1837.03 1468.33 Q1837.03 1477.06 1833.95 1481.67 Q1830.9 1486.25 1825.09 1486.25 Q1819.28 1486.25 1816.2 1481.67 Q1813.14 1477.06 1813.14 1468.33 Q1813.14 1459.58 1816.2 1455 Q1819.28 1450.39 1825.09 1450.39 Z" fill="#000000" fill-rule="nonzero" fill-opacity="1" /><path clip-path="url(#clip860)" d="M2237.82 1481.64 L2245.46 1481.64 L2245.46 1455.28 L2237.15 1456.95 L2237.15 1452.69 L2245.41 1451.02 L2250.09 1451.02 L2250.09 1481.64 L2257.73 1481.64 L2257.73 1485.58 L2237.82 1485.58 L2237.82 1481.64 Z" fill="#000000" fill-rule="nonzero" fill-opacity="1" /><path clip-path="url(#clip860)" d="M2277.17 1454.1 Q2273.56 1454.1 2271.73 1457.66 Q2269.93 1461.2 2269.93 1468.33 Q2269.93 1475.44 2271.73 1479.01 Q2273.56 1482.55 2277.17 1482.55 Q2280.81 1482.55 2282.61 1479.01 Q2284.44 1475.44 2284.44 1468.33 Q2284.44 1461.2 2282.61 1457.66 Q2280.81 1454.1 2277.17 1454.1 M2277.17 1450.39 Q2282.98 1450.39 2286.04 1455 Q2289.12 1459.58 2289.12 1468.33 Q2289.12 1477.06 2286.04 1481.67 Q2282.98 1486.25 2277.17 1486.25 Q2271.36 1486.25 2268.28 1481.67 Q2265.23 1477.06 2265.23 1468.33 Q2265.23 1459.58 2268.28 1455 Q2271.36 1450.39 2277.17 1450.39 Z" fill="#000000" fill-rule="nonzero" fill-opacity="1" /><path clip-path="url(#clip860)" d="M2307.34 1454.1 Q2303.72 1454.1 2301.9 1457.66 Q2300.09 1461.2 2300.09 1468.33 Q2300.09 1475.44 2301.9 1479.01 Q2303.72 1482.55 2307.34 1482.55 Q2310.97 1482.55 2312.78 1479.01 Q2314.6 1475.44 2314.6 1468.33 Q2314.6 1461.2 2312.78 1457.66 Q2310.97 1454.1 2307.34 1454.1 M2307.34 1450.39 Q2313.15 1450.39 2316.2 1455 Q2319.28 1459.58 2319.28 1468.33 Q2319.28 1477.06 2316.2 1481.67 Q2313.15 1486.25 2307.34 1486.25 Q2301.53 1486.25 2298.45 1481.67 Q2295.39 1477.06 2295.39 1468.33 Q2295.39 1459.58 2298.45 1455 Q2301.53 1450.39 2307.34 1450.39 Z" fill="#000000" fill-rule="nonzero" fill-opacity="1" /><path clip-path="url(#clip860)" d="M2337.5 1454.1 Q2333.89 1454.1 2332.06 1457.66 Q2330.25 1461.2 2330.25 1468.33 Q2330.25 1475.44 2332.06 1479.01 Q2333.89 1482.55 2337.5 1482.55 Q2341.13 1482.55 2342.94 1479.01 Q2344.77 1475.44 2344.77 1468.33 Q2344.77 1461.2 2342.94 1457.66 Q2341.13 1454.1 2337.5 1454.1 M2337.5 1450.39 Q2343.31 1450.39 2346.36 1455 Q2349.44 1459.58 2349.44 1468.33 Q2349.44 1477.06 2346.36 1481.67 Q2343.31 1486.25 2337.5 1486.25 Q2331.69 1486.25 2328.61 1481.67 Q2325.55 1477.06 2325.55 1468.33 Q2325.55 1459.58 2328.61 1455 Q2331.69 1450.39 2337.5 1450.39 Z" fill="#000000" fill-rule="nonzero" fill-opacity="1" /><path clip-path="url(#clip860)" d="M1317.23 1546.53 L1317.23 1568.04 L1311.37 1568.04 L1311.37 1546.72 Q1311.37 1541.66 1309.4 1539.14 Q1307.42 1536.63 1303.48 1536.63 Q1298.73 1536.63 1296 1539.65 Q1293.26 1542.68 1293.26 1547.9 L1293.26 1568.04 L1287.37 1568.04 L1287.37 1532.4 L1293.26 1532.4 L1293.26 1537.93 Q1295.36 1534.72 1298.19 1533.13 Q1301.06 1531.54 1304.78 1531.54 Q1310.92 1531.54 1314.08 1535.36 Q1317.23 1539.14 1317.23 1546.53 Z" fill="#000000" fill-rule="nonzero" fill-opacity="1" /><polyline clip-path="url(#clip862)" style="stroke:#000000; stroke-linecap:round; stroke-linejoin:round; stroke-width:2; stroke-opacity:0.1; fill:none" points="251.842,1121.22 2352.76,1121.22 "/>
<polyline clip-path="url(#clip862)" style="stroke:#000000; stroke-linecap:round; stroke-linejoin:round; stroke-width:2; stroke-opacity:0.1; fill:none" points="251.842,693.223 2352.76,693.223 "/>
<polyline clip-path="url(#clip862)" style="stroke:#000000; stroke-linecap:round; stroke-linejoin:round; stroke-width:2; stroke-opacity:0.1; fill:none" points="251.842,265.229 2352.76,265.229 "/>
<polyline clip-path="url(#clip860)" style="stroke:#000000; stroke-linecap:round; stroke-linejoin:round; stroke-width:4; stroke-opacity:1; fill:none" points="251.842,1423.18 251.842,123.472 "/>
<polyline clip-path="url(#clip860)" style="stroke:#000000; stroke-linecap:round; stroke-linejoin:round; stroke-width:4; stroke-opacity:1; fill:none" points="251.842,1121.22 270.74,1121.22 "/>
<polyline clip-path="url(#clip860)" style="stroke:#000000; stroke-linecap:round; stroke-linejoin:round; stroke-width:4; stroke-opacity:1; fill:none" points="251.842,693.223 270.74,693.223 "/>
<polyline clip-path="url(#clip860)" style="stroke:#000000; stroke-linecap:round; stroke-linejoin:round; stroke-width:4; stroke-opacity:1; fill:none" points="251.842,265.229 270.74,265.229 "/>
<path clip-path="url(#clip860)" d="M114.931 1141.01 L122.57 1141.01 L122.57 1114.64 L114.26 1116.31 L114.26 1112.05 L122.524 1110.39 L127.2 1110.39 L127.2 1141.01 L134.839 1141.01 L134.839 1144.95 L114.931 1144.95 L114.931 1141.01 Z" fill="#000000" fill-rule="nonzero" fill-opacity="1" /><path clip-path="url(#clip860)" d="M154.283 1113.46 Q150.672 1113.46 148.843 1117.03 Q147.038 1120.57 147.038 1127.7 Q147.038 1134.81 148.843 1138.37 Q150.672 1141.91 154.283 1141.91 Q157.917 1141.91 159.723 1138.37 Q161.552 1134.81 161.552 1127.7 Q161.552 1120.57 159.723 1117.03 Q157.917 1113.46 154.283 1113.46 M154.283 1109.76 Q160.093 1109.76 163.149 1114.37 Q166.227 1118.95 166.227 1127.7 Q166.227 1136.43 163.149 1141.03 Q160.093 1145.62 154.283 1145.62 Q148.473 1145.62 145.394 1141.03 Q142.339 1136.43 142.339 1127.7 Q142.339 1118.95 145.394 1114.37 Q148.473 1109.76 154.283 1109.76 Z" fill="#000000" fill-rule="nonzero" fill-opacity="1" /><path clip-path="url(#clip860)" d="M166.227 1103.86 L190.339 1103.86 L190.339 1107.06 L166.227 1107.06 L166.227 1103.86 Z" fill="#000000" fill-rule="nonzero" fill-opacity="1" /><path clip-path="url(#clip860)" d="M210.05 1102.4 Q212.777 1102.98 214.3 1104.82 Q215.842 1106.66 215.842 1109.37 Q215.842 1113.53 212.984 1115.81 Q210.125 1118.08 204.859 1118.08 Q203.091 1118.08 201.21 1117.72 Q199.348 1117.38 197.354 1116.69 L197.354 1113.02 Q198.934 1113.94 200.815 1114.41 Q202.696 1114.88 204.746 1114.88 Q208.319 1114.88 210.181 1113.47 Q212.062 1112.06 212.062 1109.37 Q212.062 1106.89 210.313 1105.5 Q208.583 1104.09 205.479 1104.09 L202.207 1104.09 L202.207 1100.97 L205.63 1100.97 Q208.432 1100.97 209.918 1099.86 Q211.404 1098.73 211.404 1096.62 Q211.404 1094.46 209.861 1093.31 Q208.338 1092.14 205.479 1092.14 Q203.918 1092.14 202.132 1092.48 Q200.345 1092.82 198.201 1093.54 L198.201 1090.15 Q200.364 1089.55 202.244 1089.25 Q204.144 1088.95 205.818 1088.95 Q210.144 1088.95 212.664 1090.92 Q215.184 1092.88 215.184 1096.23 Q215.184 1098.56 213.849 1100.18 Q212.513 1101.77 210.05 1102.4 Z" fill="#000000" fill-rule="nonzero" fill-opacity="1" /><path clip-path="url(#clip860)" d="M115.703 713.016 L123.341 713.016 L123.341 686.65 L115.031 688.317 L115.031 684.058 L123.295 682.391 L127.971 682.391 L127.971 713.016 L135.61 713.016 L135.61 716.951 L115.703 716.951 L115.703 713.016 Z" fill="#000000" fill-rule="nonzero" fill-opacity="1" /><path clip-path="url(#clip860)" d="M155.054 685.47 Q151.443 685.47 149.614 689.035 Q147.809 692.576 147.809 699.706 Q147.809 706.812 149.614 710.377 Q151.443 713.919 155.054 713.919 Q158.688 713.919 160.494 710.377 Q162.323 706.812 162.323 699.706 Q162.323 692.576 160.494 689.035 Q158.688 685.47 155.054 685.47 M155.054 681.766 Q160.864 681.766 163.92 686.373 Q166.999 690.956 166.999 699.706 Q166.999 708.433 163.92 713.039 Q160.864 717.622 155.054 717.622 Q149.244 717.622 146.165 713.039 Q143.11 708.433 143.11 699.706 Q143.11 690.956 146.165 686.373 Q149.244 681.766 155.054 681.766 Z" fill="#000000" fill-rule="nonzero" fill-opacity="1" /><path clip-path="url(#clip860)" d="M166.999 675.867 L191.11 675.867 L191.11 679.065 L166.999 679.065 L166.999 675.867 Z" fill="#000000" fill-rule="nonzero" fill-opacity="1" /><path clip-path="url(#clip860)" d="M202.583 686.343 L215.842 686.343 L215.842 689.541 L198.013 689.541 L198.013 686.343 Q200.175 684.105 203.899 680.344 Q207.642 676.563 208.601 675.472 Q210.426 673.422 211.14 672.012 Q211.874 670.582 211.874 669.209 Q211.874 666.971 210.294 665.561 Q208.733 664.15 206.213 664.15 Q204.426 664.15 202.432 664.771 Q200.458 665.391 198.201 666.652 L198.201 662.815 Q200.495 661.893 202.489 661.423 Q204.482 660.953 206.138 660.953 Q210.501 660.953 213.096 663.135 Q215.692 665.316 215.692 668.965 Q215.692 670.695 215.034 672.256 Q214.394 673.799 212.683 675.905 Q212.212 676.45 209.692 679.065 Q207.172 681.66 202.583 686.343 Z" fill="#000000" fill-rule="nonzero" fill-opacity="1" /><path clip-path="url(#clip860)" d="M115.402 285.021 L123.04 285.021 L123.04 258.656 L114.73 260.322 L114.73 256.063 L122.994 254.396 L127.67 254.396 L127.67 285.021 L135.309 285.021 L135.309 288.956 L115.402 288.956 L115.402 285.021 Z" fill="#000000" fill-rule="nonzero" fill-opacity="1" /><path clip-path="url(#clip860)" d="M154.753 257.475 Q151.142 257.475 149.313 261.04 Q147.508 264.582 147.508 271.711 Q147.508 278.818 149.313 282.382 Q151.142 285.924 154.753 285.924 Q158.388 285.924 160.193 282.382 Q162.022 278.818 162.022 271.711 Q162.022 264.582 160.193 261.04 Q158.388 257.475 154.753 257.475 M154.753 253.771 Q160.563 253.771 163.619 258.378 Q166.698 262.961 166.698 271.711 Q166.698 280.438 163.619 285.044 Q160.563 289.628 154.753 289.628 Q148.943 289.628 145.864 285.044 Q142.809 280.438 142.809 271.711 Q142.809 262.961 145.864 258.378 Q148.943 253.771 154.753 253.771 Z" fill="#000000" fill-rule="nonzero" fill-opacity="1" /><path clip-path="url(#clip860)" d="M166.698 247.873 L190.809 247.873 L190.809 251.07 L166.698 251.07 L166.698 247.873 Z" fill="#000000" fill-rule="nonzero" fill-opacity="1" /><path clip-path="url(#clip860)" d="M199.668 258.349 L205.874 258.349 L205.874 236.927 L199.122 238.281 L199.122 234.82 L205.837 233.466 L209.636 233.466 L209.636 258.349 L215.842 258.349 L215.842 261.546 L199.668 261.546 L199.668 258.349 Z" fill="#000000" fill-rule="nonzero" fill-opacity="1" /><path clip-path="url(#clip860)" d="M16.4842 934.904 L16.4842 894.704 L21.895 894.704 L21.895 911.573 L64.0042 911.573 L64.0042 918.034 L21.895 918.034 L21.895 934.904 L16.4842 934.904 Z" fill="#000000" fill-rule="nonzero" fill-opacity="1" /><path clip-path="url(#clip860)" d="M28.3562 890.757 L28.3562 884.901 L64.0042 884.901 L64.0042 890.757 L28.3562 890.757 M14.479 890.757 L14.479 884.901 L21.895 884.901 L21.895 890.757 L14.479 890.757 Z" fill="#000000" fill-rule="nonzero" fill-opacity="1" /><path clip-path="url(#clip860)" d="M35.1993 844.892 Q31.2526 842.696 29.3747 839.641 Q27.4968 836.585 27.4968 832.447 Q27.4968 826.877 31.4117 823.854 Q35.2948 820.83 42.4881 820.83 L64.0042 820.83 L64.0042 826.718 L42.679 826.718 Q37.5546 826.718 35.072 828.533 Q32.5894 830.347 32.5894 834.071 Q32.5894 838.622 35.6131 841.264 Q38.6368 843.906 43.8567 843.906 L64.0042 843.906 L64.0042 849.794 L42.679 849.794 Q37.5228 849.794 35.072 851.608 Q32.5894 853.422 32.5894 857.21 Q32.5894 861.698 35.6449 864.34 Q38.6686 866.981 43.8567 866.981 L64.0042 866.981 L64.0042 872.87 L28.3562 872.87 L28.3562 866.981 L33.8944 866.981 Q30.616 864.976 29.0564 862.175 Q27.4968 859.374 27.4968 855.523 Q27.4968 851.64 29.4702 848.935 Q31.4436 846.197 35.1993 844.892 Z" fill="#000000" fill-rule="nonzero" fill-opacity="1" /><path clip-path="url(#clip860)" d="M44.7161 778.657 L47.5806 778.657 L47.5806 805.584 Q53.6281 805.202 56.8109 801.956 Q59.9619 798.677 59.9619 792.853 Q59.9619 789.479 59.1344 786.328 Q58.3069 783.145 56.6518 780.026 L62.1899 780.026 Q63.5267 783.177 64.227 786.487 Q64.9272 789.797 64.9272 793.203 Q64.9272 801.733 59.9619 806.73 Q54.9967 811.695 46.5303 811.695 Q37.7774 811.695 32.6531 806.985 Q27.4968 802.242 27.4968 794.221 Q27.4968 787.028 32.1438 782.859 Q36.7589 778.657 44.7161 778.657 M42.9973 784.514 Q38.1912 784.577 35.3266 787.219 Q32.4621 789.829 32.4621 794.158 Q32.4621 799.059 35.2312 802.019 Q38.0002 804.948 43.0292 805.393 L42.9973 784.514 Z" fill="#000000" fill-rule="nonzero" fill-opacity="1" /><path clip-path="url(#clip860)" d="M14.5426 734.256 Q21.8632 738.521 29.0246 740.59 Q36.186 742.659 43.5384 742.659 Q50.8908 742.659 58.1159 740.59 Q65.3091 738.49 72.5979 734.256 L72.5979 739.349 Q65.1182 744.123 57.8931 746.51 Q50.668 748.866 43.5384 748.866 Q36.4406 748.866 29.2474 746.51 Q22.0542 744.155 14.5426 739.349 L14.5426 734.256 Z" fill="#000000" fill-rule="nonzero" fill-opacity="1" /><path clip-path="url(#clip860)" d="M35.1993 695.139 Q31.2526 692.943 29.3747 689.887 Q27.4968 686.832 27.4968 682.694 Q27.4968 677.124 31.4117 674.101 Q35.2948 671.077 42.4881 671.077 L64.0042 671.077 L64.0042 676.965 L42.679 676.965 Q37.5546 676.965 35.072 678.779 Q32.5894 680.594 32.5894 684.317 Q32.5894 688.869 35.6131 691.511 Q38.6368 694.153 43.8567 694.153 L64.0042 694.153 L64.0042 700.041 L42.679 700.041 Q37.5228 700.041 35.072 701.855 Q32.5894 703.669 32.5894 707.457 Q32.5894 711.945 35.6449 714.586 Q38.6686 717.228 43.8567 717.228 L64.0042 717.228 L64.0042 723.116 L28.3562 723.116 L28.3562 717.228 L33.8944 717.228 Q30.616 715.223 29.0564 712.422 Q27.4968 709.621 27.4968 705.77 Q27.4968 701.887 29.4702 699.181 Q31.4436 696.444 35.1993 695.139 Z" fill="#000000" fill-rule="nonzero" fill-opacity="1" /><path clip-path="url(#clip860)" d="M29.4065 636.67 L34.9447 636.67 Q33.6716 639.153 33.035 641.826 Q32.3984 644.5 32.3984 647.365 Q32.3984 651.725 33.7352 653.921 Q35.072 656.086 37.7456 656.086 Q39.7826 656.086 40.9603 654.526 Q42.1061 652.966 43.1565 648.256 L43.6021 646.251 Q44.9389 640.012 47.3897 637.402 Q49.8086 634.76 54.1691 634.76 Q59.1344 634.76 62.0308 638.707 Q64.9272 642.622 64.9272 649.497 Q64.9272 652.362 64.3543 655.481 Q63.8132 658.568 62.6992 662.006 L56.6518 662.006 Q58.3387 658.759 59.198 655.608 Q60.0256 652.457 60.0256 649.37 Q60.0256 645.232 58.6251 643.004 Q57.1929 640.776 54.6147 640.776 Q52.2276 640.776 50.9545 642.399 Q49.6813 643.991 48.5037 649.433 L48.0262 651.47 Q46.8804 656.913 44.5251 659.332 Q42.138 661.751 38.0002 661.751 Q32.9713 661.751 30.2341 658.186 Q27.4968 654.621 27.4968 648.065 Q27.4968 644.818 27.9743 641.954 Q28.4517 639.089 29.4065 636.67 Z" fill="#000000" fill-rule="nonzero" fill-opacity="1" /><path clip-path="url(#clip860)" d="M14.5426 626.358 L14.5426 621.265 Q22.0542 616.491 29.2474 614.136 Q36.4406 611.748 43.5384 611.748 Q50.668 611.748 57.8931 614.136 Q65.1182 616.491 72.5979 621.265 L72.5979 626.358 Q65.3091 622.125 58.1159 620.056 Q50.8908 617.955 43.5384 617.955 Q36.186 617.955 29.0246 620.056 Q21.8632 622.125 14.5426 626.358 Z" fill="#000000" fill-rule="nonzero" fill-opacity="1" /><path clip-path="url(#clip860)" d="M990.319 12.096 L1028.56 12.096 L1028.56 18.9825 L998.502 18.9825 L998.502 36.8875 L1027.3 36.8875 L1027.3 43.7741 L998.502 43.7741 L998.502 65.6895 L1029.29 65.6895 L1029.29 72.576 L990.319 72.576 L990.319 12.096 Z" fill="#000000" fill-rule="nonzero" fill-opacity="1" /><path clip-path="url(#clip860)" d="M1080.13 27.2059 L1063.72 49.2833 L1080.98 72.576 L1072.19 72.576 L1058.98 54.752 L1045.78 72.576 L1036.99 72.576 L1054.61 48.8377 L1038.48 27.2059 L1047.27 27.2059 L1059.31 43.369 L1071.34 27.2059 L1080.13 27.2059 Z" fill="#000000" fill-rule="nonzero" fill-opacity="1" /><path clip-path="url(#clip860)" d="M1127.77 48.0275 L1127.77 51.6733 L1093.5 51.6733 Q1093.98 59.3701 1098.11 63.421 Q1102.29 67.4314 1109.7 67.4314 Q1113.99 67.4314 1118 66.3781 Q1122.05 65.3249 1126.02 63.2184 L1126.02 70.267 Q1122.01 71.9684 1117.8 72.8596 Q1113.59 73.7508 1109.25 73.7508 Q1098.4 73.7508 1092.04 67.4314 Q1085.72 61.1119 1085.72 50.3365 Q1085.72 39.1965 1091.71 32.6746 Q1097.75 26.1121 1107.96 26.1121 Q1117.11 26.1121 1122.42 32.0264 Q1127.77 37.9003 1127.77 48.0275 M1120.31 45.84 Q1120.23 39.7232 1116.87 36.0774 Q1113.55 32.4315 1108.04 32.4315 Q1101.8 32.4315 1098.03 35.9558 Q1094.31 39.4801 1093.74 45.8805 L1120.31 45.84 Z" fill="#000000" fill-rule="nonzero" fill-opacity="1" /><path clip-path="url(#clip860)" d="M1172.65 28.9478 L1172.65 35.9153 Q1169.49 34.1734 1166.29 33.3227 Q1163.13 32.4315 1159.89 32.4315 Q1152.64 32.4315 1148.63 37.0496 Q1144.62 41.6271 1144.62 49.9314 Q1144.62 58.2358 1148.63 62.8538 Q1152.64 67.4314 1159.89 67.4314 Q1163.13 67.4314 1166.29 66.5807 Q1169.49 65.6895 1172.65 63.9476 L1172.65 70.8341 Q1169.53 72.2924 1166.17 73.0216 Q1162.85 73.7508 1159.08 73.7508 Q1148.83 73.7508 1142.79 67.3098 Q1136.76 60.8689 1136.76 49.9314 Q1136.76 38.832 1142.84 32.472 Q1148.95 26.1121 1159.57 26.1121 Q1163.01 26.1121 1166.29 26.8413 Q1169.57 27.5299 1172.65 28.9478 Z" fill="#000000" fill-rule="nonzero" fill-opacity="1" /><path clip-path="url(#clip860)" d="M1184.84 54.671 L1184.84 27.2059 L1192.3 27.2059 L1192.3 54.3874 Q1192.3 60.8284 1194.81 64.0691 Q1197.32 67.2693 1202.34 67.2693 Q1208.38 67.2693 1211.86 63.421 Q1215.39 59.5726 1215.39 52.9291 L1215.39 27.2059 L1222.84 27.2059 L1222.84 72.576 L1215.39 72.576 L1215.39 65.6084 Q1212.67 69.7404 1209.07 71.7658 Q1205.5 73.7508 1200.76 73.7508 Q1192.94 73.7508 1188.89 68.8897 Q1184.84 64.0286 1184.84 54.671 M1203.6 26.1121 L1203.6 26.1121 Z" fill="#000000" fill-rule="nonzero" fill-opacity="1" /><path clip-path="url(#clip860)" d="M1245.57 14.324 L1245.57 27.2059 L1260.92 27.2059 L1260.92 32.9987 L1245.57 32.9987 L1245.57 57.6282 Q1245.57 63.1779 1247.07 64.7578 Q1248.6 66.3376 1253.26 66.3376 L1260.92 66.3376 L1260.92 72.576 L1253.26 72.576 Q1244.63 72.576 1241.35 69.3758 Q1238.07 66.1351 1238.07 57.6282 L1238.07 32.9987 L1232.6 32.9987 L1232.6 27.2059 L1238.07 27.2059 L1238.07 14.324 L1245.57 14.324 Z" fill="#000000" fill-rule="nonzero" fill-opacity="1" /><path clip-path="url(#clip860)" d="M1270.72 27.2059 L1278.18 27.2059 L1278.18 72.576 L1270.72 72.576 L1270.72 27.2059 M1270.72 9.54393 L1278.18 9.54393 L1278.18 18.9825 L1270.72 18.9825 L1270.72 9.54393 Z" fill="#000000" fill-rule="nonzero" fill-opacity="1" /><path clip-path="url(#clip860)" d="M1311.35 32.4315 Q1305.36 32.4315 1301.87 37.1306 Q1298.39 41.7891 1298.39 49.9314 Q1298.39 58.0738 1301.83 62.7728 Q1305.32 67.4314 1311.35 67.4314 Q1317.31 67.4314 1320.79 62.7323 Q1324.28 58.0333 1324.28 49.9314 Q1324.28 41.8701 1320.79 37.1711 Q1317.31 32.4315 1311.35 32.4315 M1311.35 26.1121 Q1321.08 26.1121 1326.62 32.4315 Q1332.17 38.7509 1332.17 49.9314 Q1332.17 61.0714 1326.62 67.4314 Q1321.08 73.7508 1311.35 73.7508 Q1301.59 73.7508 1296.04 67.4314 Q1290.53 61.0714 1290.53 49.9314 Q1290.53 38.7509 1296.04 32.4315 Q1301.59 26.1121 1311.35 26.1121 Z" fill="#000000" fill-rule="nonzero" fill-opacity="1" /><path clip-path="url(#clip860)" d="M1382.24 45.1919 L1382.24 72.576 L1374.79 72.576 L1374.79 45.4349 Q1374.79 38.994 1372.28 35.7938 Q1369.77 32.5936 1364.74 32.5936 Q1358.71 32.5936 1355.22 36.4419 Q1351.74 40.2903 1351.74 46.9338 L1351.74 72.576 L1344.25 72.576 L1344.25 27.2059 L1351.74 27.2059 L1351.74 34.2544 Q1354.41 30.163 1358.02 28.1376 Q1361.67 26.1121 1366.4 26.1121 Q1374.22 26.1121 1378.23 30.9732 Q1382.24 35.7938 1382.24 45.1919 Z" fill="#000000" fill-rule="nonzero" fill-opacity="1" /><path clip-path="url(#clip860)" d="M1415.42 12.096 L1466.58 12.096 L1466.58 18.9825 L1445.11 18.9825 L1445.11 72.576 L1436.89 72.576 L1436.89 18.9825 L1415.42 18.9825 L1415.42 12.096 Z" fill="#000000" fill-rule="nonzero" fill-opacity="1" /><path clip-path="url(#clip860)" d="M1471.61 27.2059 L1479.06 27.2059 L1479.06 72.576 L1471.61 72.576 L1471.61 27.2059 M1471.61 9.54393 L1479.06 9.54393 L1479.06 18.9825 L1471.61 18.9825 L1471.61 9.54393 Z" fill="#000000" fill-rule="nonzero" fill-opacity="1" /><path clip-path="url(#clip860)" d="M1529.98 35.9153 Q1532.78 30.8922 1536.66 28.5022 Q1540.55 26.1121 1545.82 26.1121 Q1552.91 26.1121 1556.76 31.0947 Q1560.61 36.0368 1560.61 45.1919 L1560.61 72.576 L1553.11 72.576 L1553.11 45.4349 Q1553.11 38.913 1550.8 35.7533 Q1548.49 32.5936 1543.75 32.5936 Q1537.96 32.5936 1534.6 36.4419 Q1531.24 40.2903 1531.24 46.9338 L1531.24 72.576 L1523.74 72.576 L1523.74 45.4349 Q1523.74 38.8725 1521.43 35.7533 Q1519.12 32.5936 1514.3 32.5936 Q1508.59 32.5936 1505.23 36.4824 Q1501.87 40.3308 1501.87 46.9338 L1501.87 72.576 L1494.37 72.576 L1494.37 27.2059 L1501.87 27.2059 L1501.87 34.2544 Q1504.42 30.082 1507.98 28.0971 Q1511.55 26.1121 1516.45 26.1121 Q1521.39 26.1121 1524.84 28.6237 Q1528.32 31.1352 1529.98 35.9153 Z" fill="#000000" fill-rule="nonzero" fill-opacity="1" /><path clip-path="url(#clip860)" d="M1614.28 48.0275 L1614.28 51.6733 L1580.01 51.6733 Q1580.49 59.3701 1584.63 63.421 Q1588.8 67.4314 1596.21 67.4314 Q1600.51 67.4314 1604.52 66.3781 Q1608.57 65.3249 1612.54 63.2184 L1612.54 70.267 Q1608.53 71.9684 1604.31 72.8596 Q1600.1 73.7508 1595.77 73.7508 Q1584.91 73.7508 1578.55 67.4314 Q1572.23 61.1119 1572.23 50.3365 Q1572.23 39.1965 1578.23 32.6746 Q1584.26 26.1121 1594.47 26.1121 Q1603.63 26.1121 1608.93 32.0264 Q1614.28 37.9003 1614.28 48.0275 M1606.83 45.84 Q1606.74 39.7232 1603.38 36.0774 Q1600.06 32.4315 1594.55 32.4315 Q1588.31 32.4315 1584.55 35.9558 Q1580.82 39.4801 1580.25 45.8805 L1606.83 45.84 Z" fill="#000000" fill-rule="nonzero" fill-opacity="1" /><polyline clip-path="url(#clip862)" style="stroke:#009af9; stroke-linecap:round; stroke-linejoin:round; stroke-width:4; stroke-opacity:1; fill:none" points="311.302,1386.4 321.262,1372.91 341.181,1351.31 400.94,1324.81 500.538,1292 799.331,1218.89 1297.32,1140.8 2293.3,1036.19 "/>
<circle clip-path="url(#clip862)" cx="311.302" cy="1386.4" r="14.4" fill="#009af9" fill-rule="evenodd" fill-opacity="1" stroke="#000000" stroke-opacity="1" stroke-width="3.2"/>
<circle clip-path="url(#clip862)" cx="321.262" cy="1372.91" r="14.4" fill="#009af9" fill-rule="evenodd" fill-opacity="1" stroke="#000000" stroke-opacity="1" stroke-width="3.2"/>
<circle clip-path="url(#clip862)" cx="341.181" cy="1351.31" r="14.4" fill="#009af9" fill-rule="evenodd" fill-opacity="1" stroke="#000000" stroke-opacity="1" stroke-width="3.2"/>
<circle clip-path="url(#clip862)" cx="400.94" cy="1324.81" r="14.4" fill="#009af9" fill-rule="evenodd" fill-opacity="1" stroke="#000000" stroke-opacity="1" stroke-width="3.2"/>
<circle clip-path="url(#clip862)" cx="500.538" cy="1292" r="14.4" fill="#009af9" fill-rule="evenodd" fill-opacity="1" stroke="#000000" stroke-opacity="1" stroke-width="3.2"/>
<circle clip-path="url(#clip862)" cx="799.331" cy="1218.89" r="14.4" fill="#009af9" fill-rule="evenodd" fill-opacity="1" stroke="#000000" stroke-opacity="1" stroke-width="3.2"/>
<circle clip-path="url(#clip862)" cx="1297.32" cy="1140.8" r="14.4" fill="#009af9" fill-rule="evenodd" fill-opacity="1" stroke="#000000" stroke-opacity="1" stroke-width="3.2"/>
<circle clip-path="url(#clip862)" cx="2293.3" cy="1036.19" r="14.4" fill="#009af9" fill-rule="evenodd" fill-opacity="1" stroke="#000000" stroke-opacity="1" stroke-width="3.2"/>
<polyline clip-path="url(#clip862)" style="stroke:#e26f46; stroke-linecap:round; stroke-linejoin:round; stroke-width:4; stroke-opacity:1; fill:none" points="311.302,1008.89 321.262,932.063 341.181,836.985 400.94,675.508 500.538,572.943 799.331,414.48 1297.32,287.099 2293.3,160.256 "/>
<circle clip-path="url(#clip862)" cx="311.302" cy="1008.89" r="14.4" fill="#e26f46" fill-rule="evenodd" fill-opacity="1" stroke="#000000" stroke-opacity="1" stroke-width="3.2"/>
<circle clip-path="url(#clip862)" cx="321.262" cy="932.063" r="14.4" fill="#e26f46" fill-rule="evenodd" fill-opacity="1" stroke="#000000" stroke-opacity="1" stroke-width="3.2"/>
<circle clip-path="url(#clip862)" cx="341.181" cy="836.985" r="14.4" fill="#e26f46" fill-rule="evenodd" fill-opacity="1" stroke="#000000" stroke-opacity="1" stroke-width="3.2"/>
<circle clip-path="url(#clip862)" cx="400.94" cy="675.508" r="14.4" fill="#e26f46" fill-rule="evenodd" fill-opacity="1" stroke="#000000" stroke-opacity="1" stroke-width="3.2"/>
<circle clip-path="url(#clip862)" cx="500.538" cy="572.943" r="14.4" fill="#e26f46" fill-rule="evenodd" fill-opacity="1" stroke="#000000" stroke-opacity="1" stroke-width="3.2"/>
<circle clip-path="url(#clip862)" cx="799.331" cy="414.48" r="14.4" fill="#e26f46" fill-rule="evenodd" fill-opacity="1" stroke="#000000" stroke-opacity="1" stroke-width="3.2"/>
<circle clip-path="url(#clip862)" cx="1297.32" cy="287.099" r="14.4" fill="#e26f46" fill-rule="evenodd" fill-opacity="1" stroke="#000000" stroke-opacity="1" stroke-width="3.2"/>
<circle clip-path="url(#clip862)" cx="2293.3" cy="160.256" r="14.4" fill="#e26f46" fill-rule="evenodd" fill-opacity="1" stroke="#000000" stroke-opacity="1" stroke-width="3.2"/>
<path clip-path="url(#clip860)" d="M321.873 322.316 L802.495 322.316 L802.495 166.796 L321.873 166.796  Z" fill="#ffffff" fill-rule="evenodd" fill-opacity="1"/>
<polyline clip-path="url(#clip860)" style="stroke:#000000; stroke-linecap:round; stroke-linejoin:round; stroke-width:4; stroke-opacity:1; fill:none" points="321.873,322.316 802.495,322.316 802.495,166.796 321.873,166.796 321.873,322.316 "/>
<polyline clip-path="url(#clip860)" style="stroke:#009af9; stroke-linecap:round; stroke-linejoin:round; stroke-width:4; stroke-opacity:1; fill:none" points="345.216,218.636 485.277,218.636 "/>
<circle clip-path="url(#clip860)" cx="415.247" cy="218.636" r="19.4529" fill="#009af9" fill-rule="evenodd" fill-opacity="1" stroke="#000000" stroke-opacity="1" stroke-width="4.55111"/>
<path clip-path="url(#clip860)" d="M527.047 210.754 L527.047 214.782 Q525.241 213.856 523.297 213.393 Q521.352 212.93 519.269 212.93 Q516.098 212.93 514.5 213.902 Q512.926 214.874 512.926 216.819 Q512.926 218.3 514.06 219.157 Q515.195 219.99 518.621 220.754 L520.079 221.078 Q524.616 222.05 526.514 223.832 Q528.435 225.592 528.435 228.763 Q528.435 232.374 525.565 234.481 Q522.718 236.587 517.718 236.587 Q515.635 236.587 513.366 236.17 Q511.121 235.777 508.621 234.967 L508.621 230.569 Q510.982 231.795 513.273 232.42 Q515.565 233.022 517.81 233.022 Q520.82 233.022 522.44 232.004 Q524.06 230.962 524.06 229.087 Q524.06 227.351 522.88 226.425 Q521.722 225.499 517.764 224.643 L516.283 224.295 Q512.324 223.462 510.565 221.749 Q508.806 220.013 508.806 217.004 Q508.806 213.346 511.398 211.356 Q513.991 209.365 518.76 209.365 Q521.121 209.365 523.204 209.712 Q525.287 210.059 527.047 210.754 Z" fill="#000000" fill-rule="nonzero" fill-opacity="1" /><path clip-path="url(#clip860)" d="M553.875 210.985 L553.875 214.967 Q552.07 213.971 550.241 213.485 Q548.435 212.976 546.583 212.976 Q542.44 212.976 540.148 215.615 Q537.857 218.231 537.857 222.976 Q537.857 227.721 540.148 230.36 Q542.44 232.976 546.583 232.976 Q548.435 232.976 550.241 232.49 Q552.07 231.981 553.875 230.985 L553.875 234.92 Q552.093 235.754 550.171 236.17 Q548.273 236.587 546.12 236.587 Q540.264 236.587 536.815 232.906 Q533.366 229.226 533.366 222.976 Q533.366 216.633 536.838 212.999 Q540.333 209.365 546.398 209.365 Q548.366 209.365 550.241 209.782 Q552.116 210.175 553.875 210.985 Z" fill="#000000" fill-rule="nonzero" fill-opacity="1" /><path clip-path="url(#clip860)" d="M573.065 222.883 Q567.903 222.883 565.912 224.064 Q563.921 225.244 563.921 228.092 Q563.921 230.36 565.403 231.703 Q566.907 233.022 569.477 233.022 Q573.018 233.022 575.148 230.522 Q577.301 227.999 577.301 223.832 L577.301 222.883 L573.065 222.883 M581.56 221.124 L581.56 235.916 L577.301 235.916 L577.301 231.981 Q575.843 234.342 573.667 235.476 Q571.491 236.587 568.343 236.587 Q564.361 236.587 562 234.365 Q559.662 232.119 559.662 228.369 Q559.662 223.994 562.579 221.772 Q565.519 219.55 571.329 219.55 L577.301 219.55 L577.301 219.133 Q577.301 216.194 575.356 214.596 Q573.435 212.976 569.94 212.976 Q567.718 212.976 565.611 213.508 Q563.505 214.041 561.56 215.106 L561.56 211.17 Q563.898 210.268 566.097 209.828 Q568.296 209.365 570.38 209.365 Q576.005 209.365 578.782 212.282 Q581.56 215.198 581.56 221.124 Z" fill="#000000" fill-rule="nonzero" fill-opacity="1" /><path clip-path="url(#clip860)" d="M590.333 199.897 L594.592 199.897 L594.592 235.916 L590.333 235.916 L590.333 199.897 Z" fill="#000000" fill-rule="nonzero" fill-opacity="1" /><path clip-path="url(#clip860)" d="M615.287 222.883 Q610.125 222.883 608.134 224.064 Q606.143 225.244 606.143 228.092 Q606.143 230.36 607.625 231.703 Q609.129 233.022 611.699 233.022 Q615.24 233.022 617.37 230.522 Q619.523 227.999 619.523 223.832 L619.523 222.883 L615.287 222.883 M623.782 221.124 L623.782 235.916 L619.523 235.916 L619.523 231.981 Q618.065 234.342 615.889 235.476 Q613.713 236.587 610.565 236.587 Q606.583 236.587 604.222 234.365 Q601.884 232.119 601.884 228.369 Q601.884 223.994 604.801 221.772 Q607.741 219.55 613.551 219.55 L619.523 219.55 L619.523 219.133 Q619.523 216.194 617.578 214.596 Q615.657 212.976 612.162 212.976 Q609.94 212.976 607.833 213.508 Q605.727 214.041 603.782 215.106 L603.782 211.17 Q606.12 210.268 608.319 209.828 Q610.518 209.365 612.602 209.365 Q618.227 209.365 621.004 212.282 Q623.782 215.198 623.782 221.124 Z" fill="#000000" fill-rule="nonzero" fill-opacity="1" /><path clip-path="url(#clip860)" d="M647.578 213.971 Q646.861 213.555 646.004 213.37 Q645.171 213.161 644.152 213.161 Q640.541 213.161 638.597 215.522 Q636.676 217.86 636.676 222.258 L636.676 235.916 L632.393 235.916 L632.393 209.99 L636.676 209.99 L636.676 214.018 Q638.018 211.657 640.171 210.522 Q642.324 209.365 645.402 209.365 Q645.842 209.365 646.375 209.434 Q646.907 209.481 647.555 209.596 L647.578 213.971 Z" fill="#000000" fill-rule="nonzero" fill-opacity="1" /><path clip-path="url(#clip860)" d="M680.24 199.897 L680.24 203.439 L676.166 203.439 Q673.874 203.439 672.972 204.365 Q672.092 205.291 672.092 207.698 L672.092 209.99 L679.106 209.99 L679.106 213.3 L672.092 213.3 L672.092 235.916 L667.81 235.916 L667.81 213.3 L663.736 213.3 L663.736 209.99 L667.81 209.99 L667.81 208.184 Q667.81 203.856 669.824 201.888 Q671.837 199.897 676.212 199.897 L680.24 199.897 Z" fill="#000000" fill-rule="nonzero" fill-opacity="1" /><path clip-path="url(#clip860)" d="M693.851 212.976 Q690.425 212.976 688.435 215.661 Q686.444 218.323 686.444 222.976 Q686.444 227.629 688.411 230.314 Q690.402 232.976 693.851 232.976 Q697.254 232.976 699.245 230.291 Q701.235 227.606 701.235 222.976 Q701.235 218.37 699.245 215.684 Q697.254 212.976 693.851 212.976 M693.851 209.365 Q699.407 209.365 702.578 212.976 Q705.749 216.587 705.749 222.976 Q705.749 229.342 702.578 232.976 Q699.407 236.587 693.851 236.587 Q688.273 236.587 685.101 232.976 Q681.953 229.342 681.953 222.976 Q681.953 216.587 685.101 212.976 Q688.273 209.365 693.851 209.365 Z" fill="#000000" fill-rule="nonzero" fill-opacity="1" /><path clip-path="url(#clip860)" d="M727.832 213.971 Q727.115 213.555 726.258 213.37 Q725.425 213.161 724.407 213.161 Q720.795 213.161 718.851 215.522 Q716.93 217.86 716.93 222.258 L716.93 235.916 L712.647 235.916 L712.647 209.99 L716.93 209.99 L716.93 214.018 Q718.272 211.657 720.425 210.522 Q722.578 209.365 725.657 209.365 Q726.096 209.365 726.629 209.434 Q727.161 209.481 727.809 209.596 L727.832 213.971 Z" fill="#000000" fill-rule="nonzero" fill-opacity="1" /><path clip-path="url(#clip860)" d="M751.652 214.967 Q753.249 212.096 755.471 210.731 Q757.693 209.365 760.703 209.365 Q764.754 209.365 766.953 212.212 Q769.152 215.036 769.152 220.268 L769.152 235.916 L764.869 235.916 L764.869 220.407 Q764.869 216.68 763.55 214.874 Q762.23 213.069 759.522 213.069 Q756.212 213.069 754.291 215.268 Q752.369 217.467 752.369 221.263 L752.369 235.916 L748.087 235.916 L748.087 220.407 Q748.087 216.657 746.768 214.874 Q745.448 213.069 742.694 213.069 Q739.43 213.069 737.508 215.291 Q735.587 217.49 735.587 221.263 L735.587 235.916 L731.305 235.916 L731.305 209.99 L735.587 209.99 L735.587 214.018 Q737.045 211.633 739.082 210.499 Q741.119 209.365 743.92 209.365 Q746.744 209.365 748.712 210.8 Q750.703 212.235 751.652 214.967 Z" fill="#000000" fill-rule="nonzero" fill-opacity="1" /><polyline clip-path="url(#clip860)" style="stroke:#e26f46; stroke-linecap:round; stroke-linejoin:round; stroke-width:4; stroke-opacity:1; fill:none" points="345.216,270.476 485.277,270.476 "/>
<circle clip-path="url(#clip860)" cx="415.247" cy="270.476" r="19.4529" fill="#e26f46" fill-rule="evenodd" fill-opacity="1" stroke="#000000" stroke-opacity="1" stroke-width="4.55111"/>
<path clip-path="url(#clip860)" d="M508.621 261.83 L513.135 261.83 L521.236 283.589 L529.338 261.83 L533.852 261.83 L524.13 287.756 L518.343 287.756 L508.621 261.83 Z" fill="#000000" fill-rule="nonzero" fill-opacity="1" /><path clip-path="url(#clip860)" d="M561.907 273.728 L561.907 275.811 L542.324 275.811 Q542.602 280.209 544.963 282.524 Q547.347 284.816 551.583 284.816 Q554.037 284.816 556.329 284.214 Q558.644 283.612 560.912 282.409 L560.912 286.436 Q558.62 287.408 556.213 287.918 Q553.806 288.427 551.329 288.427 Q545.125 288.427 541.491 284.816 Q537.88 281.205 537.88 275.047 Q537.88 268.682 541.306 264.955 Q544.755 261.205 550.588 261.205 Q555.82 261.205 558.852 264.585 Q561.907 267.941 561.907 273.728 M557.648 272.478 Q557.602 268.983 555.681 266.899 Q553.782 264.816 550.634 264.816 Q547.07 264.816 544.917 266.83 Q542.787 268.844 542.463 272.501 L557.648 272.478 Z" fill="#000000" fill-rule="nonzero" fill-opacity="1" /><path clip-path="url(#clip860)" d="M587.555 262.825 L587.555 266.807 Q585.75 265.811 583.921 265.325 Q582.116 264.816 580.264 264.816 Q576.12 264.816 573.829 267.455 Q571.537 270.071 571.537 274.816 Q571.537 279.561 573.829 282.2 Q576.12 284.816 580.264 284.816 Q582.116 284.816 583.921 284.33 Q585.75 283.821 587.555 282.825 L587.555 286.76 Q585.773 287.594 583.852 288.01 Q581.954 288.427 579.801 288.427 Q573.944 288.427 570.495 284.746 Q567.046 281.066 567.046 274.816 Q567.046 268.473 570.519 264.839 Q574.014 261.205 580.079 261.205 Q582.046 261.205 583.921 261.622 Q585.796 262.015 587.555 262.825 Z" fill="#000000" fill-rule="nonzero" fill-opacity="1" /><path clip-path="url(#clip860)" d="M599.176 254.469 L599.176 261.83 L607.949 261.83 L607.949 265.14 L599.176 265.14 L599.176 279.214 Q599.176 282.385 600.032 283.288 Q600.912 284.191 603.574 284.191 L607.949 284.191 L607.949 287.756 L603.574 287.756 Q598.643 287.756 596.768 285.927 Q594.893 284.075 594.893 279.214 L594.893 265.14 L591.768 265.14 L591.768 261.83 L594.893 261.83 L594.893 254.469 L599.176 254.469 Z" fill="#000000" fill-rule="nonzero" fill-opacity="1" /><path clip-path="url(#clip860)" d="M623.597 264.816 Q620.171 264.816 618.18 267.501 Q616.19 270.163 616.19 274.816 Q616.19 279.469 618.157 282.154 Q620.148 284.816 623.597 284.816 Q627 284.816 628.99 282.131 Q630.981 279.446 630.981 274.816 Q630.981 270.21 628.99 267.524 Q627 264.816 623.597 264.816 M623.597 261.205 Q629.152 261.205 632.324 264.816 Q635.495 268.427 635.495 274.816 Q635.495 281.182 632.324 284.816 Q629.152 288.427 623.597 288.427 Q618.018 288.427 614.847 284.816 Q611.699 281.182 611.699 274.816 Q611.699 268.427 614.847 264.816 Q618.018 261.205 623.597 261.205 Z" fill="#000000" fill-rule="nonzero" fill-opacity="1" /><path clip-path="url(#clip860)" d="M657.578 265.811 Q656.861 265.395 656.004 265.21 Q655.171 265.001 654.152 265.001 Q650.541 265.001 648.597 267.362 Q646.676 269.7 646.676 274.098 L646.676 287.756 L642.393 287.756 L642.393 261.83 L646.676 261.83 L646.676 265.858 Q648.018 263.497 650.171 262.362 Q652.324 261.205 655.402 261.205 Q655.842 261.205 656.375 261.274 Q656.907 261.321 657.555 261.436 L657.578 265.811 Z" fill="#000000" fill-rule="nonzero" fill-opacity="1" /><path clip-path="url(#clip860)" d="M690.24 251.737 L690.24 255.279 L686.166 255.279 Q683.874 255.279 682.972 256.205 Q682.092 257.131 682.092 259.538 L682.092 261.83 L689.106 261.83 L689.106 265.14 L682.092 265.14 L682.092 287.756 L677.81 287.756 L677.81 265.14 L673.736 265.14 L673.736 261.83 L677.81 261.83 L677.81 260.024 Q677.81 255.696 679.823 253.728 Q681.837 251.737 686.212 251.737 L690.24 251.737 Z" fill="#000000" fill-rule="nonzero" fill-opacity="1" /><path clip-path="url(#clip860)" d="M703.851 264.816 Q700.425 264.816 698.434 267.501 Q696.444 270.163 696.444 274.816 Q696.444 279.469 698.411 282.154 Q700.402 284.816 703.851 284.816 Q707.254 284.816 709.245 282.131 Q711.235 279.446 711.235 274.816 Q711.235 270.21 709.245 267.524 Q707.254 264.816 703.851 264.816 M703.851 261.205 Q709.407 261.205 712.578 264.816 Q715.749 268.427 715.749 274.816 Q715.749 281.182 712.578 284.816 Q709.407 288.427 703.851 288.427 Q698.272 288.427 695.101 284.816 Q691.953 281.182 691.953 274.816 Q691.953 268.427 695.101 264.816 Q698.272 261.205 703.851 261.205 Z" fill="#000000" fill-rule="nonzero" fill-opacity="1" /><path clip-path="url(#clip860)" d="M737.832 265.811 Q737.115 265.395 736.258 265.21 Q735.425 265.001 734.407 265.001 Q730.795 265.001 728.851 267.362 Q726.93 269.7 726.93 274.098 L726.93 287.756 L722.647 287.756 L722.647 261.83 L726.93 261.83 L726.93 265.858 Q728.272 263.497 730.425 262.362 Q732.578 261.205 735.657 261.205 Q736.096 261.205 736.629 261.274 Q737.161 261.321 737.809 261.436 L737.832 265.811 Z" fill="#000000" fill-rule="nonzero" fill-opacity="1" /><path clip-path="url(#clip860)" d="M761.652 266.807 Q763.249 263.936 765.471 262.571 Q767.693 261.205 770.703 261.205 Q774.754 261.205 776.953 264.052 Q779.152 266.876 779.152 272.108 L779.152 287.756 L774.869 287.756 L774.869 272.247 Q774.869 268.52 773.55 266.714 Q772.23 264.909 769.522 264.909 Q766.212 264.909 764.291 267.108 Q762.369 269.307 762.369 273.103 L762.369 287.756 L758.087 287.756 L758.087 272.247 Q758.087 268.497 756.768 266.714 Q755.448 264.909 752.693 264.909 Q749.43 264.909 747.508 267.131 Q745.587 269.33 745.587 273.103 L745.587 287.756 L741.305 287.756 L741.305 261.83 L745.587 261.83 L745.587 265.858 Q747.045 263.473 749.082 262.339 Q751.119 261.205 753.92 261.205 Q756.744 261.205 758.712 262.64 Q760.703 264.075 761.652 266.807 Z" fill="#000000" fill-rule="nonzero" fill-opacity="1" /></svg>
