<?xml version="1.0" encoding="utf-8"?>
<svg xmlns="http://www.w3.org/2000/svg" xmlns:xlink="http://www.w3.org/1999/xlink" width="600" height="400" viewBox="0 0 2400 1600">
<defs>
  <clipPath id="clip940">
    <rect x="0" y="0" width="2400" height="1600"/>
  </clipPath>
</defs>
<path clip-path="url(#clip940)" d="M0 1600 L2400 1600 L2400 0 L0 0  Z" fill="#ffffff" fill-rule="evenodd" fill-opacity="1"/>
<defs>
  <clipPath id="clip941">
    <rect x="480" y="0" width="1681" height="1600"/>
  </clipPath>
</defs>
<path clip-path="url(#clip940)" d="M234.125 1423.18 L2352.76 1423.18 L2352.76 123.472 L234.125 123.472  Z" fill="#ffffff" fill-rule="evenodd" fill-opacity="1"/>
<defs>
  <clipPath id="clip942">
    <rect x="234" y="123" width="2120" height="1301"/>
  </clipPath>
</defs>
<polyline clip-path="url(#clip942)" style="stroke:#000000; stroke-linecap:round; stroke-linejoin:round; stroke-width:2; stroke-opacity:0.1; fill:none" points="284.043,1423.18 284.043,123.472 "/>
<polyline clip-path="url(#clip942)" style="stroke:#000000; stroke-linecap:round; stroke-linejoin:round; stroke-width:2; stroke-opacity:0.1; fill:none" points="786.231,1423.18 786.231,123.472 "/>
<polyline clip-path="url(#clip942)" style="stroke:#000000; stroke-linecap:round; stroke-linejoin:round; stroke-width:2; stroke-opacity:0.1; fill:none" points="1288.42,1423.18 1288.42,123.472 "/>
<polyline clip-path="url(#clip942)" style="stroke:#000000; stroke-linecap:round; stroke-linejoin:round; stroke-width:2; stroke-opacity:0.1; fill:none" points="1790.61,1423.18 1790.61,123.472 "/>
<polyline clip-path="url(#clip942)" style="stroke:#000000; stroke-linecap:round; stroke-linejoin:round; stroke-width:2; stroke-opacity:0.1; fill:none" points="2292.79,1423.18 2292.79,123.472 "/>
<polyline clip-path="url(#clip940)" style="stroke:#000000; stroke-linecap:round; stroke-linejoin:round; stroke-width:4; stroke-opacity:1; fill:none" points="234.125,1423.18 2352.76,1423.18 "/>
<polyline clip-path="url(#clip940)" style="stroke:#000000; stroke-linecap:round; stroke-linejoin:round; stroke-width:4; stroke-opacity:1; fill:none" points="284.043,1423.18 284.043,1404.28 "/>
<polyline clip-path="url(#clip940)" style="stroke:#000000; stroke-linecap:round; stroke-linejoin:round; stroke-width:4; stroke-opacity:1; fill:none" points="786.231,1423.18 786.231,1404.28 "/>
<polyline clip-path="url(#clip940)" style="stroke:#000000; stroke-linecap:round; stroke-linejoin:round; stroke-width:4; stroke-opacity:1; fill:none" points="1288.42,1423.18 1288.42,1404.28 "/>
<polyline clip-path="url(#clip940)" style="stroke:#000000; stroke-linecap:round; stroke-linejoin:round; stroke-width:4; stroke-opacity:1; fill:none" points="1790.61,1423.18 1790.61,1404.28 "/>
<polyline clip-path="url(#clip940)" style="stroke:#000000; stroke-linecap:round; stroke-linejoin:round; stroke-width:4; stroke-opacity:1; fill:none" points="2292.79,1423.18 2292.79,1404.28 "/>
<path clip-path="url(#clip940)" d="M284.043 1454.1 Q280.432 1454.1 278.603 1457.66 Q276.798 1461.2 276.798 1468.33 Q276.798 1475.44 278.603 1479.01 Q280.432 1482.55 284.043 1482.55 Q287.677 1482.55 289.483 1479.01 Q291.311 1475.44 291.311 1468.33 Q291.311 1461.2 289.483 1457.66 Q287.677 1454.1 284.043 1454.1 M284.043 1450.39 Q289.853 1450.39 292.909 1455 Q295.987 1459.58 295.987 1468.33 Q295.987 1477.06 292.909 1481.67 Q289.853 1486.25 284.043 1486.25 Q278.233 1486.25 275.154 1481.67 Q272.099 1477.06 272.099 1468.33 Q272.099 1459.58 275.154 1455 Q278.233 1450.39 284.043 1450.39 Z" fill="#000000" fill-rule="nonzero" fill-opacity="1" /><path clip-path="url(#clip940)" d="M749.923 1481.64 L766.243 1481.64 L766.243 1485.58 L744.298 1485.58 L744.298 1481.64 Q746.96 1478.89 751.544 1474.26 Q756.15 1469.61 757.331 1468.27 Q759.576 1465.74 760.456 1464.01 Q761.358 1462.25 761.358 1460.56 Q761.358 1457.8 759.414 1456.07 Q757.493 1454.33 754.391 1454.33 Q752.192 1454.33 749.738 1455.09 Q747.307 1455.86 744.53 1457.41 L744.53 1452.69 Q747.354 1451.55 749.807 1450.97 Q752.261 1450.39 754.298 1450.39 Q759.669 1450.39 762.863 1453.08 Q766.057 1455.77 766.057 1460.26 Q766.057 1462.39 765.247 1464.31 Q764.46 1466.2 762.354 1468.8 Q761.775 1469.47 758.673 1472.69 Q755.571 1475.88 749.923 1481.64 Z" fill="#000000" fill-rule="nonzero" fill-opacity="1" /><path clip-path="url(#clip940)" d="M776.104 1451.02 L794.46 1451.02 L794.46 1454.96 L780.386 1454.96 L780.386 1463.43 Q781.405 1463.08 782.423 1462.92 Q783.442 1462.73 784.46 1462.73 Q790.247 1462.73 793.627 1465.9 Q797.006 1469.08 797.006 1474.49 Q797.006 1480.07 793.534 1483.17 Q790.062 1486.25 783.742 1486.25 Q781.567 1486.25 779.298 1485.88 Q777.053 1485.51 774.645 1484.77 L774.645 1480.07 Q776.729 1481.2 778.951 1481.76 Q781.173 1482.32 783.65 1482.32 Q787.654 1482.32 789.992 1480.21 Q792.33 1478.1 792.33 1474.49 Q792.33 1470.88 789.992 1468.77 Q787.654 1466.67 783.65 1466.67 Q781.775 1466.67 779.9 1467.08 Q778.048 1467.5 776.104 1468.38 L776.104 1451.02 Z" fill="#000000" fill-rule="nonzero" fill-opacity="1" /><path clip-path="url(#clip940)" d="M816.219 1454.1 Q812.608 1454.1 810.779 1457.66 Q808.974 1461.2 808.974 1468.33 Q808.974 1475.44 810.779 1479.01 Q812.608 1482.55 816.219 1482.55 Q819.853 1482.55 821.659 1479.01 Q823.488 1475.44 823.488 1468.33 Q823.488 1461.2 821.659 1457.66 Q819.853 1454.1 816.219 1454.1 M816.219 1450.39 Q822.029 1450.39 825.085 1455 Q828.164 1459.58 828.164 1468.33 Q828.164 1477.06 825.085 1481.67 Q822.029 1486.25 816.219 1486.25 Q810.409 1486.25 807.33 1481.67 Q804.275 1477.06 804.275 1468.33 Q804.275 1459.58 807.33 1455 Q810.409 1450.39 816.219 1450.39 Z" fill="#000000" fill-rule="nonzero" fill-opacity="1" /><path clip-path="url(#clip940)" d="M1248.04 1451.02 L1266.39 1451.02 L1266.39 1454.96 L1252.32 1454.96 L1252.32 1463.43 Q1253.34 1463.08 1254.36 1462.92 Q1255.37 1462.73 1256.39 1462.73 Q1262.18 1462.73 1265.56 1465.9 Q1268.94 1469.08 1268.94 1474.49 Q1268.94 1480.07 1265.47 1483.17 Q1262 1486.25 1255.68 1486.25 Q1253.5 1486.25 1251.23 1485.88 Q1248.99 1485.51 1246.58 1484.77 L1246.58 1480.07 Q1248.66 1481.2 1250.88 1481.76 Q1253.11 1482.32 1255.58 1482.32 Q1259.59 1482.32 1261.93 1480.21 Q1264.26 1478.1 1264.26 1474.49 Q1264.26 1470.88 1261.93 1468.77 Q1259.59 1466.67 1255.58 1466.67 Q1253.71 1466.67 1251.83 1467.08 Q1249.98 1467.5 1248.04 1468.38 L1248.04 1451.02 Z" fill="#000000" fill-rule="nonzero" fill-opacity="1" /><path clip-path="url(#clip940)" d="M1288.15 1454.1 Q1284.54 1454.1 1282.71 1457.66 Q1280.91 1461.2 1280.91 1468.33 Q1280.91 1475.44 1282.71 1479.01 Q1284.54 1482.55 1288.15 1482.55 Q1291.79 1482.55 1293.59 1479.01 Q1295.42 1475.44 1295.42 1468.33 Q1295.42 1461.2 1293.59 1457.66 Q1291.79 1454.1 1288.15 1454.1 M1288.15 1450.39 Q1293.96 1450.39 1297.02 1455 Q1300.1 1459.58 1300.1 1468.33 Q1300.1 1477.06 1297.02 1481.67 Q1293.96 1486.25 1288.15 1486.25 Q1282.34 1486.25 1279.26 1481.67 Q1276.21 1477.06 1276.21 1468.33 Q1276.21 1459.58 1279.26 1455 Q1282.34 1450.39 1288.15 1450.39 Z" fill="#000000" fill-rule="nonzero" fill-opacity="1" /><path clip-path="url(#clip940)" d="M1318.31 1454.1 Q1314.7 1454.1 1312.87 1457.66 Q1311.07 1461.2 1311.07 1468.33 Q1311.07 1475.44 1312.87 1479.01 Q1314.7 1482.55 1318.31 1482.55 Q1321.95 1482.55 1323.75 1479.01 Q1325.58 1475.44 1325.58 1468.33 Q1325.58 1461.2 1323.75 1457.66 Q1321.95 1454.1 1318.31 1454.1 M1318.31 1450.39 Q1324.12 1450.39 1327.18 1455 Q1330.26 1459.58 1330.26 1468.33 Q1330.26 1477.06 1327.18 1481.67 Q1324.12 1486.25 1318.31 1486.25 Q1312.5 1486.25 1309.43 1481.67 Q1306.37 1477.06 1306.37 1468.33 Q1306.37 1459.58 1309.43 1455 Q1312.5 1450.39 1318.31 1450.39 Z" fill="#000000" fill-rule="nonzero" fill-opacity="1" /><path clip-path="url(#clip940)" d="M1748.88 1451.02 L1771.1 1451.02 L1771.1 1453.01 L1758.56 1485.58 L1753.67 1485.58 L1765.48 1454.96 L1748.88 1454.96 L1748.88 1451.02 Z" fill="#000000" fill-rule="nonzero" fill-opacity="1" /><path clip-path="url(#clip940)" d="M1780.27 1451.02 L1798.63 1451.02 L1798.63 1454.96 L1784.55 1454.96 L1784.55 1463.43 Q1785.57 1463.08 1786.59 1462.92 Q1787.61 1462.73 1788.63 1462.73 Q1794.41 1462.73 1797.79 1465.9 Q1801.17 1469.08 1801.17 1474.49 Q1801.17 1480.07 1797.7 1483.17 Q1794.23 1486.25 1787.91 1486.25 Q1785.73 1486.25 1783.47 1485.88 Q1781.22 1485.51 1778.81 1484.77 L1778.81 1480.07 Q1780.9 1481.2 1783.12 1481.76 Q1785.34 1482.32 1787.82 1482.32 Q1791.82 1482.32 1794.16 1480.21 Q1796.5 1478.1 1796.5 1474.49 Q1796.5 1470.88 1794.16 1468.77 Q1791.82 1466.67 1787.82 1466.67 Q1785.94 1466.67 1784.07 1467.08 Q1782.22 1467.5 1780.27 1468.38 L1780.27 1451.02 Z" fill="#000000" fill-rule="nonzero" fill-opacity="1" /><path clip-path="url(#clip940)" d="M1820.39 1454.1 Q1816.78 1454.1 1814.95 1457.66 Q1813.14 1461.2 1813.14 1468.33 Q1813.14 1475.44 1814.95 1479.01 Q1816.78 1482.55 1820.39 1482.55 Q1824.02 1482.55 1825.83 1479.01 Q1827.66 1475.44 1827.66 1468.33 Q1827.66 1461.2 1825.83 1457.66 Q1824.02 1454.1 1820.39 1454.1 M1820.39 1450.39 Q1826.2 1450.39 1829.25 1455 Q1832.33 1459.58 1832.33 1468.33 Q1832.33 1477.06 1829.25 1481.67 Q1826.2 1486.25 1820.39 1486.25 Q1814.58 1486.25 1811.5 1481.67 Q1808.44 1477.06 1808.44 1468.33 Q1808.44 1459.58 1811.5 1455 Q1814.58 1450.39 1820.39 1450.39 Z" fill="#000000" fill-rule="nonzero" fill-opacity="1" /><path clip-path="url(#clip940)" d="M2237.32 1481.64 L2244.96 1481.64 L2244.96 1455.28 L2236.65 1456.95 L2236.65 1452.69 L2244.91 1451.02 L2249.59 1451.02 L2249.59 1481.64 L2257.23 1481.64 L2257.23 1485.58 L2237.32 1485.58 L2237.32 1481.64 Z" fill="#000000" fill-rule="nonzero" fill-opacity="1" /><path clip-path="url(#clip940)" d="M2276.67 1454.1 Q2273.06 1454.1 2271.23 1457.66 Q2269.43 1461.2 2269.43 1468.33 Q2269.43 1475.44 2271.23 1479.01 Q2273.06 1482.55 2276.67 1482.55 Q2280.31 1482.55 2282.11 1479.01 Q2283.94 1475.44 2283.94 1468.33 Q2283.94 1461.2 2282.11 1457.66 Q2280.31 1454.1 2276.67 1454.1 M2276.67 1450.39 Q2282.48 1450.39 2285.54 1455 Q2288.62 1459.58 2288.62 1468.33 Q2288.62 1477.06 2285.54 1481.67 Q2282.48 1486.25 2276.67 1486.25 Q2270.86 1486.25 2267.78 1481.67 Q2264.73 1477.06 2264.73 1468.33 Q2264.73 1459.58 2267.78 1455 Q2270.86 1450.39 2276.67 1450.39 Z" fill="#000000" fill-rule="nonzero" fill-opacity="1" /><path clip-path="url(#clip940)" d="M2306.83 1454.1 Q2303.22 1454.1 2301.39 1457.66 Q2299.59 1461.2 2299.59 1468.33 Q2299.59 1475.44 2301.39 1479.01 Q2303.22 1482.55 2306.83 1482.55 Q2310.47 1482.55 2312.27 1479.01 Q2314.1 1475.44 2314.1 1468.33 Q2314.1 1461.2 2312.27 1457.66 Q2310.47 1454.1 2306.83 1454.1 M2306.83 1450.39 Q2312.64 1450.39 2315.7 1455 Q2318.78 1459.58 2318.78 1468.33 Q2318.78 1477.06 2315.7 1481.67 Q2312.64 1486.25 2306.83 1486.25 Q2301.02 1486.25 2297.95 1481.67 Q2294.89 1477.06 2294.89 1468.33 Q2294.89 1459.58 2297.95 1455 Q2301.02 1450.39 2306.83 1450.39 Z" fill="#000000" fill-rule="nonzero" fill-opacity="1" /><path clip-path="url(#clip940)" d="M2337 1454.1 Q2333.38 1454.1 2331.56 1457.66 Q2329.75 1461.2 2329.75 1468.33 Q2329.75 1475.44 2331.56 1479.01 Q2333.38 1482.55 2337 1482.55 Q2340.63 1482.55 2342.44 1479.01 Q2344.26 1475.44 2344.26 1468.33 Q2344.26 1461.2 2342.44 1457.66 Q2340.63 1454.1 2337 1454.1 M2337 1450.39 Q2342.81 1450.39 2345.86 1455 Q2348.94 1459.58 2348.94 1468.33 Q2348.94 1477.06 2345.86 1481.67 Q2342.81 1486.25 2337 1486.25 Q2331.19 1486.25 2328.11 1481.67 Q2325.05 1477.06 2325.05 1468.33 Q2325.05 1459.58 2328.11 1455 Q2331.19 1450.39 2337 1450.39 Z" fill="#000000" fill-rule="nonzero" fill-opacity="1" /><path clip-path="url(#clip940)" d="M1308.37 1546.53 L1308.37 1568.04 L1302.51 1568.04 L1302.51 1546.72 Q1302.51 1541.66 1300.54 1539.14 Q1298.57 1536.63 1294.62 1536.63 Q1289.88 1536.63 1287.14 1539.65 Q1284.4 1542.68 1284.4 1547.9 L1284.4 1568.04 L1278.51 1568.04 L1278.51 1532.4 L1284.4 1532.4 L1284.4 1537.93 Q1286.5 1534.72 1289.33 1533.13 Q1292.2 1531.54 1295.92 1531.54 Q1302.07 1531.54 1305.22 1535.36 Q1308.37 1539.14 1308.37 1546.53 Z" fill="#000000" fill-rule="nonzero" fill-opacity="1" /><polyline clip-path="url(#clip942)" style="stroke:#000000; stroke-linecap:round; stroke-linejoin:round; stroke-width:2; stroke-opacity:0.1; fill:none" points="234.125,1386.4 2352.76,1386.4 "/>
<polyline clip-path="url(#clip942)" style="stroke:#000000; stroke-linecap:round; stroke-linejoin:round; stroke-width:2; stroke-opacity:0.1; fill:none" points="234.125,1046.07 2352.76,1046.07 "/>
<polyline clip-path="url(#clip942)" style="stroke:#000000; stroke-linecap:round; stroke-linejoin:round; stroke-width:2; stroke-opacity:0.1; fill:none" points="234.125,705.739 2352.76,705.739 "/>
<polyline clip-path="url(#clip942)" style="stroke:#000000; stroke-linecap:round; stroke-linejoin:round; stroke-width:2; stroke-opacity:0.1; fill:none" points="234.125,365.411 2352.76,365.411 "/>
<polyline clip-path="url(#clip940)" style="stroke:#000000; stroke-linecap:round; stroke-linejoin:round; stroke-width:4; stroke-opacity:1; fill:none" points="234.125,1423.18 234.125,123.472 "/>
<polyline clip-path="url(#clip940)" style="stroke:#000000; stroke-linecap:round; stroke-linejoin:round; stroke-width:4; stroke-opacity:1; fill:none" points="234.125,1386.4 253.023,1386.4 "/>
<polyline clip-path="url(#clip940)" style="stroke:#000000; stroke-linecap:round; stroke-linejoin:round; stroke-width:4; stroke-opacity:1; fill:none" points="234.125,1046.07 253.023,1046.07 "/>
<polyline clip-path="url(#clip940)" style="stroke:#000000; stroke-linecap:round; stroke-linejoin:round; stroke-width:4; stroke-opacity:1; fill:none" points="234.125,705.739 253.023,705.739 "/>
<polyline clip-path="url(#clip940)" style="stroke:#000000; stroke-linecap:round; stroke-linejoin:round; stroke-width:4; stroke-opacity:1; fill:none" points="234.125,365.411 253.023,365.411 "/>
<path clip-path="url(#clip940)" d="M186.181 1372.19 Q182.57 1372.19 180.741 1375.76 Q178.936 1379.3 178.936 1386.43 Q178.936 1393.54 180.741 1397.1 Q182.57 1400.64 186.181 1400.64 Q189.815 1400.64 191.621 1397.1 Q193.45 1393.54 193.45 1386.43 Q193.45 1379.3 191.621 1375.76 Q189.815 1372.19 186.181 1372.19 M186.181 1368.49 Q191.991 1368.49 195.047 1373.1 Q198.125 1377.68 198.125 1386.43 Q198.125 1395.16 195.047 1399.76 Q191.991 1404.35 186.181 1404.35 Q180.371 1404.35 177.292 1399.76 Q174.237 1395.16 174.237 1386.43 Q174.237 1377.68 177.292 1373.1 Q180.371 1368.49 186.181 1368.49 Z" fill="#000000" fill-rule="nonzero" fill-opacity="1" /><path clip-path="url(#clip940)" d="M116.668 1059.41 L124.306 1059.41 L124.306 1033.05 L115.996 1034.71 L115.996 1030.45 L124.26 1028.79 L128.936 1028.79 L128.936 1059.41 L136.575 1059.41 L136.575 1063.35 L116.668 1063.35 L116.668 1059.41 Z" fill="#000000" fill-rule="nonzero" fill-opacity="1" /><path clip-path="url(#clip940)" d="M156.019 1031.87 Q152.408 1031.87 150.579 1035.43 Q148.774 1038.97 148.774 1046.1 Q148.774 1053.21 150.579 1056.77 Q152.408 1060.31 156.019 1060.31 Q159.653 1060.31 161.459 1056.77 Q163.288 1053.21 163.288 1046.1 Q163.288 1038.97 161.459 1035.43 Q159.653 1031.87 156.019 1031.87 M156.019 1028.16 Q161.829 1028.16 164.885 1032.77 Q167.964 1037.35 167.964 1046.1 Q167.964 1054.83 164.885 1059.44 Q161.829 1064.02 156.019 1064.02 Q150.209 1064.02 147.13 1059.44 Q144.075 1054.83 144.075 1046.1 Q144.075 1037.35 147.13 1032.77 Q150.209 1028.16 156.019 1028.16 Z" fill="#000000" fill-rule="nonzero" fill-opacity="1" /><path clip-path="url(#clip940)" d="M186.181 1031.87 Q182.57 1031.87 180.741 1035.43 Q178.936 1038.97 178.936 1046.1 Q178.936 1053.21 180.741 1056.77 Q182.57 1060.31 186.181 1060.31 Q189.815 1060.31 191.621 1056.77 Q193.45 1053.21 193.45 1046.1 Q193.45 1038.97 191.621 1035.43 Q189.815 1031.87 186.181 1031.87 M186.181 1028.16 Q191.991 1028.16 195.047 1032.77 Q198.125 1037.35 198.125 1046.1 Q198.125 1054.83 195.047 1059.44 Q191.991 1064.02 186.181 1064.02 Q180.371 1064.02 177.292 1059.44 Q174.237 1054.83 174.237 1046.1 Q174.237 1037.35 177.292 1032.77 Q180.371 1028.16 186.181 1028.16 Z" fill="#000000" fill-rule="nonzero" fill-opacity="1" /><path clip-path="url(#clip940)" d="M119.885 719.084 L136.204 719.084 L136.204 723.019 L114.26 723.019 L114.26 719.084 Q116.922 716.329 121.505 711.7 Q126.112 707.047 127.292 705.704 Q129.538 703.181 130.417 701.445 Q131.32 699.686 131.32 697.996 Q131.32 695.241 129.376 693.505 Q127.455 691.769 124.353 691.769 Q122.154 691.769 119.7 692.533 Q117.269 693.297 114.492 694.848 L114.492 690.126 Q117.316 688.991 119.769 688.413 Q122.223 687.834 124.26 687.834 Q129.63 687.834 132.825 690.519 Q136.019 693.204 136.019 697.695 Q136.019 699.825 135.209 701.746 Q134.422 703.644 132.316 706.237 Q131.737 706.908 128.635 710.125 Q125.533 713.32 119.885 719.084 Z" fill="#000000" fill-rule="nonzero" fill-opacity="1" /><path clip-path="url(#clip940)" d="M156.019 691.538 Q152.408 691.538 150.579 695.102 Q148.774 698.644 148.774 705.774 Q148.774 712.88 150.579 716.445 Q152.408 719.987 156.019 719.987 Q159.653 719.987 161.459 716.445 Q163.288 712.88 163.288 705.774 Q163.288 698.644 161.459 695.102 Q159.653 691.538 156.019 691.538 M156.019 687.834 Q161.829 687.834 164.885 692.44 Q167.964 697.024 167.964 705.774 Q167.964 714.5 164.885 719.107 Q161.829 723.69 156.019 723.69 Q150.209 723.69 147.13 719.107 Q144.075 714.5 144.075 705.774 Q144.075 697.024 147.13 692.44 Q150.209 687.834 156.019 687.834 Z" fill="#000000" fill-rule="nonzero" fill-opacity="1" /><path clip-path="url(#clip940)" d="M186.181 691.538 Q182.57 691.538 180.741 695.102 Q178.936 698.644 178.936 705.774 Q178.936 712.88 180.741 716.445 Q182.57 719.987 186.181 719.987 Q189.815 719.987 191.621 716.445 Q193.45 712.88 193.45 705.774 Q193.45 698.644 191.621 695.102 Q189.815 691.538 186.181 691.538 M186.181 687.834 Q191.991 687.834 195.047 692.44 Q198.125 697.024 198.125 705.774 Q198.125 714.5 195.047 719.107 Q191.991 723.69 186.181 723.69 Q180.371 723.69 177.292 719.107 Q174.237 714.5 174.237 705.774 Q174.237 697.024 177.292 692.44 Q180.371 687.834 186.181 687.834 Z" fill="#000000" fill-rule="nonzero" fill-opacity="1" /><path clip-path="url(#clip940)" d="M130.024 364.056 Q133.38 364.774 135.255 367.042 Q137.154 369.311 137.154 372.644 Q137.154 377.76 133.635 380.561 Q130.117 383.362 123.635 383.362 Q121.459 383.362 119.144 382.922 Q116.853 382.505 114.399 381.649 L114.399 377.135 Q116.343 378.269 118.658 378.848 Q120.973 379.427 123.496 379.427 Q127.894 379.427 130.186 377.691 Q132.501 375.954 132.501 372.644 Q132.501 369.589 130.348 367.876 Q128.218 366.14 124.399 366.14 L120.371 366.14 L120.371 362.297 L124.584 362.297 Q128.033 362.297 129.862 360.931 Q131.691 359.542 131.691 356.95 Q131.691 354.288 129.792 352.876 Q127.917 351.441 124.399 351.441 Q122.478 351.441 120.279 351.857 Q118.08 352.274 115.441 353.154 L115.441 348.987 Q118.103 348.246 120.418 347.876 Q122.755 347.506 124.816 347.506 Q130.14 347.506 133.242 349.936 Q136.343 352.343 136.343 356.464 Q136.343 359.334 134.7 361.325 Q133.056 363.292 130.024 364.056 Z" fill="#000000" fill-rule="nonzero" fill-opacity="1" /><path clip-path="url(#clip940)" d="M156.019 351.209 Q152.408 351.209 150.579 354.774 Q148.774 358.316 148.774 365.445 Q148.774 372.552 150.579 376.116 Q152.408 379.658 156.019 379.658 Q159.653 379.658 161.459 376.116 Q163.288 372.552 163.288 365.445 Q163.288 358.316 161.459 354.774 Q159.653 351.209 156.019 351.209 M156.019 347.506 Q161.829 347.506 164.885 352.112 Q167.964 356.695 167.964 365.445 Q167.964 374.172 164.885 378.778 Q161.829 383.362 156.019 383.362 Q150.209 383.362 147.13 378.778 Q144.075 374.172 144.075 365.445 Q144.075 356.695 147.13 352.112 Q150.209 347.506 156.019 347.506 Z" fill="#000000" fill-rule="nonzero" fill-opacity="1" /><path clip-path="url(#clip940)" d="M186.181 351.209 Q182.57 351.209 180.741 354.774 Q178.936 358.316 178.936 365.445 Q178.936 372.552 180.741 376.116 Q182.57 379.658 186.181 379.658 Q189.815 379.658 191.621 376.116 Q193.45 372.552 193.45 365.445 Q193.45 358.316 191.621 354.774 Q189.815 351.209 186.181 351.209 M186.181 347.506 Q191.991 347.506 195.047 352.112 Q198.125 356.695 198.125 365.445 Q198.125 374.172 195.047 378.778 Q191.991 383.362 186.181 383.362 Q180.371 383.362 177.292 378.778 Q174.237 374.172 174.237 365.445 Q174.237 356.695 177.292 352.112 Q180.371 347.506 186.181 347.506 Z" fill="#000000" fill-rule="nonzero" fill-opacity="1" /><path clip-path="url(#clip940)" d="M16.4842 979.4 L16.4842 969.819 L48.8219 957.693 L16.4842 945.502 L16.4842 935.922 L64.0042 935.922 L64.0042 942.192 L22.277 942.192 L54.8694 954.446 L54.8694 960.907 L22.277 973.161 L64.0042 973.161 L64.0042 979.4 L16.4842 979.4 Z" fill="#000000" fill-rule="nonzero" fill-opacity="1" /><path clip-path="url(#clip940)" d="M44.7161 892.922 L47.5806 892.922 L47.5806 919.849 Q53.6281 919.467 56.8109 916.22 Q59.9619 912.942 59.9619 907.117 Q59.9619 903.743 59.1344 900.592 Q58.3069 897.41 56.6518 894.29 L62.1899 894.29 Q63.5267 897.441 64.227 900.752 Q64.9272 904.062 64.9272 907.467 Q64.9272 915.997 59.9619 920.994 Q54.9967 925.96 46.5303 925.96 Q37.7774 925.96 32.6531 921.249 Q27.4968 916.507 27.4968 908.486 Q27.4968 901.293 32.1438 897.123 Q36.7589 892.922 44.7161 892.922 M42.9973 898.778 Q38.1912 898.842 35.3266 901.484 Q32.4621 904.094 32.4621 908.422 Q32.4621 913.324 35.2312 916.284 Q38.0002 919.212 43.0292 919.658 L42.9973 898.778 Z" fill="#000000" fill-rule="nonzero" fill-opacity="1" /><path clip-path="url(#clip940)" d="M35.1993 855.555 Q31.2526 853.359 29.3747 850.303 Q27.4968 847.248 27.4968 843.11 Q27.4968 837.54 31.4117 834.516 Q35.2948 831.493 42.4881 831.493 L64.0042 831.493 L64.0042 837.381 L42.679 837.381 Q37.5546 837.381 35.072 839.195 Q32.5894 841.009 32.5894 844.733 Q32.5894 849.285 35.6131 851.927 Q38.6368 854.568 43.8567 854.568 L64.0042 854.568 L64.0042 860.457 L42.679 860.457 Q37.5228 860.457 35.072 862.271 Q32.5894 864.085 32.5894 867.873 Q32.5894 872.36 35.6449 875.002 Q38.6686 877.644 43.8567 877.644 L64.0042 877.644 L64.0042 883.532 L28.3562 883.532 L28.3562 877.644 L33.8944 877.644 Q30.616 875.639 29.0564 872.838 Q27.4968 870.037 27.4968 866.186 Q27.4968 862.303 29.4702 859.597 Q31.4436 856.86 35.1993 855.555 Z" fill="#000000" fill-rule="nonzero" fill-opacity="1" /><path clip-path="url(#clip940)" d="M32.4621 805.998 Q32.4621 810.709 36.1542 813.446 Q39.8145 816.183 46.212 816.183 Q52.6095 816.183 56.3017 813.478 Q59.9619 810.74 59.9619 805.998 Q59.9619 801.319 56.2698 798.582 Q52.5777 795.845 46.212 795.845 Q39.8781 795.845 36.186 798.582 Q32.4621 801.319 32.4621 805.998 M27.4968 805.998 Q27.4968 798.359 32.4621 793.999 Q37.4273 789.638 46.212 789.638 Q54.9649 789.638 59.9619 793.999 Q64.9272 798.359 64.9272 805.998 Q64.9272 813.669 59.9619 818.029 Q54.9649 822.358 46.212 822.358 Q37.4273 822.358 32.4621 818.029 Q27.4968 813.669 27.4968 805.998 Z" fill="#000000" fill-rule="nonzero" fill-opacity="1" /><path clip-path="url(#clip940)" d="M33.8307 759.274 Q33.2578 760.26 33.0032 761.438 Q32.7167 762.584 32.7167 763.984 Q32.7167 768.95 35.9632 771.623 Q39.1779 774.265 45.2253 774.265 L64.0042 774.265 L64.0042 780.153 L28.3562 780.153 L28.3562 774.265 L33.8944 774.265 Q30.6479 772.419 29.0883 769.459 Q27.4968 766.499 27.4968 762.266 Q27.4968 761.661 27.5923 760.929 Q27.656 760.197 27.8151 759.306 L33.8307 759.274 Z" fill="#000000" fill-rule="nonzero" fill-opacity="1" /><path clip-path="url(#clip940)" d="M67.3143 738.299 Q73.68 740.781 75.6216 743.137 Q77.5631 745.492 77.5631 749.439 L77.5631 754.117 L72.6615 754.117 L72.6615 750.68 Q72.6615 748.261 71.5157 746.924 Q70.3699 745.587 66.1048 743.964 L63.4312 742.914 L28.3562 757.332 L28.3562 751.126 L56.238 739.986 L28.3562 728.846 L28.3562 722.639 L67.3143 738.299 Z" fill="#000000" fill-rule="nonzero" fill-opacity="1" /><path clip-path="url(#clip940)" d="M14.5426 679.766 Q21.8632 684.031 29.0246 686.1 Q36.186 688.169 43.5384 688.169 Q50.8908 688.169 58.1159 686.1 Q65.3091 683.999 72.5979 679.766 L72.5979 684.859 Q65.1182 689.633 57.8931 692.02 Q50.668 694.375 43.5384 694.375 Q36.4406 694.375 29.2474 692.02 Q22.0542 689.665 14.5426 684.859 L14.5426 679.766 Z" fill="#000000" fill-rule="nonzero" fill-opacity="1" /><path clip-path="url(#clip940)" d="M16.4842 668.149 L16.4842 661.719 L36.568 661.719 L16.4842 640.394 L16.4842 632.119 L38.6368 655.704 L64.0042 630.432 L64.0042 638.898 L41.1194 661.719 L64.0042 661.719 L64.0042 668.149 L16.4842 668.149 Z" fill="#000000" fill-rule="nonzero" fill-opacity="1" /><path clip-path="url(#clip940)" d="M41.3104 618.974 L58.7206 618.974 L58.7206 608.661 Q58.7206 603.473 56.5881 600.99 Q54.4238 598.476 49.9996 598.476 Q45.5436 598.476 43.4429 600.99 Q41.3104 603.473 41.3104 608.661 L41.3104 618.974 M21.7677 618.974 L36.0905 618.974 L36.0905 609.457 Q36.0905 604.746 34.34 602.455 Q32.5576 600.131 28.9291 600.131 Q25.3325 600.131 23.5501 602.455 Q21.7677 604.746 21.7677 609.457 L21.7677 618.974 M16.4842 625.403 L16.4842 608.979 Q16.4842 601.627 19.5397 597.648 Q22.5952 593.67 28.2289 593.67 Q32.5894 593.67 35.1675 595.707 Q37.7456 597.744 38.3822 601.691 Q39.4007 596.948 42.6472 594.338 Q45.8619 591.696 50.6998 591.696 Q57.0655 591.696 60.5348 596.025 Q64.0042 600.354 64.0042 608.343 L64.0042 625.403 L16.4842 625.403 Z" fill="#000000" fill-rule="nonzero" fill-opacity="1" /><path clip-path="url(#clip940)" d="M14.5426 581.861 L14.5426 576.769 Q22.0542 571.995 29.2474 569.639 Q36.4406 567.252 43.5384 567.252 Q50.668 567.252 57.8931 569.639 Q65.1182 571.995 72.5979 576.769 L72.5979 581.861 Q65.3091 577.628 58.1159 575.559 Q50.8908 573.459 43.5384 573.459 Q36.186 573.459 29.0246 575.559 Q21.8632 577.628 14.5426 581.861 Z" fill="#000000" fill-rule="nonzero" fill-opacity="1" /><path clip-path="url(#clip940)" d="M988.59 12.096 L1000.78 12.096 L1016.22 53.2532 L1031.73 12.096 L1043.93 12.096 L1043.93 72.576 L1035.94 72.576 L1035.94 19.4686 L1020.35 60.9499 L1012.13 60.9499 L996.53 19.4686 L996.53 72.576 L988.59 72.576 L988.59 12.096 Z" fill="#000000" fill-rule="nonzero" fill-opacity="1" /><path clip-path="url(#clip940)" d="M1098.65 48.0275 L1098.65 51.6733 L1064.38 51.6733 Q1064.87 59.3701 1069 63.421 Q1073.17 67.4314 1080.59 67.4314 Q1084.88 67.4314 1088.89 66.3781 Q1092.94 65.3249 1096.91 63.2184 L1096.91 70.267 Q1092.9 71.9684 1088.69 72.8596 Q1084.47 73.7508 1080.14 73.7508 Q1069.28 73.7508 1062.92 67.4314 Q1056.6 61.1119 1056.6 50.3365 Q1056.6 39.1965 1062.6 32.6746 Q1068.64 26.1121 1078.84 26.1121 Q1088 26.1121 1093.31 32.0264 Q1098.65 37.9003 1098.65 48.0275 M1091.2 45.84 Q1091.12 39.7232 1087.76 36.0774 Q1084.43 32.4315 1078.93 32.4315 Q1072.69 32.4315 1068.92 35.9558 Q1065.19 39.4801 1064.63 45.8805 L1091.2 45.84 Z" fill="#000000" fill-rule="nonzero" fill-opacity="1" /><path clip-path="url(#clip940)" d="M1146.21 35.9153 Q1149.01 30.8922 1152.89 28.5022 Q1156.78 26.1121 1162.05 26.1121 Q1169.14 26.1121 1172.99 31.0947 Q1176.84 36.0368 1176.84 45.1919 L1176.84 72.576 L1169.34 72.576 L1169.34 45.4349 Q1169.34 38.913 1167.03 35.7533 Q1164.72 32.5936 1159.98 32.5936 Q1154.19 32.5936 1150.83 36.4419 Q1147.47 40.2903 1147.47 46.9338 L1147.47 72.576 L1139.97 72.576 L1139.97 45.4349 Q1139.97 38.8725 1137.66 35.7533 Q1135.35 32.5936 1130.53 32.5936 Q1124.82 32.5936 1121.46 36.4824 Q1118.1 40.3308 1118.1 46.9338 L1118.1 72.576 L1110.6 72.576 L1110.6 27.2059 L1118.1 27.2059 L1118.1 34.2544 Q1120.65 30.082 1124.21 28.0971 Q1127.78 26.1121 1132.68 26.1121 Q1137.62 26.1121 1141.07 28.6237 Q1144.55 31.1352 1146.21 35.9153 Z" fill="#000000" fill-rule="nonzero" fill-opacity="1" /><path clip-path="url(#clip940)" d="M1209.28 32.4315 Q1203.29 32.4315 1199.8 37.1306 Q1196.32 41.7891 1196.32 49.9314 Q1196.32 58.0738 1199.76 62.7728 Q1203.25 67.4314 1209.28 67.4314 Q1215.24 67.4314 1218.72 62.7323 Q1222.21 58.0333 1222.21 49.9314 Q1222.21 41.8701 1218.72 37.1711 Q1215.24 32.4315 1209.28 32.4315 M1209.28 26.1121 Q1219.01 26.1121 1224.56 32.4315 Q1230.1 38.7509 1230.1 49.9314 Q1230.1 61.0714 1224.56 67.4314 Q1219.01 73.7508 1209.28 73.7508 Q1199.52 73.7508 1193.97 67.4314 Q1188.46 61.0714 1188.46 49.9314 Q1188.46 38.7509 1193.97 32.4315 Q1199.52 26.1121 1209.28 26.1121 Z" fill="#000000" fill-rule="nonzero" fill-opacity="1" /><path clip-path="url(#clip940)" d="M1268.75 34.1734 Q1267.49 33.4443 1266 33.1202 Q1264.54 32.7556 1262.76 32.7556 Q1256.44 32.7556 1253.03 36.8875 Q1249.67 40.9789 1249.67 48.6757 L1249.67 72.576 L1242.18 72.576 L1242.18 27.2059 L1249.67 27.2059 L1249.67 34.2544 Q1252.02 30.1225 1255.79 28.1376 Q1259.55 26.1121 1264.94 26.1121 Q1265.71 26.1121 1266.64 26.2337 Q1267.58 26.3147 1268.71 26.5172 L1268.75 34.1734 Z" fill="#000000" fill-rule="nonzero" fill-opacity="1" /><path clip-path="url(#clip940)" d="M1295.45 76.7889 Q1292.29 84.8907 1289.29 87.3618 Q1286.29 89.8329 1281.27 89.8329 L1275.31 89.8329 L1275.31 83.5945 L1279.69 83.5945 Q1282.77 83.5945 1284.47 82.1361 Q1286.17 80.6778 1288.24 75.2496 L1289.57 71.8468 L1271.22 27.2059 L1279.12 27.2059 L1293.3 62.6918 L1307.48 27.2059 L1315.38 27.2059 L1295.45 76.7889 Z" fill="#000000" fill-rule="nonzero" fill-opacity="1" /><path clip-path="url(#clip940)" d="M1351.43 12.096 L1359.65 12.096 L1359.65 48.8377 Q1359.65 58.5599 1363.18 62.8538 Q1366.7 67.1073 1374.6 67.1073 Q1382.46 67.1073 1385.98 62.8538 Q1389.51 58.5599 1389.51 48.8377 L1389.51 12.096 L1397.73 12.096 L1397.73 49.8504 Q1397.73 61.6791 1391.86 67.7149 Q1386.02 73.7508 1374.6 73.7508 Q1363.14 73.7508 1357.26 67.7149 Q1351.43 61.6791 1351.43 49.8504 L1351.43 12.096 Z" fill="#000000" fill-rule="nonzero" fill-opacity="1" /><path clip-path="url(#clip940)" d="M1441.68 28.5427 L1441.68 35.5912 Q1438.52 33.9709 1435.12 33.1607 Q1431.72 32.3505 1428.07 32.3505 Q1422.52 32.3505 1419.73 34.0519 Q1416.97 35.7533 1416.97 39.156 Q1416.97 41.7486 1418.96 43.2475 Q1420.94 44.7058 1426.94 46.0426 L1429.49 46.6097 Q1437.43 48.3111 1440.75 51.4303 Q1444.11 54.509 1444.11 60.0587 Q1444.11 66.3781 1439.09 70.0644 Q1434.11 73.7508 1425.36 73.7508 Q1421.71 73.7508 1417.74 73.0216 Q1413.81 72.3329 1409.44 70.9151 L1409.44 63.2184 Q1413.57 65.3654 1417.58 66.4591 Q1421.59 67.5124 1425.52 67.5124 Q1430.79 67.5124 1433.62 65.73 Q1436.46 63.9071 1436.46 60.6258 Q1436.46 57.5877 1434.39 55.9673 Q1432.37 54.3469 1425.44 52.8481 L1422.85 52.2405 Q1415.92 50.7821 1412.84 47.7845 Q1409.76 44.7463 1409.76 39.4801 Q1409.76 33.0797 1414.3 29.5959 Q1418.84 26.1121 1427.18 26.1121 Q1431.31 26.1121 1434.96 26.7198 Q1438.6 27.3274 1441.68 28.5427 Z" fill="#000000" fill-rule="nonzero" fill-opacity="1" /><path clip-path="url(#clip940)" d="M1476.6 49.7694 Q1467.57 49.7694 1464.09 51.8354 Q1460.6 53.9013 1460.6 58.8839 Q1460.6 62.8538 1463.19 65.2034 Q1465.83 67.5124 1470.32 67.5124 Q1476.52 67.5124 1480.25 63.1374 Q1484.02 58.7219 1484.02 51.4303 L1484.02 49.7694 L1476.6 49.7694 M1491.47 46.6907 L1491.47 72.576 L1484.02 72.576 L1484.02 65.6895 Q1481.46 69.8214 1477.66 71.8063 Q1473.85 73.7508 1468.34 73.7508 Q1461.37 73.7508 1457.24 69.8619 Q1453.15 65.9325 1453.15 59.3701 Q1453.15 51.7138 1458.25 47.825 Q1463.4 43.9361 1473.56 43.9361 L1484.02 43.9361 L1484.02 43.2069 Q1484.02 38.0623 1480.61 35.2672 Q1477.25 32.4315 1471.13 32.4315 Q1467.24 32.4315 1463.56 33.3632 Q1459.87 34.295 1456.47 36.1584 L1456.47 29.2718 Q1460.56 27.692 1464.41 26.9223 Q1468.26 26.1121 1471.9 26.1121 Q1481.75 26.1121 1486.61 31.2163 Q1491.47 36.3204 1491.47 46.6907 Z" fill="#000000" fill-rule="nonzero" fill-opacity="1" /><path clip-path="url(#clip940)" d="M1536.68 49.3643 Q1536.68 41.2625 1533.31 36.8065 Q1529.99 32.3505 1523.96 32.3505 Q1517.96 32.3505 1514.6 36.8065 Q1511.28 41.2625 1511.28 49.3643 Q1511.28 57.4256 1514.6 61.8816 Q1517.96 66.3376 1523.96 66.3376 Q1529.99 66.3376 1533.31 61.8816 Q1536.68 57.4256 1536.68 49.3643 M1544.13 66.9452 Q1544.13 78.5308 1538.99 84.1616 Q1533.84 89.8329 1523.23 89.8329 Q1519.3 89.8329 1515.82 89.2252 Q1512.33 88.6581 1509.05 87.4428 L1509.05 80.1917 Q1512.33 81.9741 1515.53 82.8248 Q1518.73 83.6755 1522.05 83.6755 Q1529.39 83.6755 1533.03 79.8271 Q1536.68 76.0193 1536.68 68.282 L1536.68 64.5957 Q1534.37 68.6061 1530.76 70.5911 Q1527.16 72.576 1522.13 72.576 Q1513.79 72.576 1508.69 66.2161 Q1503.58 59.8562 1503.58 49.3643 Q1503.58 38.832 1508.69 32.472 Q1513.79 26.1121 1522.13 26.1121 Q1527.16 26.1121 1530.76 28.0971 Q1534.37 30.082 1536.68 34.0924 L1536.68 27.2059 L1544.13 27.2059 L1544.13 66.9452 Z" fill="#000000" fill-rule="nonzero" fill-opacity="1" /><path clip-path="url(#clip940)" d="M1598.29 48.0275 L1598.29 51.6733 L1564.02 51.6733 Q1564.51 59.3701 1568.64 63.421 Q1572.81 67.4314 1580.22 67.4314 Q1584.52 67.4314 1588.53 66.3781 Q1592.58 65.3249 1596.55 63.2184 L1596.55 70.267 Q1592.54 71.9684 1588.33 72.8596 Q1584.11 73.7508 1579.78 73.7508 Q1568.92 73.7508 1562.56 67.4314 Q1556.24 61.1119 1556.24 50.3365 Q1556.24 39.1965 1562.24 32.6746 Q1568.27 26.1121 1578.48 26.1121 Q1587.64 26.1121 1592.94 32.0264 Q1598.29 37.9003 1598.29 48.0275 M1590.84 45.84 Q1590.76 39.7232 1587.39 36.0774 Q1584.07 32.4315 1578.56 32.4315 Q1572.33 32.4315 1568.56 35.9558 Q1564.83 39.4801 1564.26 45.8805 L1590.84 45.84 Z" fill="#000000" fill-rule="nonzero" fill-opacity="1" /><polyline clip-path="url(#clip942)" style="stroke:#009af9; stroke-linecap:round; stroke-linejoin:round; stroke-width:4; stroke-opacity:1; fill:none" points="294.087,1386.4 304.13,1386.4 324.218,1386.4 384.481,1386.4 484.918,1386.4 786.231,1386.4 1288.42,1386.4 2292.79,1386.4 "/>
<circle clip-path="url(#clip942)" cx="294.087" cy="1386.4" r="14.4" fill="#009af9" fill-rule="evenodd" fill-opacity="1" stroke="#000000" stroke-opacity="1" stroke-width="3.2"/>
<circle clip-path="url(#clip942)" cx="304.13" cy="1386.4" r="14.4" fill="#009af9" fill-rule="evenodd" fill-opacity="1" stroke="#000000" stroke-opacity="1" stroke-width="3.2"/>
<circle clip-path="url(#clip942)" cx="324.218" cy="1386.4" r="14.4" fill="#009af9" fill-rule="evenodd" fill-opacity="1" stroke="#000000" stroke-opacity="1" stroke-width="3.2"/>
<circle clip-path="url(#clip942)" cx="384.481" cy="1386.4" r="14.4" fill="#009af9" fill-rule="evenodd" fill-opacity="1" stroke="#000000" stroke-opacity="1" stroke-width="3.2"/>
<circle clip-path="url(#clip942)" cx="484.918" cy="1386.4" r="14.4" fill="#009af9" fill-rule="evenodd" fill-opacity="1" stroke="#000000" stroke-opacity="1" stroke-width="3.2"/>
<circle clip-path="url(#clip942)" cx="786.231" cy="1386.4" r="14.4" fill="#009af9" fill-rule="evenodd" fill-opacity="1" stroke="#000000" stroke-opacity="1" stroke-width="3.2"/>
<circle clip-path="url(#clip942)" cx="1288.42" cy="1386.4" r="14.4" fill="#009af9" fill-rule="evenodd" fill-opacity="1" stroke="#000000" stroke-opacity="1" stroke-width="3.2"/>
<circle clip-path="url(#clip942)" cx="2292.79" cy="1386.4" r="14.4" fill="#009af9" fill-rule="evenodd" fill-opacity="1" stroke="#000000" stroke-opacity="1" stroke-width="3.2"/>
<polyline clip-path="url(#clip942)" style="stroke:#e26f46; stroke-linecap:round; stroke-linejoin:round; stroke-width:4; stroke-opacity:1; fill:none" points="294.087,1377.41 304.13,1371.29 324.218,1359.01 384.481,1322.27 484.918,1260.74 786.231,1077.44 1288.42,771.784 2292.79,160.256 "/>
<circle clip-path="url(#clip942)" cx="294.087" cy="1377.41" r="14.4" fill="#e26f46" fill-rule="evenodd" fill-opacity="1" stroke="#000000" stroke-opacity="1" stroke-width="3.2"/>
<circle clip-path="url(#clip942)" cx="304.13" cy="1371.29" r="14.4" fill="#e26f46" fill-rule="evenodd" fill-opacity="1" stroke="#000000" stroke-opacity="1" stroke-width="3.2"/>
<circle clip-path="url(#clip942)" cx="324.218" cy="1359.01" r="14.4" fill="#e26f46" fill-rule="evenodd" fill-opacity="1" stroke="#000000" stroke-opacity="1" stroke-width="3.2"/>
<circle clip-path="url(#clip942)" cx="384.481" cy="1322.27" r="14.4" fill="#e26f46" fill-rule="evenodd" fill-opacity="1" stroke="#000000" stroke-opacity="1" stroke-width="3.2"/>
<circle clip-path="url(#clip942)" cx="484.918" cy="1260.74" r="14.4" fill="#e26f46" fill-rule="evenodd" fill-opacity="1" stroke="#000000" stroke-opacity="1" stroke-width="3.2"/>
<circle clip-path="url(#clip942)" cx="786.231" cy="1077.44" r="14.4" fill="#e26f46" fill-rule="evenodd" fill-opacity="1" stroke="#000000" stroke-opacity="1" stroke-width="3.2"/>
<circle clip-path="url(#clip942)" cx="1288.42" cy="771.784" r="14.4" fill="#e26f46" fill-rule="evenodd" fill-opacity="1" stroke="#000000" stroke-opacity="1" stroke-width="3.2"/>
<circle clip-path="url(#clip942)" cx="2292.79" cy="160.256" r="14.4" fill="#e26f46" fill-rule="evenodd" fill-opacity="1" stroke="#000000" stroke-opacity="1" stroke-width="3.2"/>
<path clip-path="url(#clip940)" d="M304.746 322.316 L787.14 322.316 L787.14 166.796 L304.746 166.796  Z" fill="#ffffff" fill-rule="evenodd" fill-opacity="1"/>
<polyline clip-path="url(#clip940)" style="stroke:#000000; stroke-linecap:round; stroke-linejoin:round; stroke-width:4; stroke-opacity:1; fill:none" points="304.746,322.316 787.14,322.316 787.14,166.796 304.746,166.796 304.746,322.316 "/>
<polyline clip-path="url(#clip940)" style="stroke:#009af9; stroke-linecap:round; stroke-linejoin:round; stroke-width:4; stroke-opacity:1; fill:none" points="328.287,218.636 469.529,218.636 "/>
<circle clip-path="url(#clip940)" cx="398.908" cy="218.636" r="19.6169" fill="#009af9" fill-rule="evenodd" fill-opacity="1" stroke="#000000" stroke-opacity="1" stroke-width="4.55111"/>
<path clip-path="url(#clip940)" d="M511.495 210.754 L511.495 214.782 Q509.689 213.856 507.745 213.393 Q505.801 212.93 503.717 212.93 Q500.546 212.93 498.949 213.902 Q497.375 214.874 497.375 216.819 Q497.375 218.3 498.509 219.157 Q499.643 219.99 503.069 220.754 L504.527 221.078 Q509.064 222.05 510.963 223.832 Q512.884 225.592 512.884 228.763 Q512.884 232.374 510.014 234.481 Q507.166 236.587 502.166 236.587 Q500.083 236.587 497.815 236.17 Q495.569 235.777 493.069 234.967 L493.069 230.569 Q495.43 231.795 497.722 232.42 Q500.014 233.022 502.259 233.022 Q505.268 233.022 506.889 232.004 Q508.509 230.962 508.509 229.087 Q508.509 227.351 507.328 226.425 Q506.171 225.499 502.213 224.643 L500.731 224.295 Q496.773 223.462 495.014 221.749 Q493.254 220.013 493.254 217.004 Q493.254 213.346 495.847 211.356 Q498.44 209.365 503.208 209.365 Q505.569 209.365 507.652 209.712 Q509.736 210.059 511.495 210.754 Z" fill="#000000" fill-rule="nonzero" fill-opacity="1" /><path clip-path="url(#clip940)" d="M538.324 210.985 L538.324 214.967 Q536.518 213.971 534.689 213.485 Q532.884 212.976 531.032 212.976 Q526.888 212.976 524.597 215.615 Q522.305 218.231 522.305 222.976 Q522.305 227.721 524.597 230.36 Q526.888 232.976 531.032 232.976 Q532.884 232.976 534.689 232.49 Q536.518 231.981 538.324 230.985 L538.324 234.92 Q536.541 235.754 534.62 236.17 Q532.722 236.587 530.569 236.587 Q524.713 236.587 521.263 232.906 Q517.814 229.226 517.814 222.976 Q517.814 216.633 521.287 212.999 Q524.782 209.365 530.847 209.365 Q532.814 209.365 534.689 209.782 Q536.564 210.175 538.324 210.985 Z" fill="#000000" fill-rule="nonzero" fill-opacity="1" /><path clip-path="url(#clip940)" d="M557.513 222.883 Q552.351 222.883 550.361 224.064 Q548.37 225.244 548.37 228.092 Q548.37 230.36 549.851 231.703 Q551.356 233.022 553.925 233.022 Q557.467 233.022 559.597 230.522 Q561.749 227.999 561.749 223.832 L561.749 222.883 L557.513 222.883 M566.009 221.124 L566.009 235.916 L561.749 235.916 L561.749 231.981 Q560.291 234.342 558.115 235.476 Q555.939 236.587 552.791 236.587 Q548.81 236.587 546.449 234.365 Q544.111 232.119 544.111 228.369 Q544.111 223.994 547.027 221.772 Q549.967 219.55 555.777 219.55 L561.749 219.55 L561.749 219.133 Q561.749 216.194 559.805 214.596 Q557.884 212.976 554.388 212.976 Q552.166 212.976 550.06 213.508 Q547.953 214.041 546.009 215.106 L546.009 211.17 Q548.347 210.268 550.546 209.828 Q552.745 209.365 554.828 209.365 Q560.453 209.365 563.231 212.282 Q566.009 215.198 566.009 221.124 Z" fill="#000000" fill-rule="nonzero" fill-opacity="1" /><path clip-path="url(#clip940)" d="M574.782 199.897 L579.041 199.897 L579.041 235.916 L574.782 235.916 L574.782 199.897 Z" fill="#000000" fill-rule="nonzero" fill-opacity="1" /><path clip-path="url(#clip940)" d="M599.735 222.883 Q594.573 222.883 592.583 224.064 Q590.592 225.244 590.592 228.092 Q590.592 230.36 592.073 231.703 Q593.578 233.022 596.147 233.022 Q599.689 233.022 601.819 230.522 Q603.971 227.999 603.971 223.832 L603.971 222.883 L599.735 222.883 M608.231 221.124 L608.231 235.916 L603.971 235.916 L603.971 231.981 Q602.513 234.342 600.337 235.476 Q598.161 236.587 595.013 236.587 Q591.032 236.587 588.671 234.365 Q586.333 232.119 586.333 228.369 Q586.333 223.994 589.249 221.772 Q592.189 219.55 597.999 219.55 L603.971 219.55 L603.971 219.133 Q603.971 216.194 602.027 214.596 Q600.106 212.976 596.61 212.976 Q594.388 212.976 592.282 213.508 Q590.175 214.041 588.231 215.106 L588.231 211.17 Q590.569 210.268 592.768 209.828 Q594.967 209.365 597.05 209.365 Q602.675 209.365 605.453 212.282 Q608.231 215.198 608.231 221.124 Z" fill="#000000" fill-rule="nonzero" fill-opacity="1" /><path clip-path="url(#clip940)" d="M632.027 213.971 Q631.309 213.555 630.453 213.37 Q629.619 213.161 628.601 213.161 Q624.99 213.161 623.045 215.522 Q621.124 217.86 621.124 222.258 L621.124 235.916 L616.842 235.916 L616.842 209.99 L621.124 209.99 L621.124 214.018 Q622.467 211.657 624.619 210.522 Q626.772 209.365 629.851 209.365 Q630.291 209.365 630.823 209.434 Q631.355 209.481 632.004 209.596 L632.027 213.971 Z" fill="#000000" fill-rule="nonzero" fill-opacity="1" /><path clip-path="url(#clip940)" d="M664.689 199.897 L664.689 203.439 L660.615 203.439 Q658.323 203.439 657.42 204.365 Q656.541 205.291 656.541 207.698 L656.541 209.99 L663.554 209.99 L663.554 213.3 L656.541 213.3 L656.541 235.916 L652.258 235.916 L652.258 213.3 L648.184 213.3 L648.184 209.99 L652.258 209.99 L652.258 208.184 Q652.258 203.856 654.272 201.888 Q656.286 199.897 660.661 199.897 L664.689 199.897 Z" fill="#000000" fill-rule="nonzero" fill-opacity="1" /><path clip-path="url(#clip940)" d="M678.3 212.976 Q674.874 212.976 672.883 215.661 Q670.892 218.323 670.892 222.976 Q670.892 227.629 672.86 230.314 Q674.851 232.976 678.3 232.976 Q681.702 232.976 683.693 230.291 Q685.684 227.606 685.684 222.976 Q685.684 218.37 683.693 215.684 Q681.702 212.976 678.3 212.976 M678.3 209.365 Q683.855 209.365 687.026 212.976 Q690.198 216.587 690.198 222.976 Q690.198 229.342 687.026 232.976 Q683.855 236.587 678.3 236.587 Q672.721 236.587 669.55 232.976 Q666.402 229.342 666.402 222.976 Q666.402 216.587 669.55 212.976 Q672.721 209.365 678.3 209.365 Z" fill="#000000" fill-rule="nonzero" fill-opacity="1" /><path clip-path="url(#clip940)" d="M712.281 213.971 Q711.563 213.555 710.707 213.37 Q709.874 213.161 708.855 213.161 Q705.244 213.161 703.3 215.522 Q701.378 217.86 701.378 222.258 L701.378 235.916 L697.096 235.916 L697.096 209.99 L701.378 209.99 L701.378 214.018 Q702.721 211.657 704.874 210.522 Q707.026 209.365 710.105 209.365 Q710.545 209.365 711.077 209.434 Q711.61 209.481 712.258 209.596 L712.281 213.971 Z" fill="#000000" fill-rule="nonzero" fill-opacity="1" /><path clip-path="url(#clip940)" d="M736.1 214.967 Q737.697 212.096 739.92 210.731 Q742.142 209.365 745.151 209.365 Q749.202 209.365 751.401 212.212 Q753.6 215.036 753.6 220.268 L753.6 235.916 L749.318 235.916 L749.318 220.407 Q749.318 216.68 747.998 214.874 Q746.679 213.069 743.971 213.069 Q740.66 213.069 738.739 215.268 Q736.818 217.467 736.818 221.263 L736.818 235.916 L732.535 235.916 L732.535 220.407 Q732.535 216.657 731.216 214.874 Q729.897 213.069 727.142 213.069 Q723.878 213.069 721.957 215.291 Q720.036 217.49 720.036 221.263 L720.036 235.916 L715.753 235.916 L715.753 209.99 L720.036 209.99 L720.036 214.018 Q721.494 211.633 723.531 210.499 Q725.568 209.365 728.369 209.365 Q731.193 209.365 733.16 210.8 Q735.151 212.235 736.1 214.967 Z" fill="#000000" fill-rule="nonzero" fill-opacity="1" /><polyline clip-path="url(#clip940)" style="stroke:#e26f46; stroke-linecap:round; stroke-linejoin:round; stroke-width:4; stroke-opacity:1; fill:none" points="328.287,270.476 469.529,270.476 "/>
<circle clip-path="url(#clip940)" cx="398.908" cy="270.476" r="19.6169" fill="#e26f46" fill-rule="evenodd" fill-opacity="1" stroke="#000000" stroke-opacity="1" stroke-width="4.55111"/>
<path clip-path="url(#clip940)" d="M493.069 261.83 L497.583 261.83 L505.685 283.589 L513.787 261.83 L518.301 261.83 L508.578 287.756 L502.791 287.756 L493.069 261.83 Z" fill="#000000" fill-rule="nonzero" fill-opacity="1" /><path clip-path="url(#clip940)" d="M546.356 273.728 L546.356 275.811 L526.773 275.811 Q527.05 280.209 529.412 282.524 Q531.796 284.816 536.032 284.816 Q538.486 284.816 540.777 284.214 Q543.092 283.612 545.361 282.409 L545.361 286.436 Q543.069 287.408 540.662 287.918 Q538.254 288.427 535.777 288.427 Q529.574 288.427 525.939 284.816 Q522.328 281.205 522.328 275.047 Q522.328 268.682 525.754 264.955 Q529.203 261.205 535.037 261.205 Q540.268 261.205 543.3 264.585 Q546.356 267.941 546.356 273.728 M542.097 272.478 Q542.05 268.983 540.129 266.899 Q538.231 264.816 535.083 264.816 Q531.518 264.816 529.365 266.83 Q527.236 268.844 526.912 272.501 L542.097 272.478 Z" fill="#000000" fill-rule="nonzero" fill-opacity="1" /><path clip-path="url(#clip940)" d="M572.004 262.825 L572.004 266.807 Q570.198 265.811 568.37 265.325 Q566.564 264.816 564.712 264.816 Q560.569 264.816 558.277 267.455 Q555.986 270.071 555.986 274.816 Q555.986 279.561 558.277 282.2 Q560.569 284.816 564.712 284.816 Q566.564 284.816 568.37 284.33 Q570.198 283.821 572.004 282.825 L572.004 286.76 Q570.222 287.594 568.3 288.01 Q566.402 288.427 564.249 288.427 Q558.393 288.427 554.944 284.746 Q551.495 281.066 551.495 274.816 Q551.495 268.473 554.967 264.839 Q558.462 261.205 564.527 261.205 Q566.495 261.205 568.37 261.622 Q570.245 262.015 572.004 262.825 Z" fill="#000000" fill-rule="nonzero" fill-opacity="1" /><path clip-path="url(#clip940)" d="M583.624 254.469 L583.624 261.83 L592.397 261.83 L592.397 265.14 L583.624 265.14 L583.624 279.214 Q583.624 282.385 584.481 283.288 Q585.36 284.191 588.022 284.191 L592.397 284.191 L592.397 287.756 L588.022 287.756 Q583.092 287.756 581.217 285.927 Q579.342 284.075 579.342 279.214 L579.342 265.14 L576.217 265.14 L576.217 261.83 L579.342 261.83 L579.342 254.469 L583.624 254.469 Z" fill="#000000" fill-rule="nonzero" fill-opacity="1" /><path clip-path="url(#clip940)" d="M608.045 264.816 Q604.619 264.816 602.629 267.501 Q600.638 270.163 600.638 274.816 Q600.638 279.469 602.606 282.154 Q604.596 284.816 608.045 284.816 Q611.448 284.816 613.439 282.131 Q615.43 279.446 615.43 274.816 Q615.43 270.21 613.439 267.524 Q611.448 264.816 608.045 264.816 M608.045 261.205 Q613.601 261.205 616.772 264.816 Q619.943 268.427 619.943 274.816 Q619.943 281.182 616.772 284.816 Q613.601 288.427 608.045 288.427 Q602.467 288.427 599.295 284.816 Q596.147 281.182 596.147 274.816 Q596.147 268.427 599.295 264.816 Q602.467 261.205 608.045 261.205 Z" fill="#000000" fill-rule="nonzero" fill-opacity="1" /><path clip-path="url(#clip940)" d="M642.027 265.811 Q641.309 265.395 640.453 265.21 Q639.619 265.001 638.601 265.001 Q634.99 265.001 633.045 267.362 Q631.124 269.7 631.124 274.098 L631.124 287.756 L626.842 287.756 L626.842 261.83 L631.124 261.83 L631.124 265.858 Q632.467 263.497 634.619 262.362 Q636.772 261.205 639.851 261.205 Q640.291 261.205 640.823 261.274 Q641.355 261.321 642.004 261.436 L642.027 265.811 Z" fill="#000000" fill-rule="nonzero" fill-opacity="1" /><path clip-path="url(#clip940)" d="M674.689 251.737 L674.689 255.279 L670.615 255.279 Q668.323 255.279 667.42 256.205 Q666.54 257.131 666.54 259.538 L666.54 261.83 L673.554 261.83 L673.554 265.14 L666.54 265.14 L666.54 287.756 L662.258 287.756 L662.258 265.14 L658.184 265.14 L658.184 261.83 L662.258 261.83 L662.258 260.024 Q662.258 255.696 664.272 253.728 Q666.286 251.737 670.661 251.737 L674.689 251.737 Z" fill="#000000" fill-rule="nonzero" fill-opacity="1" /><path clip-path="url(#clip940)" d="M688.3 264.816 Q684.874 264.816 682.883 267.501 Q680.892 270.163 680.892 274.816 Q680.892 279.469 682.86 282.154 Q684.851 284.816 688.3 284.816 Q691.702 284.816 693.693 282.131 Q695.684 279.446 695.684 274.816 Q695.684 270.21 693.693 267.524 Q691.702 264.816 688.3 264.816 M688.3 261.205 Q693.855 261.205 697.026 264.816 Q700.198 268.427 700.198 274.816 Q700.198 281.182 697.026 284.816 Q693.855 288.427 688.3 288.427 Q682.721 288.427 679.55 284.816 Q676.402 281.182 676.402 274.816 Q676.402 268.427 679.55 264.816 Q682.721 261.205 688.3 261.205 Z" fill="#000000" fill-rule="nonzero" fill-opacity="1" /><path clip-path="url(#clip940)" d="M722.281 265.811 Q721.563 265.395 720.707 265.21 Q719.874 265.001 718.855 265.001 Q715.244 265.001 713.299 267.362 Q711.378 269.7 711.378 274.098 L711.378 287.756 L707.096 287.756 L707.096 261.83 L711.378 261.83 L711.378 265.858 Q712.721 263.497 714.874 262.362 Q717.026 261.205 720.105 261.205 Q720.545 261.205 721.077 261.274 Q721.61 261.321 722.258 261.436 L722.281 265.811 Z" fill="#000000" fill-rule="nonzero" fill-opacity="1" /><path clip-path="url(#clip940)" d="M746.1 266.807 Q747.697 263.936 749.92 262.571 Q752.142 261.205 755.151 261.205 Q759.202 261.205 761.401 264.052 Q763.6 266.876 763.6 272.108 L763.6 287.756 L759.318 287.756 L759.318 272.247 Q759.318 268.52 757.998 266.714 Q756.679 264.909 753.971 264.909 Q750.66 264.909 748.739 267.108 Q746.818 269.307 746.818 273.103 L746.818 287.756 L742.535 287.756 L742.535 272.247 Q742.535 268.497 741.216 266.714 Q739.897 264.909 737.142 264.909 Q733.878 264.909 731.957 267.131 Q730.035 269.33 730.035 273.103 L730.035 287.756 L725.753 287.756 L725.753 261.83 L730.035 261.83 L730.035 265.858 Q731.494 263.473 733.531 262.339 Q735.568 261.205 738.369 261.205 Q741.193 261.205 743.16 262.64 Q745.151 264.075 746.1 266.807 Z" fill="#000000" fill-rule="nonzero" fill-opacity="1" /></svg>
