<?xml version="1.0" encoding="utf-8"?>
<svg xmlns="http://www.w3.org/2000/svg" xmlns:xlink="http://www.w3.org/1999/xlink" width="600" height="400" viewBox="0 0 2400 1600">
<defs>
  <clipPath id="clip900">
    <rect x="0" y="0" width="2400" height="1600"/>
  </clipPath>
</defs>
<path clip-path="url(#clip900)" d="M0 1600 L2400 1600 L2400 0 L0 0  Z" fill="#ffffff" fill-rule="evenodd" fill-opacity="1"/>
<defs>
  <clipPath id="clip901">
    <rect x="480" y="0" width="1681" height="1600"/>
  </clipPath>
</defs>
<path clip-path="url(#clip900)" d="M265.445 1423.18 L2352.76 1423.18 L2352.76 123.472 L265.445 123.472  Z" fill="#ffffff" fill-rule="evenodd" fill-opacity="1"/>
<defs>
  <clipPath id="clip902">
    <rect x="265" y="123" width="2088" height="1301"/>
  </clipPath>
</defs>
<polyline clip-path="url(#clip902)" style="stroke:#000000; stroke-linecap:round; stroke-linejoin:round; stroke-width:2; stroke-opacity:0.1; fill:none" points="314.624,1423.18 314.624,123.472 "/>
<polyline clip-path="url(#clip902)" style="stroke:#000000; stroke-linecap:round; stroke-linejoin:round; stroke-width:2; stroke-opacity:0.1; fill:none" points="809.388,1423.18 809.388,123.472 "/>
<polyline clip-path="url(#clip902)" style="stroke:#000000; stroke-linecap:round; stroke-linejoin:round; stroke-width:2; stroke-opacity:0.1; fill:none" points="1304.15,1423.18 1304.15,123.472 "/>
<polyline clip-path="url(#clip902)" style="stroke:#000000; stroke-linecap:round; stroke-linejoin:round; stroke-width:2; stroke-opacity:0.1; fill:none" points="1798.92,1423.18 1798.92,123.472 "/>
<polyline clip-path="url(#clip902)" style="stroke:#000000; stroke-linecap:round; stroke-linejoin:round; stroke-width:2; stroke-opacity:0.1; fill:none" points="2293.68,1423.18 2293.68,123.472 "/>
<polyline clip-path="url(#clip900)" style="stroke:#000000; stroke-linecap:round; stroke-linejoin:round; stroke-width:4; stroke-opacity:1; fill:none" points="265.445,1423.18 2352.76,1423.18 "/>
<polyline clip-path="url(#clip900)" style="stroke:#000000; stroke-linecap:round; stroke-linejoin:round; stroke-width:4; stroke-opacity:1; fill:none" points="314.624,1423.18 314.624,1404.28 "/>
<polyline clip-path="url(#clip900)" style="stroke:#000000; stroke-linecap:round; stroke-linejoin:round; stroke-width:4; stroke-opacity:1; fill:none" points="809.388,1423.18 809.388,1404.28 "/>
<polyline clip-path="url(#clip900)" style="stroke:#000000; stroke-linecap:round; stroke-linejoin:round; stroke-width:4; stroke-opacity:1; fill:none" points="1304.15,1423.18 1304.15,1404.28 "/>
<polyline clip-path="url(#clip900)" style="stroke:#000000; stroke-linecap:round; stroke-linejoin:round; stroke-width:4; stroke-opacity:1; fill:none" points="1798.92,1423.18 1798.92,1404.28 "/>
<polyline clip-path="url(#clip900)" style="stroke:#000000; stroke-linecap:round; stroke-linejoin:round; stroke-width:4; stroke-opacity:1; fill:none" points="2293.68,1423.18 2293.68,1404.28 "/>
<path clip-path="url(#clip900)" d="M314.624 1454.1 Q311.013 1454.1 309.185 1457.66 Q307.379 1461.2 307.379 1468.33 Q307.379 1475.44 309.185 1479.01 Q311.013 1482.55 314.624 1482.55 Q318.259 1482.55 320.064 1479.01 Q321.893 1475.44 321.893 1468.33 Q321.893 1461.2 320.064 1457.66 Q318.259 1454.1 314.624 1454.1 M314.624 1450.39 Q320.434 1450.39 323.49 1455 Q326.569 1459.58 326.569 1468.33 Q326.569 1477.06 323.49 1481.67 Q320.434 1486.25 314.624 1486.25 Q308.814 1486.25 305.735 1481.67 Q302.68 1477.06 302.68 1468.33 Q302.68 1459.58 305.735 1455 Q308.814 1450.39 314.624 1450.39 Z" fill="#000000" fill-rule="nonzero" fill-opacity="1" /><path clip-path="url(#clip900)" d="M773.081 1481.64 L789.4 1481.64 L789.4 1485.58 L767.456 1485.58 L767.456 1481.64 Q770.118 1478.89 774.701 1474.26 Q779.308 1469.61 780.488 1468.27 Q782.734 1465.74 783.613 1464.01 Q784.516 1462.25 784.516 1460.56 Q784.516 1457.8 782.571 1456.07 Q780.65 1454.33 777.548 1454.33 Q775.349 1454.33 772.896 1455.09 Q770.465 1455.86 767.687 1457.41 L767.687 1452.69 Q770.511 1451.55 772.965 1450.97 Q775.419 1450.39 777.456 1450.39 Q782.826 1450.39 786.021 1453.08 Q789.215 1455.77 789.215 1460.26 Q789.215 1462.39 788.405 1464.31 Q787.618 1466.2 785.511 1468.8 Q784.933 1469.47 781.831 1472.69 Q778.729 1475.88 773.081 1481.64 Z" fill="#000000" fill-rule="nonzero" fill-opacity="1" /><path clip-path="url(#clip900)" d="M799.261 1451.02 L817.618 1451.02 L817.618 1454.96 L803.544 1454.96 L803.544 1463.43 Q804.562 1463.08 805.581 1462.92 Q806.599 1462.73 807.618 1462.73 Q813.405 1462.73 816.784 1465.9 Q820.164 1469.08 820.164 1474.49 Q820.164 1480.07 816.692 1483.17 Q813.219 1486.25 806.9 1486.25 Q804.724 1486.25 802.456 1485.88 Q800.21 1485.51 797.803 1484.77 L797.803 1480.07 Q799.886 1481.2 802.108 1481.76 Q804.331 1482.32 806.807 1482.32 Q810.812 1482.32 813.15 1480.21 Q815.488 1478.1 815.488 1474.49 Q815.488 1470.88 813.15 1468.77 Q810.812 1466.67 806.807 1466.67 Q804.932 1466.67 803.057 1467.08 Q801.206 1467.5 799.261 1468.38 L799.261 1451.02 Z" fill="#000000" fill-rule="nonzero" fill-opacity="1" /><path clip-path="url(#clip900)" d="M839.377 1454.1 Q835.766 1454.1 833.937 1457.66 Q832.131 1461.2 832.131 1468.33 Q832.131 1475.44 833.937 1479.01 Q835.766 1482.55 839.377 1482.55 Q843.011 1482.55 844.817 1479.01 Q846.645 1475.44 846.645 1468.33 Q846.645 1461.2 844.817 1457.66 Q843.011 1454.1 839.377 1454.1 M839.377 1450.39 Q845.187 1450.39 848.242 1455 Q851.321 1459.58 851.321 1468.33 Q851.321 1477.06 848.242 1481.67 Q845.187 1486.25 839.377 1486.25 Q833.567 1486.25 830.488 1481.67 Q827.432 1477.06 827.432 1468.33 Q827.432 1459.58 830.488 1455 Q833.567 1450.39 839.377 1450.39 Z" fill="#000000" fill-rule="nonzero" fill-opacity="1" /><path clip-path="url(#clip900)" d="M1263.77 1451.02 L1282.13 1451.02 L1282.13 1454.96 L1268.05 1454.96 L1268.05 1463.43 Q1269.07 1463.08 1270.09 1462.92 Q1271.11 1462.73 1272.13 1462.73 Q1277.91 1462.73 1281.29 1465.9 Q1284.67 1469.08 1284.67 1474.49 Q1284.67 1480.07 1281.2 1483.17 Q1277.73 1486.25 1271.41 1486.25 Q1269.23 1486.25 1266.97 1485.88 Q1264.72 1485.51 1262.31 1484.77 L1262.31 1480.07 Q1264.4 1481.2 1266.62 1481.76 Q1268.84 1482.32 1271.32 1482.32 Q1275.32 1482.32 1277.66 1480.21 Q1280 1478.1 1280 1474.49 Q1280 1470.88 1277.66 1468.77 Q1275.32 1466.67 1271.32 1466.67 Q1269.44 1466.67 1267.57 1467.08 Q1265.72 1467.5 1263.77 1468.38 L1263.77 1451.02 Z" fill="#000000" fill-rule="nonzero" fill-opacity="1" /><path clip-path="url(#clip900)" d="M1303.89 1454.1 Q1300.28 1454.1 1298.45 1457.66 Q1296.64 1461.2 1296.64 1468.33 Q1296.64 1475.44 1298.45 1479.01 Q1300.28 1482.55 1303.89 1482.55 Q1307.52 1482.55 1309.33 1479.01 Q1311.15 1475.44 1311.15 1468.33 Q1311.15 1461.2 1309.33 1457.66 Q1307.52 1454.1 1303.89 1454.1 M1303.89 1450.39 Q1309.7 1450.39 1312.75 1455 Q1315.83 1459.58 1315.83 1468.33 Q1315.83 1477.06 1312.75 1481.67 Q1309.7 1486.25 1303.89 1486.25 Q1298.08 1486.25 1295 1481.67 Q1291.94 1477.06 1291.94 1468.33 Q1291.94 1459.58 1295 1455 Q1298.08 1450.39 1303.89 1450.39 Z" fill="#000000" fill-rule="nonzero" fill-opacity="1" /><path clip-path="url(#clip900)" d="M1334.05 1454.1 Q1330.44 1454.1 1328.61 1457.66 Q1326.8 1461.2 1326.8 1468.33 Q1326.8 1475.44 1328.61 1479.01 Q1330.44 1482.55 1334.05 1482.55 Q1337.68 1482.55 1339.49 1479.01 Q1341.32 1475.44 1341.32 1468.33 Q1341.32 1461.2 1339.49 1457.66 Q1337.68 1454.1 1334.05 1454.1 M1334.05 1450.39 Q1339.86 1450.39 1342.91 1455 Q1345.99 1459.58 1345.99 1468.33 Q1345.99 1477.06 1342.91 1481.67 Q1339.86 1486.25 1334.05 1486.25 Q1328.24 1486.25 1325.16 1481.67 Q1322.1 1477.06 1322.1 1468.33 Q1322.1 1459.58 1325.16 1455 Q1328.24 1450.39 1334.05 1450.39 Z" fill="#000000" fill-rule="nonzero" fill-opacity="1" /><path clip-path="url(#clip900)" d="M1757.19 1451.02 L1779.41 1451.02 L1779.41 1453.01 L1766.87 1485.58 L1761.98 1485.58 L1773.79 1454.96 L1757.19 1454.96 L1757.19 1451.02 Z" fill="#000000" fill-rule="nonzero" fill-opacity="1" /><path clip-path="url(#clip900)" d="M1788.58 1451.02 L1806.94 1451.02 L1806.94 1454.96 L1792.86 1454.96 L1792.86 1463.43 Q1793.88 1463.08 1794.9 1462.92 Q1795.92 1462.73 1796.94 1462.73 Q1802.72 1462.73 1806.1 1465.9 Q1809.48 1469.08 1809.48 1474.49 Q1809.48 1480.07 1806.01 1483.17 Q1802.54 1486.25 1796.22 1486.25 Q1794.04 1486.25 1791.78 1485.88 Q1789.53 1485.51 1787.12 1484.77 L1787.12 1480.07 Q1789.21 1481.2 1791.43 1481.76 Q1793.65 1482.32 1796.13 1482.32 Q1800.13 1482.32 1802.47 1480.21 Q1804.81 1478.1 1804.81 1474.49 Q1804.81 1470.88 1802.47 1468.77 Q1800.13 1466.67 1796.13 1466.67 Q1794.25 1466.67 1792.38 1467.08 Q1790.53 1467.5 1788.58 1468.38 L1788.58 1451.02 Z" fill="#000000" fill-rule="nonzero" fill-opacity="1" /><path clip-path="url(#clip900)" d="M1828.7 1454.1 Q1825.09 1454.1 1823.26 1457.66 Q1821.45 1461.2 1821.45 1468.33 Q1821.45 1475.44 1823.26 1479.01 Q1825.09 1482.55 1828.7 1482.55 Q1832.33 1482.55 1834.14 1479.01 Q1835.97 1475.44 1835.97 1468.33 Q1835.97 1461.2 1834.14 1457.66 Q1832.33 1454.1 1828.7 1454.1 M1828.7 1450.39 Q1834.51 1450.39 1837.56 1455 Q1840.64 1459.58 1840.64 1468.33 Q1840.64 1477.06 1837.56 1481.67 Q1834.51 1486.25 1828.7 1486.25 Q1822.89 1486.25 1819.81 1481.67 Q1816.75 1477.06 1816.75 1468.33 Q1816.75 1459.58 1819.81 1455 Q1822.89 1450.39 1828.7 1450.39 Z" fill="#000000" fill-rule="nonzero" fill-opacity="1" /><path clip-path="url(#clip900)" d="M2238.21 1481.64 L2245.85 1481.64 L2245.85 1455.28 L2237.54 1456.95 L2237.54 1452.69 L2245.8 1451.02 L2250.48 1451.02 L2250.48 1481.64 L2258.11 1481.64 L2258.11 1485.58 L2238.21 1485.58 L2238.21 1481.64 Z" fill="#000000" fill-rule="nonzero" fill-opacity="1" /><path clip-path="url(#clip900)" d="M2277.56 1454.1 Q2273.95 1454.1 2272.12 1457.66 Q2270.31 1461.2 2270.31 1468.33 Q2270.31 1475.44 2272.12 1479.01 Q2273.95 1482.55 2277.56 1482.55 Q2281.19 1482.55 2283 1479.01 Q2284.83 1475.44 2284.83 1468.33 Q2284.83 1461.2 2283 1457.66 Q2281.19 1454.1 2277.56 1454.1 M2277.56 1450.39 Q2283.37 1450.39 2286.42 1455 Q2289.5 1459.58 2289.5 1468.33 Q2289.5 1477.06 2286.42 1481.67 Q2283.37 1486.25 2277.56 1486.25 Q2271.75 1486.25 2268.67 1481.67 Q2265.61 1477.06 2265.61 1468.33 Q2265.61 1459.58 2268.67 1455 Q2271.75 1450.39 2277.56 1450.39 Z" fill="#000000" fill-rule="nonzero" fill-opacity="1" /><path clip-path="url(#clip900)" d="M2307.72 1454.1 Q2304.11 1454.1 2302.28 1457.66 Q2300.48 1461.2 2300.48 1468.33 Q2300.48 1475.44 2302.28 1479.01 Q2304.11 1482.55 2307.72 1482.55 Q2311.35 1482.55 2313.16 1479.01 Q2314.99 1475.44 2314.99 1468.33 Q2314.99 1461.2 2313.16 1457.66 Q2311.35 1454.1 2307.72 1454.1 M2307.72 1450.39 Q2313.53 1450.39 2316.59 1455 Q2319.66 1459.58 2319.66 1468.33 Q2319.66 1477.06 2316.59 1481.67 Q2313.53 1486.25 2307.72 1486.25 Q2301.91 1486.25 2298.83 1481.67 Q2295.78 1477.06 2295.78 1468.33 Q2295.78 1459.58 2298.83 1455 Q2301.91 1450.39 2307.72 1450.39 Z" fill="#000000" fill-rule="nonzero" fill-opacity="1" /><path clip-path="url(#clip900)" d="M2337.88 1454.1 Q2334.27 1454.1 2332.44 1457.66 Q2330.64 1461.2 2330.64 1468.33 Q2330.64 1475.44 2332.44 1479.01 Q2334.27 1482.55 2337.88 1482.55 Q2341.52 1482.55 2343.32 1479.01 Q2345.15 1475.44 2345.15 1468.33 Q2345.15 1461.2 2343.32 1457.66 Q2341.52 1454.1 2337.88 1454.1 M2337.88 1450.39 Q2343.69 1450.39 2346.75 1455 Q2349.83 1459.58 2349.83 1468.33 Q2349.83 1477.06 2346.75 1481.67 Q2343.69 1486.25 2337.88 1486.25 Q2332.07 1486.25 2328.99 1481.67 Q2325.94 1477.06 2325.94 1468.33 Q2325.94 1459.58 2328.99 1455 Q2332.07 1450.39 2337.88 1450.39 Z" fill="#000000" fill-rule="nonzero" fill-opacity="1" /><path clip-path="url(#clip900)" d="M1324.03 1546.53 L1324.03 1568.04 L1318.17 1568.04 L1318.17 1546.72 Q1318.17 1541.66 1316.2 1539.14 Q1314.22 1536.63 1310.28 1536.63 Q1305.54 1536.63 1302.8 1539.65 Q1300.06 1542.68 1300.06 1547.9 L1300.06 1568.04 L1294.17 1568.04 L1294.17 1532.4 L1300.06 1532.4 L1300.06 1537.93 Q1302.16 1534.72 1304.99 1533.13 Q1307.86 1531.54 1311.58 1531.54 Q1317.73 1531.54 1320.88 1535.36 Q1324.03 1539.14 1324.03 1546.53 Z" fill="#000000" fill-rule="nonzero" fill-opacity="1" /><polyline clip-path="url(#clip902)" style="stroke:#000000; stroke-linecap:round; stroke-linejoin:round; stroke-width:2; stroke-opacity:0.1; fill:none" points="265.445,1386.4 2352.76,1386.4 "/>
<polyline clip-path="url(#clip902)" style="stroke:#000000; stroke-linecap:round; stroke-linejoin:round; stroke-width:2; stroke-opacity:0.1; fill:none" points="265.445,1080.63 2352.76,1080.63 "/>
<polyline clip-path="url(#clip902)" style="stroke:#000000; stroke-linecap:round; stroke-linejoin:round; stroke-width:2; stroke-opacity:0.1; fill:none" points="265.445,774.855 2352.76,774.855 "/>
<polyline clip-path="url(#clip902)" style="stroke:#000000; stroke-linecap:round; stroke-linejoin:round; stroke-width:2; stroke-opacity:0.1; fill:none" points="265.445,469.084 2352.76,469.084 "/>
<polyline clip-path="url(#clip902)" style="stroke:#000000; stroke-linecap:round; stroke-linejoin:round; stroke-width:2; stroke-opacity:0.1; fill:none" points="265.445,163.314 2352.76,163.314 "/>
<polyline clip-path="url(#clip900)" style="stroke:#000000; stroke-linecap:round; stroke-linejoin:round; stroke-width:4; stroke-opacity:1; fill:none" points="265.445,1423.18 265.445,123.472 "/>
<polyline clip-path="url(#clip900)" style="stroke:#000000; stroke-linecap:round; stroke-linejoin:round; stroke-width:4; stroke-opacity:1; fill:none" points="265.445,1386.4 284.342,1386.4 "/>
<polyline clip-path="url(#clip900)" style="stroke:#000000; stroke-linecap:round; stroke-linejoin:round; stroke-width:4; stroke-opacity:1; fill:none" points="265.445,1080.63 284.342,1080.63 "/>
<polyline clip-path="url(#clip900)" style="stroke:#000000; stroke-linecap:round; stroke-linejoin:round; stroke-width:4; stroke-opacity:1; fill:none" points="265.445,774.855 284.342,774.855 "/>
<polyline clip-path="url(#clip900)" style="stroke:#000000; stroke-linecap:round; stroke-linejoin:round; stroke-width:4; stroke-opacity:1; fill:none" points="265.445,469.084 284.342,469.084 "/>
<polyline clip-path="url(#clip900)" style="stroke:#000000; stroke-linecap:round; stroke-linejoin:round; stroke-width:4; stroke-opacity:1; fill:none" points="265.445,163.314 284.342,163.314 "/>
<path clip-path="url(#clip900)" d="M217.5 1372.19 Q213.889 1372.19 212.061 1375.76 Q210.255 1379.3 210.255 1386.43 Q210.255 1393.54 212.061 1397.1 Q213.889 1400.64 217.5 1400.64 Q221.135 1400.64 222.94 1397.1 Q224.769 1393.54 224.769 1386.43 Q224.769 1379.3 222.94 1375.76 Q221.135 1372.19 217.5 1372.19 M217.5 1368.49 Q223.31 1368.49 226.366 1373.1 Q229.445 1377.68 229.445 1386.43 Q229.445 1395.16 226.366 1399.76 Q223.31 1404.35 217.5 1404.35 Q211.69 1404.35 208.612 1399.76 Q205.556 1395.16 205.556 1386.43 Q205.556 1377.68 208.612 1373.1 Q211.69 1368.49 217.5 1368.49 Z" fill="#000000" fill-rule="nonzero" fill-opacity="1" /><path clip-path="url(#clip900)" d="M117.825 1093.97 L125.464 1093.97 L125.464 1067.6 L117.154 1069.27 L117.154 1065.01 L125.418 1063.35 L130.093 1063.35 L130.093 1093.97 L137.732 1093.97 L137.732 1097.91 L117.825 1097.91 L117.825 1093.97 Z" fill="#000000" fill-rule="nonzero" fill-opacity="1" /><path clip-path="url(#clip900)" d="M157.177 1066.42 Q153.566 1066.42 151.737 1069.99 Q149.931 1073.53 149.931 1080.66 Q149.931 1087.77 151.737 1091.33 Q153.566 1094.87 157.177 1094.87 Q160.811 1094.87 162.616 1091.33 Q164.445 1087.77 164.445 1080.66 Q164.445 1073.53 162.616 1069.99 Q160.811 1066.42 157.177 1066.42 M157.177 1062.72 Q162.987 1062.72 166.042 1067.33 Q169.121 1071.91 169.121 1080.66 Q169.121 1089.39 166.042 1093.99 Q162.987 1098.58 157.177 1098.58 Q151.366 1098.58 148.288 1093.99 Q145.232 1089.39 145.232 1080.66 Q145.232 1071.91 148.288 1067.33 Q151.366 1062.72 157.177 1062.72 Z" fill="#000000" fill-rule="nonzero" fill-opacity="1" /><path clip-path="url(#clip900)" d="M187.338 1066.42 Q183.727 1066.42 181.899 1069.99 Q180.093 1073.53 180.093 1080.66 Q180.093 1087.77 181.899 1091.33 Q183.727 1094.87 187.338 1094.87 Q190.973 1094.87 192.778 1091.33 Q194.607 1087.77 194.607 1080.66 Q194.607 1073.53 192.778 1069.99 Q190.973 1066.42 187.338 1066.42 M187.338 1062.72 Q193.149 1062.72 196.204 1067.33 Q199.283 1071.91 199.283 1080.66 Q199.283 1089.39 196.204 1093.99 Q193.149 1098.58 187.338 1098.58 Q181.528 1098.58 178.45 1093.99 Q175.394 1089.39 175.394 1080.66 Q175.394 1071.91 178.45 1067.33 Q181.528 1062.72 187.338 1062.72 Z" fill="#000000" fill-rule="nonzero" fill-opacity="1" /><path clip-path="url(#clip900)" d="M217.5 1066.42 Q213.889 1066.42 212.061 1069.99 Q210.255 1073.53 210.255 1080.66 Q210.255 1087.77 212.061 1091.33 Q213.889 1094.87 217.5 1094.87 Q221.135 1094.87 222.94 1091.33 Q224.769 1087.77 224.769 1080.66 Q224.769 1073.53 222.94 1069.99 Q221.135 1066.42 217.5 1066.42 M217.5 1062.72 Q223.31 1062.72 226.366 1067.33 Q229.445 1071.91 229.445 1080.66 Q229.445 1089.39 226.366 1093.99 Q223.31 1098.58 217.5 1098.58 Q211.69 1098.58 208.612 1093.99 Q205.556 1089.39 205.556 1080.66 Q205.556 1071.91 208.612 1067.33 Q211.69 1062.72 217.5 1062.72 Z" fill="#000000" fill-rule="nonzero" fill-opacity="1" /><path clip-path="url(#clip900)" d="M121.043 788.2 L137.362 788.2 L137.362 792.135 L115.418 792.135 L115.418 788.2 Q118.08 785.445 122.663 780.815 Q127.269 776.163 128.45 774.82 Q130.695 772.297 131.575 770.561 Q132.478 768.802 132.478 767.112 Q132.478 764.357 130.533 762.621 Q128.612 760.885 125.51 760.885 Q123.311 760.885 120.857 761.649 Q118.427 762.413 115.649 763.964 L115.649 759.241 Q118.473 758.107 120.927 757.529 Q123.38 756.95 125.418 756.95 Q130.788 756.95 133.982 759.635 Q137.177 762.32 137.177 766.811 Q137.177 768.941 136.367 770.862 Q135.579 772.76 133.473 775.353 Q132.894 776.024 129.792 779.241 Q126.691 782.436 121.043 788.2 Z" fill="#000000" fill-rule="nonzero" fill-opacity="1" /><path clip-path="url(#clip900)" d="M157.177 760.654 Q153.566 760.654 151.737 764.218 Q149.931 767.76 149.931 774.89 Q149.931 781.996 151.737 785.561 Q153.566 789.102 157.177 789.102 Q160.811 789.102 162.616 785.561 Q164.445 781.996 164.445 774.89 Q164.445 767.76 162.616 764.218 Q160.811 760.654 157.177 760.654 M157.177 756.95 Q162.987 756.95 166.042 761.556 Q169.121 766.14 169.121 774.89 Q169.121 783.616 166.042 788.223 Q162.987 792.806 157.177 792.806 Q151.366 792.806 148.288 788.223 Q145.232 783.616 145.232 774.89 Q145.232 766.14 148.288 761.556 Q151.366 756.95 157.177 756.95 Z" fill="#000000" fill-rule="nonzero" fill-opacity="1" /><path clip-path="url(#clip900)" d="M187.338 760.654 Q183.727 760.654 181.899 764.218 Q180.093 767.76 180.093 774.89 Q180.093 781.996 181.899 785.561 Q183.727 789.102 187.338 789.102 Q190.973 789.102 192.778 785.561 Q194.607 781.996 194.607 774.89 Q194.607 767.76 192.778 764.218 Q190.973 760.654 187.338 760.654 M187.338 756.95 Q193.149 756.95 196.204 761.556 Q199.283 766.14 199.283 774.89 Q199.283 783.616 196.204 788.223 Q193.149 792.806 187.338 792.806 Q181.528 792.806 178.45 788.223 Q175.394 783.616 175.394 774.89 Q175.394 766.14 178.45 761.556 Q181.528 756.95 187.338 756.95 Z" fill="#000000" fill-rule="nonzero" fill-opacity="1" /><path clip-path="url(#clip900)" d="M217.5 760.654 Q213.889 760.654 212.061 764.218 Q210.255 767.76 210.255 774.89 Q210.255 781.996 212.061 785.561 Q213.889 789.102 217.5 789.102 Q221.135 789.102 222.94 785.561 Q224.769 781.996 224.769 774.89 Q224.769 767.76 222.94 764.218 Q221.135 760.654 217.5 760.654 M217.5 756.95 Q223.31 756.95 226.366 761.556 Q229.445 766.14 229.445 774.89 Q229.445 783.616 226.366 788.223 Q223.31 792.806 217.5 792.806 Q211.69 792.806 208.612 788.223 Q205.556 783.616 205.556 774.89 Q205.556 766.14 208.612 761.556 Q211.69 756.95 217.5 756.95 Z" fill="#000000" fill-rule="nonzero" fill-opacity="1" /><path clip-path="url(#clip900)" d="M131.181 467.73 Q134.538 468.448 136.413 470.716 Q138.311 472.985 138.311 476.318 Q138.311 481.434 134.792 484.235 Q131.274 487.036 124.793 487.036 Q122.617 487.036 120.302 486.596 Q118.01 486.179 115.556 485.323 L115.556 480.809 Q117.501 481.943 119.816 482.522 Q122.13 483.101 124.654 483.101 Q129.052 483.101 131.343 481.364 Q133.658 479.628 133.658 476.318 Q133.658 473.263 131.505 471.55 Q129.376 469.814 125.556 469.814 L121.529 469.814 L121.529 465.971 L125.742 465.971 Q129.191 465.971 131.019 464.605 Q132.848 463.216 132.848 460.624 Q132.848 457.962 130.95 456.55 Q129.075 455.115 125.556 455.115 Q123.635 455.115 121.436 455.531 Q119.237 455.948 116.598 456.828 L116.598 452.661 Q119.26 451.92 121.575 451.55 Q123.913 451.179 125.973 451.179 Q131.297 451.179 134.399 453.61 Q137.501 456.017 137.501 460.138 Q137.501 463.008 135.857 464.999 Q134.214 466.966 131.181 467.73 Z" fill="#000000" fill-rule="nonzero" fill-opacity="1" /><path clip-path="url(#clip900)" d="M157.177 454.883 Q153.566 454.883 151.737 458.448 Q149.931 461.99 149.931 469.119 Q149.931 476.226 151.737 479.79 Q153.566 483.332 157.177 483.332 Q160.811 483.332 162.616 479.79 Q164.445 476.226 164.445 469.119 Q164.445 461.99 162.616 458.448 Q160.811 454.883 157.177 454.883 M157.177 451.179 Q162.987 451.179 166.042 455.786 Q169.121 460.369 169.121 469.119 Q169.121 477.846 166.042 482.452 Q162.987 487.036 157.177 487.036 Q151.366 487.036 148.288 482.452 Q145.232 477.846 145.232 469.119 Q145.232 460.369 148.288 455.786 Q151.366 451.179 157.177 451.179 Z" fill="#000000" fill-rule="nonzero" fill-opacity="1" /><path clip-path="url(#clip900)" d="M187.338 454.883 Q183.727 454.883 181.899 458.448 Q180.093 461.99 180.093 469.119 Q180.093 476.226 181.899 479.79 Q183.727 483.332 187.338 483.332 Q190.973 483.332 192.778 479.79 Q194.607 476.226 194.607 469.119 Q194.607 461.99 192.778 458.448 Q190.973 454.883 187.338 454.883 M187.338 451.179 Q193.149 451.179 196.204 455.786 Q199.283 460.369 199.283 469.119 Q199.283 477.846 196.204 482.452 Q193.149 487.036 187.338 487.036 Q181.528 487.036 178.45 482.452 Q175.394 477.846 175.394 469.119 Q175.394 460.369 178.45 455.786 Q181.528 451.179 187.338 451.179 Z" fill="#000000" fill-rule="nonzero" fill-opacity="1" /><path clip-path="url(#clip900)" d="M217.5 454.883 Q213.889 454.883 212.061 458.448 Q210.255 461.99 210.255 469.119 Q210.255 476.226 212.061 479.79 Q213.889 483.332 217.5 483.332 Q221.135 483.332 222.94 479.79 Q224.769 476.226 224.769 469.119 Q224.769 461.99 222.94 458.448 Q221.135 454.883 217.5 454.883 M217.5 451.179 Q223.31 451.179 226.366 455.786 Q229.445 460.369 229.445 469.119 Q229.445 477.846 226.366 482.452 Q223.31 487.036 217.5 487.036 Q211.69 487.036 208.612 482.452 Q205.556 477.846 205.556 469.119 Q205.556 460.369 208.612 455.786 Q211.69 451.179 217.5 451.179 Z" fill="#000000" fill-rule="nonzero" fill-opacity="1" /><path clip-path="url(#clip900)" d="M129.862 150.108 L118.056 168.557 L129.862 168.557 L129.862 150.108 M128.635 146.034 L134.515 146.034 L134.515 168.557 L139.445 168.557 L139.445 172.446 L134.515 172.446 L134.515 180.594 L129.862 180.594 L129.862 172.446 L114.26 172.446 L114.26 167.932 L128.635 146.034 Z" fill="#000000" fill-rule="nonzero" fill-opacity="1" /><path clip-path="url(#clip900)" d="M157.177 149.113 Q153.566 149.113 151.737 152.677 Q149.931 156.219 149.931 163.349 Q149.931 170.455 151.737 174.02 Q153.566 177.562 157.177 177.562 Q160.811 177.562 162.616 174.02 Q164.445 170.455 164.445 163.349 Q164.445 156.219 162.616 152.677 Q160.811 149.113 157.177 149.113 M157.177 145.409 Q162.987 145.409 166.042 150.015 Q169.121 154.599 169.121 163.349 Q169.121 172.076 166.042 176.682 Q162.987 181.265 157.177 181.265 Q151.366 181.265 148.288 176.682 Q145.232 172.076 145.232 163.349 Q145.232 154.599 148.288 150.015 Q151.366 145.409 157.177 145.409 Z" fill="#000000" fill-rule="nonzero" fill-opacity="1" /><path clip-path="url(#clip900)" d="M187.338 149.113 Q183.727 149.113 181.899 152.677 Q180.093 156.219 180.093 163.349 Q180.093 170.455 181.899 174.02 Q183.727 177.562 187.338 177.562 Q190.973 177.562 192.778 174.02 Q194.607 170.455 194.607 163.349 Q194.607 156.219 192.778 152.677 Q190.973 149.113 187.338 149.113 M187.338 145.409 Q193.149 145.409 196.204 150.015 Q199.283 154.599 199.283 163.349 Q199.283 172.076 196.204 176.682 Q193.149 181.265 187.338 181.265 Q181.528 181.265 178.45 176.682 Q175.394 172.076 175.394 163.349 Q175.394 154.599 178.45 150.015 Q181.528 145.409 187.338 145.409 Z" fill="#000000" fill-rule="nonzero" fill-opacity="1" /><path clip-path="url(#clip900)" d="M217.5 149.113 Q213.889 149.113 212.061 152.677 Q210.255 156.219 210.255 163.349 Q210.255 170.455 212.061 174.02 Q213.889 177.562 217.5 177.562 Q221.135 177.562 222.94 174.02 Q224.769 170.455 224.769 163.349 Q224.769 156.219 222.94 152.677 Q221.135 149.113 217.5 149.113 M217.5 145.409 Q223.31 145.409 226.366 150.015 Q229.445 154.599 229.445 163.349 Q229.445 172.076 226.366 176.682 Q223.31 181.265 217.5 181.265 Q211.69 181.265 208.612 176.682 Q205.556 172.076 205.556 163.349 Q205.556 154.599 208.612 150.015 Q211.69 145.409 217.5 145.409 Z" fill="#000000" fill-rule="nonzero" fill-opacity="1" /><path clip-path="url(#clip900)" d="M22.818 927.36 L46.4666 936.081 L46.4666 918.607 L22.818 927.36 M16.4842 930.989 L16.4842 923.7 L64.0042 905.589 L64.0042 912.273 L51.8138 916.602 L51.8138 938.023 L64.0042 942.351 L64.0042 949.131 L16.4842 930.989 Z" fill="#000000" fill-rule="nonzero" fill-opacity="1" /><path clip-path="url(#clip900)" d="M14.479 898.905 L14.479 893.049 L64.0042 893.049 L64.0042 898.905 L14.479 898.905 Z" fill="#000000" fill-rule="nonzero" fill-opacity="1" /><path clip-path="url(#clip900)" d="M14.479 880.795 L14.479 874.939 L64.0042 874.939 L64.0042 880.795 L14.479 880.795 Z" fill="#000000" fill-rule="nonzero" fill-opacity="1" /><path clip-path="url(#clip900)" d="M32.4621 848.871 Q32.4621 853.582 36.1542 856.319 Q39.8145 859.056 46.212 859.056 Q52.6095 859.056 56.3017 856.351 Q59.9619 853.613 59.9619 848.871 Q59.9619 844.192 56.2698 841.455 Q52.5777 838.718 46.212 838.718 Q39.8781 838.718 36.186 841.455 Q32.4621 844.192 32.4621 848.871 M27.4968 848.871 Q27.4968 841.232 32.4621 836.872 Q37.4273 832.511 46.212 832.511 Q54.9649 832.511 59.9619 836.872 Q64.9272 841.232 64.9272 848.871 Q64.9272 856.542 59.9619 860.902 Q54.9649 865.231 46.212 865.231 Q37.4273 865.231 32.4621 860.902 Q27.4968 856.542 27.4968 848.871 Z" fill="#000000" fill-rule="nonzero" fill-opacity="1" /><path clip-path="url(#clip900)" d="M29.7248 797.15 L35.1993 797.15 Q33.8307 799.632 33.1623 802.147 Q32.4621 804.629 32.4621 807.176 Q32.4621 812.873 36.0905 816.024 Q39.6872 819.175 46.212 819.175 Q52.7369 819.175 56.3653 816.024 Q59.9619 812.873 59.9619 807.176 Q59.9619 804.629 59.2935 802.147 Q58.5933 799.632 57.2247 797.15 L62.6355 797.15 Q63.7814 799.6 64.3543 802.242 Q64.9272 804.852 64.9272 807.812 Q64.9272 815.865 59.8664 820.607 Q54.8057 825.35 46.212 825.35 Q37.491 825.35 32.4939 820.575 Q27.4968 815.769 27.4968 807.43 Q27.4968 804.725 28.0697 802.147 Q28.6108 799.569 29.7248 797.15 Z" fill="#000000" fill-rule="nonzero" fill-opacity="1" /><path clip-path="url(#clip900)" d="M46.0847 770.764 Q46.0847 777.862 47.7079 780.599 Q49.3312 783.336 53.2461 783.336 Q56.3653 783.336 58.2114 781.299 Q60.0256 779.23 60.0256 775.697 Q60.0256 770.827 56.5881 767.899 Q53.1188 764.939 47.3897 764.939 L46.0847 764.939 L46.0847 770.764 M43.6657 759.083 L64.0042 759.083 L64.0042 764.939 L58.5933 764.939 Q61.8398 766.944 63.3994 769.936 Q64.9272 772.928 64.9272 777.257 Q64.9272 782.731 61.8716 785.978 Q58.7843 789.193 53.6281 789.193 Q47.6125 789.193 44.5569 785.182 Q41.5014 781.14 41.5014 773.151 L41.5014 764.939 L40.9285 764.939 Q36.8862 764.939 34.6901 767.613 Q32.4621 770.255 32.4621 775.061 Q32.4621 778.116 33.1941 781.013 Q33.9262 783.909 35.3903 786.583 L29.9795 786.583 Q28.7381 783.368 28.1334 780.344 Q27.4968 777.32 27.4968 774.456 Q27.4968 766.722 31.5072 762.902 Q35.5176 759.083 43.6657 759.083 Z" fill="#000000" fill-rule="nonzero" fill-opacity="1" /><path clip-path="url(#clip900)" d="M18.2347 741.227 L28.3562 741.227 L28.3562 729.164 L32.9077 729.164 L32.9077 741.227 L52.2594 741.227 Q56.6199 741.227 57.8613 740.049 Q59.1026 738.84 59.1026 735.179 L59.1026 729.164 L64.0042 729.164 L64.0042 735.179 Q64.0042 741.959 61.4897 744.537 Q58.9434 747.115 52.2594 747.115 L32.9077 747.115 L32.9077 751.412 L28.3562 751.412 L28.3562 747.115 L18.2347 747.115 L18.2347 741.227 Z" fill="#000000" fill-rule="nonzero" fill-opacity="1" /><path clip-path="url(#clip900)" d="M28.3562 721.461 L28.3562 715.605 L64.0042 715.605 L64.0042 721.461 L28.3562 721.461 M14.479 721.461 L14.479 715.605 L21.895 715.605 L21.895 721.461 L14.479 721.461 Z" fill="#000000" fill-rule="nonzero" fill-opacity="1" /><path clip-path="url(#clip900)" d="M32.4621 689.537 Q32.4621 694.248 36.1542 696.985 Q39.8145 699.723 46.212 699.723 Q52.6095 699.723 56.3017 697.017 Q59.9619 694.28 59.9619 689.537 Q59.9619 684.859 56.2698 682.121 Q52.5777 679.384 46.212 679.384 Q39.8781 679.384 36.186 682.121 Q32.4621 684.859 32.4621 689.537 M27.4968 689.537 Q27.4968 681.899 32.4621 677.538 Q37.4273 673.178 46.212 673.178 Q54.9649 673.178 59.9619 677.538 Q64.9272 681.899 64.9272 689.537 Q64.9272 697.208 59.9619 701.569 Q54.9649 705.897 46.212 705.897 Q37.4273 705.897 32.4621 701.569 Q27.4968 697.208 27.4968 689.537 Z" fill="#000000" fill-rule="nonzero" fill-opacity="1" /><path clip-path="url(#clip900)" d="M42.4881 633.837 L64.0042 633.837 L64.0042 639.694 L42.679 639.694 Q37.6183 639.694 35.1038 641.667 Q32.5894 643.641 32.5894 647.587 Q32.5894 652.33 35.6131 655.067 Q38.6368 657.804 43.8567 657.804 L64.0042 657.804 L64.0042 663.693 L28.3562 663.693 L28.3562 657.804 L33.8944 657.804 Q30.6797 655.704 29.0883 652.871 Q27.4968 650.006 27.4968 646.282 Q27.4968 640.139 31.3163 636.988 Q35.1038 633.837 42.4881 633.837 Z" fill="#000000" fill-rule="nonzero" fill-opacity="1" /><path clip-path="url(#clip900)" d="M29.4065 599.431 L34.9447 599.431 Q33.6716 601.913 33.035 604.587 Q32.3984 607.261 32.3984 610.125 Q32.3984 614.486 33.7352 616.682 Q35.072 618.846 37.7456 618.846 Q39.7826 618.846 40.9603 617.287 Q42.1061 615.727 43.1565 611.016 L43.6021 609.011 Q44.9389 602.773 47.3897 600.163 Q49.8086 597.521 54.1691 597.521 Q59.1344 597.521 62.0308 601.468 Q64.9272 605.383 64.9272 612.258 Q64.9272 615.122 64.3543 618.241 Q63.8132 621.329 62.6992 624.766 L56.6518 624.766 Q58.3387 621.52 59.198 618.369 Q60.0256 615.218 60.0256 612.13 Q60.0256 607.993 58.6251 605.765 Q57.1929 603.537 54.6147 603.537 Q52.2276 603.537 50.9545 605.16 Q49.6813 606.751 48.5037 612.194 L48.0262 614.231 Q46.8804 619.674 44.5251 622.093 Q42.138 624.512 38.0002 624.512 Q32.9713 624.512 30.2341 620.947 Q27.4968 617.382 27.4968 610.825 Q27.4968 607.579 27.9743 604.714 Q28.4517 601.85 29.4065 599.431 Z" fill="#000000" fill-rule="nonzero" fill-opacity="1" /><path clip-path="url(#clip900)" d="M907.21 12.096 L919.403 12.096 L934.837 53.2532 L950.352 12.096 L962.545 12.096 L962.545 72.576 L954.565 72.576 L954.565 19.4686 L938.969 60.9499 L930.746 60.9499 L915.15 19.4686 L915.15 72.576 L907.21 72.576 L907.21 12.096 Z" fill="#000000" fill-rule="nonzero" fill-opacity="1" /><path clip-path="url(#clip900)" d="M1017.27 48.0275 L1017.27 51.6733 L983.003 51.6733 Q983.489 59.3701 987.621 63.421 Q991.793 67.4314 999.206 67.4314 Q1003.5 67.4314 1007.51 66.3781 Q1011.56 65.3249 1015.53 63.2184 L1015.53 70.267 Q1011.52 71.9684 1007.31 72.8596 Q1003.1 73.7508 998.761 73.7508 Q987.904 73.7508 981.544 67.4314 Q975.225 61.1119 975.225 50.3365 Q975.225 39.1965 981.22 32.6746 Q987.256 26.1121 997.464 26.1121 Q1006.62 26.1121 1011.93 32.0264 Q1017.27 37.9003 1017.27 48.0275 M1009.82 45.84 Q1009.74 39.7232 1006.38 36.0774 Q1003.05 32.4315 997.545 32.4315 Q991.307 32.4315 987.54 35.9558 Q983.813 39.4801 983.246 45.8805 L1009.82 45.84 Z" fill="#000000" fill-rule="nonzero" fill-opacity="1" /><path clip-path="url(#clip900)" d="M1064.83 35.9153 Q1067.63 30.8922 1071.51 28.5022 Q1075.4 26.1121 1080.67 26.1121 Q1087.76 26.1121 1091.61 31.0947 Q1095.46 36.0368 1095.46 45.1919 L1095.46 72.576 L1087.96 72.576 L1087.96 45.4349 Q1087.96 38.913 1085.65 35.7533 Q1083.34 32.5936 1078.6 32.5936 Q1072.81 32.5936 1069.45 36.4419 Q1066.09 40.2903 1066.09 46.9338 L1066.09 72.576 L1058.59 72.576 L1058.59 45.4349 Q1058.59 38.8725 1056.28 35.7533 Q1053.97 32.5936 1049.15 32.5936 Q1043.44 32.5936 1040.08 36.4824 Q1036.72 40.3308 1036.72 46.9338 L1036.72 72.576 L1029.22 72.576 L1029.22 27.2059 L1036.72 27.2059 L1036.72 34.2544 Q1039.27 30.082 1042.83 28.0971 Q1046.4 26.1121 1051.3 26.1121 Q1056.24 26.1121 1059.69 28.6237 Q1063.17 31.1352 1064.83 35.9153 Z" fill="#000000" fill-rule="nonzero" fill-opacity="1" /><path clip-path="url(#clip900)" d="M1127.9 32.4315 Q1121.91 32.4315 1118.42 37.1306 Q1114.94 41.7891 1114.94 49.9314 Q1114.94 58.0738 1118.38 62.7728 Q1121.87 67.4314 1127.9 67.4314 Q1133.86 67.4314 1137.34 62.7323 Q1140.83 58.0333 1140.83 49.9314 Q1140.83 41.8701 1137.34 37.1711 Q1133.86 32.4315 1127.9 32.4315 M1127.9 26.1121 Q1137.63 26.1121 1143.18 32.4315 Q1148.73 38.7509 1148.73 49.9314 Q1148.73 61.0714 1143.18 67.4314 Q1137.63 73.7508 1127.9 73.7508 Q1118.14 73.7508 1112.59 67.4314 Q1107.08 61.0714 1107.08 49.9314 Q1107.08 38.7509 1112.59 32.4315 Q1118.14 26.1121 1127.9 26.1121 Z" fill="#000000" fill-rule="nonzero" fill-opacity="1" /><path clip-path="url(#clip900)" d="M1187.37 34.1734 Q1186.11 33.4443 1184.62 33.1202 Q1183.16 32.7556 1181.38 32.7556 Q1175.06 32.7556 1171.65 36.8875 Q1168.29 40.9789 1168.29 48.6757 L1168.29 72.576 L1160.8 72.576 L1160.8 27.2059 L1168.29 27.2059 L1168.29 34.2544 Q1170.64 30.1225 1174.41 28.1376 Q1178.18 26.1121 1183.56 26.1121 Q1184.33 26.1121 1185.26 26.2337 Q1186.2 26.3147 1187.33 26.5172 L1187.37 34.1734 Z" fill="#000000" fill-rule="nonzero" fill-opacity="1" /><path clip-path="url(#clip900)" d="M1214.07 76.7889 Q1210.91 84.8907 1207.91 87.3618 Q1204.91 89.8329 1199.89 89.8329 L1193.93 89.8329 L1193.93 83.5945 L1198.31 83.5945 Q1201.39 83.5945 1203.09 82.1361 Q1204.79 80.6778 1206.86 75.2496 L1208.19 71.8468 L1189.84 27.2059 L1197.74 27.2059 L1211.92 62.6918 L1226.1 27.2059 L1234 27.2059 L1214.07 76.7889 Z" fill="#000000" fill-rule="nonzero" fill-opacity="1" /><path clip-path="url(#clip900)" d="M1291.2 20.1573 L1280.1 50.2555 L1302.34 50.2555 L1291.2 20.1573 M1286.58 12.096 L1295.85 12.096 L1318.9 72.576 L1310.4 72.576 L1304.89 57.061 L1277.62 57.061 L1272.12 72.576 L1263.49 72.576 L1286.58 12.096 Z" fill="#000000" fill-rule="nonzero" fill-opacity="1" /><path clip-path="url(#clip900)" d="M1327.41 9.54393 L1334.86 9.54393 L1334.86 72.576 L1327.41 72.576 L1327.41 9.54393 Z" fill="#000000" fill-rule="nonzero" fill-opacity="1" /><path clip-path="url(#clip900)" d="M1350.46 9.54393 L1357.91 9.54393 L1357.91 72.576 L1350.46 72.576 L1350.46 9.54393 Z" fill="#000000" fill-rule="nonzero" fill-opacity="1" /><path clip-path="url(#clip900)" d="M1391.09 32.4315 Q1385.1 32.4315 1381.61 37.1306 Q1378.13 41.7891 1378.13 49.9314 Q1378.13 58.0738 1381.57 62.7728 Q1385.05 67.4314 1391.09 67.4314 Q1397.05 67.4314 1400.53 62.7323 Q1404.01 58.0333 1404.01 49.9314 Q1404.01 41.8701 1400.53 37.1711 Q1397.05 32.4315 1391.09 32.4315 M1391.09 26.1121 Q1400.81 26.1121 1406.36 32.4315 Q1411.91 38.7509 1411.91 49.9314 Q1411.91 61.0714 1406.36 67.4314 Q1400.81 73.7508 1391.09 73.7508 Q1381.33 73.7508 1375.78 67.4314 Q1370.27 61.0714 1370.27 49.9314 Q1370.27 38.7509 1375.78 32.4315 Q1381.33 26.1121 1391.09 26.1121 Z" fill="#000000" fill-rule="nonzero" fill-opacity="1" /><path clip-path="url(#clip900)" d="M1456.92 28.9478 L1456.92 35.9153 Q1453.76 34.1734 1450.56 33.3227 Q1447.4 32.4315 1444.16 32.4315 Q1436.91 32.4315 1432.9 37.0496 Q1428.89 41.6271 1428.89 49.9314 Q1428.89 58.2358 1432.9 62.8538 Q1436.91 67.4314 1444.16 67.4314 Q1447.4 67.4314 1450.56 66.5807 Q1453.76 65.6895 1456.92 63.9476 L1456.92 70.8341 Q1453.8 72.2924 1450.44 73.0216 Q1447.11 73.7508 1443.35 73.7508 Q1433.1 73.7508 1427.06 67.3098 Q1421.03 60.8689 1421.03 49.9314 Q1421.03 38.832 1427.1 32.472 Q1433.22 26.1121 1443.83 26.1121 Q1447.28 26.1121 1450.56 26.8413 Q1453.84 27.5299 1456.92 28.9478 Z" fill="#000000" fill-rule="nonzero" fill-opacity="1" /><path clip-path="url(#clip900)" d="M1490.5 49.7694 Q1481.47 49.7694 1477.98 51.8354 Q1474.5 53.9013 1474.5 58.8839 Q1474.5 62.8538 1477.09 65.2034 Q1479.72 67.5124 1484.22 67.5124 Q1490.42 67.5124 1494.15 63.1374 Q1497.91 58.7219 1497.91 51.4303 L1497.91 49.7694 L1490.5 49.7694 M1505.37 46.6907 L1505.37 72.576 L1497.91 72.576 L1497.91 65.6895 Q1495.36 69.8214 1491.55 71.8063 Q1487.75 73.7508 1482.24 73.7508 Q1475.27 73.7508 1471.14 69.8619 Q1467.05 65.9325 1467.05 59.3701 Q1467.05 51.7138 1472.15 47.825 Q1477.29 43.9361 1487.46 43.9361 L1497.91 43.9361 L1497.91 43.2069 Q1497.91 38.0623 1494.51 35.2672 Q1491.15 32.4315 1485.03 32.4315 Q1481.14 32.4315 1477.46 33.3632 Q1473.77 34.295 1470.37 36.1584 L1470.37 29.2718 Q1474.46 27.692 1478.31 26.9223 Q1482.15 26.1121 1485.8 26.1121 Q1495.64 26.1121 1500.51 31.2163 Q1505.37 36.3204 1505.37 46.6907 Z" fill="#000000" fill-rule="nonzero" fill-opacity="1" /><path clip-path="url(#clip900)" d="M1528.09 14.324 L1528.09 27.2059 L1543.45 27.2059 L1543.45 32.9987 L1528.09 32.9987 L1528.09 57.6282 Q1528.09 63.1779 1529.59 64.7578 Q1531.13 66.3376 1535.79 66.3376 L1543.45 66.3376 L1543.45 72.576 L1535.79 72.576 Q1527.16 72.576 1523.88 69.3758 Q1520.6 66.1351 1520.6 57.6282 L1520.6 32.9987 L1515.13 32.9987 L1515.13 27.2059 L1520.6 27.2059 L1520.6 14.324 L1528.09 14.324 Z" fill="#000000" fill-rule="nonzero" fill-opacity="1" /><path clip-path="url(#clip900)" d="M1553.25 27.2059 L1560.7 27.2059 L1560.7 72.576 L1553.25 72.576 L1553.25 27.2059 M1553.25 9.54393 L1560.7 9.54393 L1560.7 18.9825 L1553.25 18.9825 L1553.25 9.54393 Z" fill="#000000" fill-rule="nonzero" fill-opacity="1" /><path clip-path="url(#clip900)" d="M1593.88 32.4315 Q1587.88 32.4315 1584.4 37.1306 Q1580.92 41.7891 1580.92 49.9314 Q1580.92 58.0738 1584.36 62.7728 Q1587.84 67.4314 1593.88 67.4314 Q1599.83 67.4314 1603.32 62.7323 Q1606.8 58.0333 1606.8 49.9314 Q1606.8 41.8701 1603.32 37.1711 Q1599.83 32.4315 1593.88 32.4315 M1593.88 26.1121 Q1603.6 26.1121 1609.15 32.4315 Q1614.7 38.7509 1614.7 49.9314 Q1614.7 61.0714 1609.15 67.4314 Q1603.6 73.7508 1593.88 73.7508 Q1584.12 73.7508 1578.57 67.4314 Q1573.06 61.0714 1573.06 49.9314 Q1573.06 38.7509 1578.57 32.4315 Q1584.12 26.1121 1593.88 26.1121 Z" fill="#000000" fill-rule="nonzero" fill-opacity="1" /><path clip-path="url(#clip900)" d="M1664.77 45.1919 L1664.77 72.576 L1657.32 72.576 L1657.32 45.4349 Q1657.32 38.994 1654.8 35.7938 Q1652.29 32.5936 1647.27 32.5936 Q1641.23 32.5936 1637.75 36.4419 Q1634.27 40.2903 1634.27 46.9338 L1634.27 72.576 L1626.77 72.576 L1626.77 27.2059 L1634.27 27.2059 L1634.27 34.2544 Q1636.94 30.163 1640.55 28.1376 Q1644.19 26.1121 1648.93 26.1121 Q1656.75 26.1121 1660.76 30.9732 Q1664.77 35.7938 1664.77 45.1919 Z" fill="#000000" fill-rule="nonzero" fill-opacity="1" /><path clip-path="url(#clip900)" d="M1708.56 28.5427 L1708.56 35.5912 Q1705.4 33.9709 1702 33.1607 Q1698.59 32.3505 1694.95 32.3505 Q1689.4 32.3505 1686.6 34.0519 Q1683.85 35.7533 1683.85 39.156 Q1683.85 41.7486 1685.83 43.2475 Q1687.82 44.7058 1693.81 46.0426 L1696.37 46.6097 Q1704.31 48.3111 1707.63 51.4303 Q1710.99 54.509 1710.99 60.0587 Q1710.99 66.3781 1705.97 70.0644 Q1700.98 73.7508 1692.23 73.7508 Q1688.59 73.7508 1684.62 73.0216 Q1680.69 72.3329 1676.31 70.9151 L1676.31 63.2184 Q1680.45 65.3654 1684.46 66.4591 Q1688.47 67.5124 1692.4 67.5124 Q1697.66 67.5124 1700.5 65.73 Q1703.33 63.9071 1703.33 60.6258 Q1703.33 57.5877 1701.27 55.9673 Q1699.24 54.3469 1692.32 52.8481 L1689.72 52.2405 Q1682.8 50.7821 1679.72 47.7845 Q1676.64 44.7463 1676.64 39.4801 Q1676.64 33.0797 1681.18 29.5959 Q1685.71 26.1121 1694.06 26.1121 Q1698.19 26.1121 1701.84 26.7198 Q1705.48 27.3274 1708.56 28.5427 Z" fill="#000000" fill-rule="nonzero" fill-opacity="1" /><polyline clip-path="url(#clip902)" style="stroke:#009af9; stroke-linecap:round; stroke-linejoin:round; stroke-width:4; stroke-opacity:1; fill:none" points="324.52,1386.4 334.415,1386.4 354.205,1386.4 413.577,1386.4 512.53,1386.4 809.388,1386.4 1304.15,1386.4 2293.68,1386.4 "/>
<circle clip-path="url(#clip902)" cx="324.52" cy="1386.4" r="14.4" fill="#009af9" fill-rule="evenodd" fill-opacity="1" stroke="#000000" stroke-opacity="1" stroke-width="3.2"/>
<circle clip-path="url(#clip902)" cx="334.415" cy="1386.4" r="14.4" fill="#009af9" fill-rule="evenodd" fill-opacity="1" stroke="#000000" stroke-opacity="1" stroke-width="3.2"/>
<circle clip-path="url(#clip902)" cx="354.205" cy="1386.4" r="14.4" fill="#009af9" fill-rule="evenodd" fill-opacity="1" stroke="#000000" stroke-opacity="1" stroke-width="3.2"/>
<circle clip-path="url(#clip902)" cx="413.577" cy="1386.4" r="14.4" fill="#009af9" fill-rule="evenodd" fill-opacity="1" stroke="#000000" stroke-opacity="1" stroke-width="3.2"/>
<circle clip-path="url(#clip902)" cx="512.53" cy="1386.4" r="14.4" fill="#009af9" fill-rule="evenodd" fill-opacity="1" stroke="#000000" stroke-opacity="1" stroke-width="3.2"/>
<circle clip-path="url(#clip902)" cx="809.388" cy="1386.4" r="14.4" fill="#009af9" fill-rule="evenodd" fill-opacity="1" stroke="#000000" stroke-opacity="1" stroke-width="3.2"/>
<circle clip-path="url(#clip902)" cx="1304.15" cy="1386.4" r="14.4" fill="#009af9" fill-rule="evenodd" fill-opacity="1" stroke="#000000" stroke-opacity="1" stroke-width="3.2"/>
<circle clip-path="url(#clip902)" cx="2293.68" cy="1386.4" r="14.4" fill="#009af9" fill-rule="evenodd" fill-opacity="1" stroke="#000000" stroke-opacity="1" stroke-width="3.2"/>
<polyline clip-path="url(#clip902)" style="stroke:#e26f46; stroke-linecap:round; stroke-linejoin:round; stroke-width:4; stroke-opacity:1; fill:none" points="324.52,1377.22 334.415,1371.11 354.205,1358.88 413.577,1322.18 512.53,1261.03 809.388,1077.57 1304.15,771.797 2293.68,160.256 "/>
<circle clip-path="url(#clip902)" cx="324.52" cy="1377.22" r="14.4" fill="#e26f46" fill-rule="evenodd" fill-opacity="1" stroke="#000000" stroke-opacity="1" stroke-width="3.2"/>
<circle clip-path="url(#clip902)" cx="334.415" cy="1371.11" r="14.4" fill="#e26f46" fill-rule="evenodd" fill-opacity="1" stroke="#000000" stroke-opacity="1" stroke-width="3.2"/>
<circle clip-path="url(#clip902)" cx="354.205" cy="1358.88" r="14.4" fill="#e26f46" fill-rule="evenodd" fill-opacity="1" stroke="#000000" stroke-opacity="1" stroke-width="3.2"/>
<circle clip-path="url(#clip902)" cx="413.577" cy="1322.18" r="14.4" fill="#e26f46" fill-rule="evenodd" fill-opacity="1" stroke="#000000" stroke-opacity="1" stroke-width="3.2"/>
<circle clip-path="url(#clip902)" cx="512.53" cy="1261.03" r="14.4" fill="#e26f46" fill-rule="evenodd" fill-opacity="1" stroke="#000000" stroke-opacity="1" stroke-width="3.2"/>
<circle clip-path="url(#clip902)" cx="809.388" cy="1077.57" r="14.4" fill="#e26f46" fill-rule="evenodd" fill-opacity="1" stroke="#000000" stroke-opacity="1" stroke-width="3.2"/>
<circle clip-path="url(#clip902)" cx="1304.15" cy="771.797" r="14.4" fill="#e26f46" fill-rule="evenodd" fill-opacity="1" stroke="#000000" stroke-opacity="1" stroke-width="3.2"/>
<circle clip-path="url(#clip902)" cx="2293.68" cy="160.256" r="14.4" fill="#e26f46" fill-rule="evenodd" fill-opacity="1" stroke="#000000" stroke-opacity="1" stroke-width="3.2"/>
<path clip-path="url(#clip900)" d="M335.022 322.316 L814.284 322.316 L814.284 166.796 L335.022 166.796  Z" fill="#ffffff" fill-rule="evenodd" fill-opacity="1"/>
<polyline clip-path="url(#clip900)" style="stroke:#000000; stroke-linecap:round; stroke-linejoin:round; stroke-width:4; stroke-opacity:1; fill:none" points="335.022,322.316 814.284,322.316 814.284,166.796 335.022,166.796 335.022,322.316 "/>
<polyline clip-path="url(#clip900)" style="stroke:#009af9; stroke-linecap:round; stroke-linejoin:round; stroke-width:4; stroke-opacity:1; fill:none" points="358.214,218.636 497.368,218.636 "/>
<circle clip-path="url(#clip900)" cx="427.791" cy="218.636" r="19.327" fill="#009af9" fill-rule="evenodd" fill-opacity="1" stroke="#000000" stroke-opacity="1" stroke-width="4.55111"/>
<path clip-path="url(#clip900)" d="M538.986 210.754 L538.986 214.782 Q537.181 213.856 535.236 213.393 Q533.292 212.93 531.209 212.93 Q528.037 212.93 526.44 213.902 Q524.866 214.874 524.866 216.819 Q524.866 218.3 526 219.157 Q527.135 219.99 530.56 220.754 L532.019 221.078 Q536.556 222.05 538.454 223.832 Q540.375 225.592 540.375 228.763 Q540.375 232.374 537.505 234.481 Q534.658 236.587 529.658 236.587 Q527.574 236.587 525.306 236.17 Q523.061 235.777 520.561 234.967 L520.561 230.569 Q522.922 231.795 525.213 232.42 Q527.505 233.022 529.75 233.022 Q532.76 233.022 534.38 232.004 Q536 230.962 536 229.087 Q536 227.351 534.82 226.425 Q533.662 225.499 529.704 224.643 L528.223 224.295 Q524.264 223.462 522.505 221.749 Q520.746 220.013 520.746 217.004 Q520.746 213.346 523.338 211.356 Q525.931 209.365 530.699 209.365 Q533.06 209.365 535.144 209.712 Q537.227 210.059 538.986 210.754 Z" fill="#000000" fill-rule="nonzero" fill-opacity="1" /><path clip-path="url(#clip900)" d="M565.815 210.985 L565.815 214.967 Q564.009 213.971 562.181 213.485 Q560.375 212.976 558.523 212.976 Q554.38 212.976 552.088 215.615 Q549.796 218.231 549.796 222.976 Q549.796 227.721 552.088 230.36 Q554.38 232.976 558.523 232.976 Q560.375 232.976 562.181 232.49 Q564.009 231.981 565.815 230.985 L565.815 234.92 Q564.033 235.754 562.111 236.17 Q560.213 236.587 558.06 236.587 Q552.204 236.587 548.755 232.906 Q545.306 229.226 545.306 222.976 Q545.306 216.633 548.778 212.999 Q552.273 209.365 558.338 209.365 Q560.306 209.365 562.181 209.782 Q564.056 210.175 565.815 210.985 Z" fill="#000000" fill-rule="nonzero" fill-opacity="1" /><path clip-path="url(#clip900)" d="M585.005 222.883 Q579.843 222.883 577.852 224.064 Q575.861 225.244 575.861 228.092 Q575.861 230.36 577.343 231.703 Q578.847 233.022 581.417 233.022 Q584.958 233.022 587.088 230.522 Q589.241 227.999 589.241 223.832 L589.241 222.883 L585.005 222.883 M593.5 221.124 L593.5 235.916 L589.241 235.916 L589.241 231.981 Q587.782 234.342 585.606 235.476 Q583.431 236.587 580.282 236.587 Q576.301 236.587 573.94 234.365 Q571.602 232.119 571.602 228.369 Q571.602 223.994 574.519 221.772 Q577.458 219.55 583.269 219.55 L589.241 219.55 L589.241 219.133 Q589.241 216.194 587.296 214.596 Q585.375 212.976 581.88 212.976 Q579.657 212.976 577.551 213.508 Q575.445 214.041 573.5 215.106 L573.5 211.17 Q575.838 210.268 578.037 209.828 Q580.236 209.365 582.319 209.365 Q587.944 209.365 590.722 212.282 Q593.5 215.198 593.5 221.124 Z" fill="#000000" fill-rule="nonzero" fill-opacity="1" /><path clip-path="url(#clip900)" d="M602.273 199.897 L606.532 199.897 L606.532 235.916 L602.273 235.916 L602.273 199.897 Z" fill="#000000" fill-rule="nonzero" fill-opacity="1" /><path clip-path="url(#clip900)" d="M627.227 222.883 Q622.065 222.883 620.074 224.064 Q618.083 225.244 618.083 228.092 Q618.083 230.36 619.565 231.703 Q621.069 233.022 623.639 233.022 Q627.18 233.022 629.31 230.522 Q631.463 227.999 631.463 223.832 L631.463 222.883 L627.227 222.883 M635.722 221.124 L635.722 235.916 L631.463 235.916 L631.463 231.981 Q630.004 234.342 627.828 235.476 Q625.653 236.587 622.504 236.587 Q618.523 236.587 616.162 234.365 Q613.824 232.119 613.824 228.369 Q613.824 223.994 616.741 221.772 Q619.68 219.55 625.491 219.55 L631.463 219.55 L631.463 219.133 Q631.463 216.194 629.518 214.596 Q627.597 212.976 624.102 212.976 Q621.879 212.976 619.773 213.508 Q617.666 214.041 615.722 215.106 L615.722 211.17 Q618.06 210.268 620.259 209.828 Q622.458 209.365 624.541 209.365 Q630.166 209.365 632.944 212.282 Q635.722 215.198 635.722 221.124 Z" fill="#000000" fill-rule="nonzero" fill-opacity="1" /><path clip-path="url(#clip900)" d="M659.518 213.971 Q658.801 213.555 657.944 213.37 Q657.111 213.161 656.092 213.161 Q652.481 213.161 650.537 215.522 Q648.615 217.86 648.615 222.258 L648.615 235.916 L644.333 235.916 L644.333 209.99 L648.615 209.99 L648.615 214.018 Q649.958 211.657 652.111 210.522 Q654.264 209.365 657.342 209.365 Q657.782 209.365 658.314 209.434 Q658.847 209.481 659.495 209.596 L659.518 213.971 Z" fill="#000000" fill-rule="nonzero" fill-opacity="1" /><path clip-path="url(#clip900)" d="M692.18 199.897 L692.18 203.439 L688.106 203.439 Q685.814 203.439 684.912 204.365 Q684.032 205.291 684.032 207.698 L684.032 209.99 L691.046 209.99 L691.046 213.3 L684.032 213.3 L684.032 235.916 L679.749 235.916 L679.749 213.3 L675.675 213.3 L675.675 209.99 L679.749 209.99 L679.749 208.184 Q679.749 203.856 681.763 201.888 Q683.777 199.897 688.152 199.897 L692.18 199.897 Z" fill="#000000" fill-rule="nonzero" fill-opacity="1" /><path clip-path="url(#clip900)" d="M705.791 212.976 Q702.365 212.976 700.374 215.661 Q698.384 218.323 698.384 222.976 Q698.384 227.629 700.351 230.314 Q702.342 232.976 705.791 232.976 Q709.194 232.976 711.185 230.291 Q713.175 227.606 713.175 222.976 Q713.175 218.37 711.185 215.684 Q709.194 212.976 705.791 212.976 M705.791 209.365 Q711.347 209.365 714.518 212.976 Q717.689 216.587 717.689 222.976 Q717.689 229.342 714.518 232.976 Q711.347 236.587 705.791 236.587 Q700.212 236.587 697.041 232.976 Q693.893 229.342 693.893 222.976 Q693.893 216.587 697.041 212.976 Q700.212 209.365 705.791 209.365 Z" fill="#000000" fill-rule="nonzero" fill-opacity="1" /><path clip-path="url(#clip900)" d="M739.772 213.971 Q739.055 213.555 738.198 213.37 Q737.365 213.161 736.346 213.161 Q732.735 213.161 730.791 215.522 Q728.87 217.86 728.87 222.258 L728.87 235.916 L724.587 235.916 L724.587 209.99 L728.87 209.99 L728.87 214.018 Q730.212 211.657 732.365 210.522 Q734.518 209.365 737.596 209.365 Q738.036 209.365 738.569 209.434 Q739.101 209.481 739.749 209.596 L739.772 213.971 Z" fill="#000000" fill-rule="nonzero" fill-opacity="1" /><path clip-path="url(#clip900)" d="M763.592 214.967 Q765.189 212.096 767.411 210.731 Q769.633 209.365 772.643 209.365 Q776.693 209.365 778.892 212.212 Q781.092 215.036 781.092 220.268 L781.092 235.916 L776.809 235.916 L776.809 220.407 Q776.809 216.68 775.49 214.874 Q774.17 213.069 771.462 213.069 Q768.152 213.069 766.231 215.268 Q764.309 217.467 764.309 221.263 L764.309 235.916 L760.027 235.916 L760.027 220.407 Q760.027 216.657 758.707 214.874 Q757.388 213.069 754.633 213.069 Q751.369 213.069 749.448 215.291 Q747.527 217.49 747.527 221.263 L747.527 235.916 L743.245 235.916 L743.245 209.99 L747.527 209.99 L747.527 214.018 Q748.985 211.633 751.022 210.499 Q753.059 209.365 755.86 209.365 Q758.684 209.365 760.652 210.8 Q762.643 212.235 763.592 214.967 Z" fill="#000000" fill-rule="nonzero" fill-opacity="1" /><polyline clip-path="url(#clip900)" style="stroke:#e26f46; stroke-linecap:round; stroke-linejoin:round; stroke-width:4; stroke-opacity:1; fill:none" points="358.214,270.476 497.368,270.476 "/>
<circle clip-path="url(#clip900)" cx="427.791" cy="270.476" r="19.327" fill="#e26f46" fill-rule="evenodd" fill-opacity="1" stroke="#000000" stroke-opacity="1" stroke-width="4.55111"/>
<path clip-path="url(#clip900)" d="M520.561 261.83 L525.074 261.83 L533.176 283.589 L541.278 261.83 L545.792 261.83 L536.07 287.756 L530.283 287.756 L520.561 261.83 Z" fill="#000000" fill-rule="nonzero" fill-opacity="1" /><path clip-path="url(#clip900)" d="M573.847 273.728 L573.847 275.811 L554.264 275.811 Q554.542 280.209 556.903 282.524 Q559.287 284.816 563.523 284.816 Q565.977 284.816 568.269 284.214 Q570.583 283.612 572.852 282.409 L572.852 286.436 Q570.56 287.408 568.153 287.918 Q565.745 288.427 563.269 288.427 Q557.065 288.427 553.431 284.816 Q549.82 281.205 549.82 275.047 Q549.82 268.682 553.246 264.955 Q556.695 261.205 562.528 261.205 Q567.759 261.205 570.792 264.585 Q573.847 267.941 573.847 273.728 M569.588 272.478 Q569.542 268.983 567.62 266.899 Q565.722 264.816 562.574 264.816 Q559.009 264.816 556.857 266.83 Q554.727 268.844 554.403 272.501 L569.588 272.478 Z" fill="#000000" fill-rule="nonzero" fill-opacity="1" /><path clip-path="url(#clip900)" d="M599.495 262.825 L599.495 266.807 Q597.69 265.811 595.861 265.325 Q594.056 264.816 592.204 264.816 Q588.06 264.816 585.769 267.455 Q583.477 270.071 583.477 274.816 Q583.477 279.561 585.769 282.2 Q588.06 284.816 592.204 284.816 Q594.056 284.816 595.861 284.33 Q597.69 283.821 599.495 282.825 L599.495 286.76 Q597.713 287.594 595.792 288.01 Q593.893 288.427 591.741 288.427 Q585.884 288.427 582.435 284.746 Q578.986 281.066 578.986 274.816 Q578.986 268.473 582.458 264.839 Q585.954 261.205 592.018 261.205 Q593.986 261.205 595.861 261.622 Q597.736 262.015 599.495 262.825 Z" fill="#000000" fill-rule="nonzero" fill-opacity="1" /><path clip-path="url(#clip900)" d="M611.116 254.469 L611.116 261.83 L619.889 261.83 L619.889 265.14 L611.116 265.14 L611.116 279.214 Q611.116 282.385 611.972 283.288 Q612.852 284.191 615.514 284.191 L619.889 284.191 L619.889 287.756 L615.514 287.756 Q610.583 287.756 608.708 285.927 Q606.833 284.075 606.833 279.214 L606.833 265.14 L603.708 265.14 L603.708 261.83 L606.833 261.83 L606.833 254.469 L611.116 254.469 Z" fill="#000000" fill-rule="nonzero" fill-opacity="1" /><path clip-path="url(#clip900)" d="M635.537 264.816 Q632.111 264.816 630.12 267.501 Q628.129 270.163 628.129 274.816 Q628.129 279.469 630.097 282.154 Q632.088 284.816 635.537 284.816 Q638.94 284.816 640.93 282.131 Q642.921 279.446 642.921 274.816 Q642.921 270.21 640.93 267.524 Q638.94 264.816 635.537 264.816 M635.537 261.205 Q641.092 261.205 644.264 264.816 Q647.435 268.427 647.435 274.816 Q647.435 281.182 644.264 284.816 Q641.092 288.427 635.537 288.427 Q629.958 288.427 626.787 284.816 Q623.639 281.182 623.639 274.816 Q623.639 268.427 626.787 264.816 Q629.958 261.205 635.537 261.205 Z" fill="#000000" fill-rule="nonzero" fill-opacity="1" /><path clip-path="url(#clip900)" d="M669.518 265.811 Q668.8 265.395 667.944 265.21 Q667.111 265.001 666.092 265.001 Q662.481 265.001 660.537 267.362 Q658.615 269.7 658.615 274.098 L658.615 287.756 L654.333 287.756 L654.333 261.83 L658.615 261.83 L658.615 265.858 Q659.958 263.497 662.111 262.362 Q664.263 261.205 667.342 261.205 Q667.782 261.205 668.314 261.274 Q668.847 261.321 669.495 261.436 L669.518 265.811 Z" fill="#000000" fill-rule="nonzero" fill-opacity="1" /><path clip-path="url(#clip900)" d="M702.18 251.737 L702.18 255.279 L698.106 255.279 Q695.814 255.279 694.911 256.205 Q694.032 257.131 694.032 259.538 L694.032 261.83 L701.046 261.83 L701.046 265.14 L694.032 265.14 L694.032 287.756 L689.749 287.756 L689.749 265.14 L685.675 265.14 L685.675 261.83 L689.749 261.83 L689.749 260.024 Q689.749 255.696 691.763 253.728 Q693.777 251.737 698.152 251.737 L702.18 251.737 Z" fill="#000000" fill-rule="nonzero" fill-opacity="1" /><path clip-path="url(#clip900)" d="M715.791 264.816 Q712.365 264.816 710.374 267.501 Q708.384 270.163 708.384 274.816 Q708.384 279.469 710.351 282.154 Q712.342 284.816 715.791 284.816 Q719.194 284.816 721.184 282.131 Q723.175 279.446 723.175 274.816 Q723.175 270.21 721.184 267.524 Q719.194 264.816 715.791 264.816 M715.791 261.205 Q721.346 261.205 724.518 264.816 Q727.689 268.427 727.689 274.816 Q727.689 281.182 724.518 284.816 Q721.346 288.427 715.791 288.427 Q710.212 288.427 707.041 284.816 Q703.893 281.182 703.893 274.816 Q703.893 268.427 707.041 264.816 Q710.212 261.205 715.791 261.205 Z" fill="#000000" fill-rule="nonzero" fill-opacity="1" /><path clip-path="url(#clip900)" d="M749.772 265.811 Q749.055 265.395 748.198 265.21 Q747.365 265.001 746.346 265.001 Q742.735 265.001 740.791 267.362 Q738.87 269.7 738.87 274.098 L738.87 287.756 L734.587 287.756 L734.587 261.83 L738.87 261.83 L738.87 265.858 Q740.212 263.497 742.365 262.362 Q744.518 261.205 747.596 261.205 Q748.036 261.205 748.569 261.274 Q749.101 261.321 749.749 261.436 L749.772 265.811 Z" fill="#000000" fill-rule="nonzero" fill-opacity="1" /><path clip-path="url(#clip900)" d="M773.592 266.807 Q775.189 263.936 777.411 262.571 Q779.633 261.205 782.642 261.205 Q786.693 261.205 788.892 264.052 Q791.091 266.876 791.091 272.108 L791.091 287.756 L786.809 287.756 L786.809 272.247 Q786.809 268.52 785.49 266.714 Q784.17 264.909 781.462 264.909 Q778.152 264.909 776.23 267.108 Q774.309 269.307 774.309 273.103 L774.309 287.756 L770.027 287.756 L770.027 272.247 Q770.027 268.497 768.707 266.714 Q767.388 264.909 764.633 264.909 Q761.369 264.909 759.448 267.131 Q757.527 269.33 757.527 273.103 L757.527 287.756 L753.244 287.756 L753.244 261.83 L757.527 261.83 L757.527 265.858 Q758.985 263.473 761.022 262.339 Q763.059 261.205 765.86 261.205 Q768.684 261.205 770.652 262.64 Q772.643 264.075 773.592 266.807 Z" fill="#000000" fill-rule="nonzero" fill-opacity="1" /></svg>
